<?xml version="1.0" standalone="no"?>
<!DOCTYPE svg PUBLIC "-//W3C//DTD SVG 20010904//EN"
 "http://www.w3.org/TR/2001/REC-SVG-20010904/DTD/svg10.dtd">
<svg version="1.0" xmlns="http://www.w3.org/2000/svg"
 width="16.000000pt" height="16.000000pt" viewBox="0 0 16.000000 16.000000"
 preserveAspectRatio="xMidYMid meet">
<metadata>
Created by potrace 1.11, written by Peter Selinger 2001-2013
</metadata>
<g transform="translate(0.000000,16.000000) scale(0.002000,-0.002000)"
fill="#000000" stroke="none">
<path d="M3268 7935 c-2 -2 -23 -6 -48 -9 -72 -8 -101 -14 -165 -31 -33 -9
-65 -18 -72 -19 -7 -1 -16 -5 -19 -9 -4 -4 -14 -7 -21 -7 -18 0 -170 -69 -205
-93 -16 -10 -28 -15 -28 -10 0 4 -4 4 -8 -2 -4 -5 -38 -31 -77 -56 -38 -26
-88 -62 -110 -80 -59 -50 -195 -191 -236 -246 -45 -59 -129 -194 -129 -206 0
-5 -9 -21 -19 -35 -10 -15 -19 -29 -19 -32 0 -3 -6 -21 -14 -40 -8 -19 -25
-66 -38 -105 -12 -38 -25 -77 -28 -85 -6 -17 -6 -18 -21 -90 -6 -30 -14 -66
-17 -80 -13 -64 -19 -158 -19 -305 0 -138 10 -288 20 -305 1 -3 6 -27 9 -55 4
-27 20 -103 36 -167 17 -65 30 -120 30 -122 0 -6 -55 1 -110 13 -41 9 -283 7
-335 -3 -164 -33 -316 -81 -395 -126 -8 -5 -37 -20 -65 -35 -75 -39 -216 -142
-287 -211 -216 -208 -332 -419 -385 -702 -12 -63 -8 -293 6 -367 34 -173 92
-310 207 -488 35 -54 64 -100 64 -103 0 -2 -22 -37 -49 -77 -88 -129 -172
-317 -200 -447 -31 -147 -34 -355 -6 -490 27 -128 128 -384 172 -432 9 -10 13
-18 10 -18 -11 0 78 -125 159 -225 88 -109 310 -325 334 -325 4 0 10 -4 12 -8
4 -12 130 -102 213 -152 201 -123 452 -221 601 -234 17 -2 35 -5 40 -8 5 -3
41 -4 79 -3 l70 1 3 -75 c1 -42 4 -92 7 -111 4 -19 8 -50 11 -68 2 -19 13 -59
23 -91 17 -53 31 -83 77 -171 31 -60 144 -163 216 -199 76 -37 114 -49 178
-59 47 -7 210 -6 245 1 45 9 141 40 153 49 6 6 12 8 12 5 0 -8 107 51 146 80
17 13 33 23 36 23 3 0 32 -33 64 -72 55 -69 274 -294 339 -348 103 -86 268
-200 290 -200 11 0 145 84 182 114 10 8 47 38 83 67 81 64 307 293 351 354 18
25 36 45 40 45 4 0 11 9 14 20 9 27 17 25 73 -12 56 -39 121 -72 182 -93 3 -1
12 -4 20 -8 51 -19 146 -31 240 -31 334 3 560 231 605 609 4 33 8 85 9 115 l1
55 65 1 c53 1 168 12 190 19 3 1 19 5 35 9 137 35 322 112 455 190 88 51 211
132 220 145 3 4 21 18 40 31 116 81 381 357 428 447 7 12 18 27 25 35 20 20
91 146 127 223 35 74 92 235 84 235 -3 0 0 8 5 18 19 35 34 163 34 287 0 84
-10 212 -18 226 -2 3 -7 20 -10 38 -22 128 -154 404 -232 489 -19 20 -17 27
36 105 101 150 156 268 202 432 25 92 28 114 27 280 0 183 -5 217 -52 367 -53
169 -203 387 -359 523 -38 33 -77 67 -86 75 -88 79 -317 194 -479 241 -116 33
-187 42 -342 43 -114 0 -154 -3 -232 -20 -16 -3 -28 -3 -28 1 0 4 9 43 21 88
26 101 29 115 34 151 2 15 7 35 9 45 3 9 8 43 12 76 3 33 9 64 11 69 10 15 11
348 2 416 -16 131 -19 146 -30 195 -82 345 -261 638 -514 840 -33 26 -62 51
-65 54 -3 4 -16 12 -30 19 -14 7 -52 29 -85 50 -173 110 -414 181 -635 186
-222 6 -355 -22 -547 -116 l-122 -59 -73 40 c-111 60 -256 110 -371 127 -38 6
-284 13 -289 9z m325 -319 c34 -8 85 -21 113 -29 91 -26 299 -145 285 -163 -3
-5 -26 -26 -51 -48 -187 -161 -338 -311 -485 -480 -42 -48 -185 -234 -185
-241 0 -3 -15 -27 -32 -53 -185 -271 -314 -603 -353 -902 -3 -25 -8 -63 -10
-85 -6 -48 -6 -310 -1 -345 7 -43 19 -134 21 -155 1 -11 5 -29 8 -40 3 -11 9
-35 12 -54 3 -19 8 -37 10 -41 2 -3 6 -19 9 -34 5 -30 51 -179 65 -211 5 -11
23 -56 41 -100 17 -44 61 -136 96 -204 62 -120 62 -127 -1 -68 -109 103 -340
245 -460 283 -101 33 -181 53 -225 59 -30 3 -68 9 -85 12 -31 5 -157 5 -210
-1 -158 -17 -288 -56 -422 -127 -159 -83 -277 -180 -393 -325 -46 -57 -117
-183 -152 -269 -13 -32 -37 -105 -38 -113 0 -4 -3 -20 -6 -37 -11 -64 -12 -70
-13 -85 -1 -10 -7 -5 -19 11 -9 15 -40 60 -68 101 -81 116 -148 266 -179 403
-95 409 77 825 435 1055 62 40 164 90 210 105 171 53 242 63 415 60 83 -1 161
-6 175 -9 14 -4 41 -9 60 -12 19 -3 49 -9 65 -14 121 -37 177 -56 224 -77 30
-13 55 -22 57 -21 1 2 -10 30 -26 62 -50 101 -139 335 -156 406 -44 195 -58
306 -58 470 0 213 33 392 105 565 7 17 13 32 14 35 2 10 60 125 67 135 5 6 31
46 60 90 101 155 300 327 472 409 100 48 223 83 321 93 28 3 51 6 52 7 8 7
184 -7 236 -18z m1125 10 c17 -3 44 -8 60 -11 54 -10 68 -13 129 -34 231 -78
443 -243 600 -468 27 -39 124 -218 127 -235 1 -7 7 -22 13 -33 6 -11 17 -40
24 -65 7 -25 14 -49 15 -55 12 -41 36 -145 39 -165 2 -14 7 -43 10 -65 15 -96
8 -380 -11 -467 -3 -13 -7 -39 -10 -58 -18 -131 -97 -364 -179 -532 -18 -37
-31 -69 -28 -71 2 -3 34 8 71 24 108 45 233 79 357 97 63 9 286 9 345 0 291
-44 541 -193 705 -418 64 -88 129 -222 150 -310 1 -3 5 -16 8 -30 16 -59 19
-92 22 -205 3 -108 1 -143 -19 -252 -11 -56 -66 -201 -105 -277 -49 -92 -158
-250 -162 -234 0 2 -2 14 -5 28 -2 14 -6 39 -9 55 -3 17 -6 35 -6 40 -3 21
-52 143 -82 205 -74 153 -231 329 -382 428 -44 29 -85 57 -92 62 -7 6 -17 10
-22 10 -5 0 -25 9 -43 20 -47 27 -232 86 -298 95 -81 10 -161 17 -190 18 -42
0 -193 -14 -201 -19 -4 -2 -20 -6 -36 -8 -53 -8 -83 -16 -155 -42 -89 -32
-258 -114 -258 -126 0 -4 -5 -8 -11 -8 -10 0 -67 -38 -123 -80 -17 -13 -64
-53 -133 -114 -17 -14 -5 16 40 105 54 107 83 170 117 254 4 11 15 38 24 60
17 43 65 205 72 245 3 14 7 32 10 42 8 26 25 127 32 193 9 78 9 397 0 455 -4
25 -10 62 -13 82 -10 72 -54 239 -86 332 -46 130 -148 342 -200 418 -11 14
-19 29 -19 32 0 4 -61 97 -92 141 -27 37 -211 266 -237 295 -71 78 -193 200
-281 280 -51 47 -99 91 -106 98 -8 7 -14 11 -14 9 0 -2 -15 10 -34 27 l-34 31
31 27 c18 16 82 52 142 82 110 55 206 84 300 93 28 3 51 6 52 6 4 4 151 -2
181 -7z m-695 -488 c43 -22 143 -104 212 -173 322 -321 620 -890 681 -1300 14
-94 7 -389 -11 -471 -3 -12 -7 -39 -10 -60 -4 -21 -15 -77 -26 -124 -11 -47
-22 -94 -25 -105 -8 -39 -82 -282 -94 -310 -5 -11 -21 -56 -36 -100 -14 -44
-32 -93 -39 -110 -14 -31 -148 -405 -210 -584 -31 -92 -112 -359 -120 -401 -2
-8 -12 -53 -24 -100 -11 -47 -23 -101 -26 -120 -3 -19 -8 -42 -10 -50 -2 -8
-7 -33 -10 -55 -3 -23 -8 -52 -10 -65 -3 -14 -8 -48 -10 -76 -3 -28 -8 -62
-10 -75 -5 -22 -18 -182 -19 -222 0 -16 -16 -17 -220 -15 -186 3 -219 5 -221
18 -1 8 -5 55 -9 103 -8 99 -12 131 -32 262 -8 50 -16 101 -18 115 -2 14 -6
34 -9 45 -3 11 -8 36 -11 56 -3 20 -10 47 -15 60 -5 13 -9 26 -9 29 0 5 -15
79 -17 90 -12 45 -20 73 -32 110 -8 25 -17 56 -19 69 -8 41 -108 336 -189 556
-42 116 -78 215 -79 220 -2 6 -8 24 -15 40 -7 17 -28 77 -48 135 -19 58 -38
114 -43 125 -9 21 -30 87 -34 108 -2 7 -6 19 -9 27 -5 13 -21 71 -33 120 -2 8
-10 42 -19 75 -8 33 -17 71 -19 85 -2 14 -11 70 -21 125 -11 61 -19 162 -20
260 -3 219 29 374 128 625 86 220 249 513 373 669 120 153 228 264 333 343 42
32 77 58 79 58 2 0 13 -5 25 -12z m-1525 -2652 c22 -6 45 -12 80 -20 37 -10
142 -57 200 -90 150 -88 340 -275 458 -450 75 -112 160 -281 212 -421 41 -110
105 -329 115 -395 3 -19 10 -57 15 -85 6 -27 13 -74 17 -104 4 -30 8 -63 11
-74 2 -11 6 -63 10 -116 4 -53 8 -99 11 -103 5 -10 -305 -9 -311 1 -3 4 -8 23
-10 42 -14 96 -64 220 -131 328 -32 51 -124 144 -178 179 -23 15 -44 29 -47
33 -6 6 -125 55 -157 64 -90 25 -219 29 -302 9 -36 -8 -73 -17 -81 -19 -33 -7
-142 -73 -190 -115 -91 -79 -185 -250 -189 -342 -1 -26 -15 -23 -121 25 -225
101 -380 242 -457 415 -40 90 -54 150 -58 257 -3 88 13 238 29 263 3 5 7 20 9
33 8 41 72 169 128 254 28 44 88 116 133 160 78 76 226 185 254 185 6 0 12 5
12 10 0 6 7 10 15 10 8 0 23 4 33 9 16 9 47 21 65 26 4 2 8 3 10 5 3 2 21 7
92 24 59 14 273 15 323 2z m3328 1 c89 -16 311 -111 322 -139 2 -4 8 -8 14 -8
34 0 216 -181 282 -280 51 -77 108 -180 99 -180 -3 0 -1 -6 5 -12 13 -17 53
-151 60 -203 8 -55 7 -190 0 -245 -13 -87 -86 -270 -109 -270 -5 0 -9 -6 -9
-12 0 -18 -105 -127 -168 -177 -30 -22 -82 -57 -116 -76 -60 -33 -200 -95
-217 -95 -4 0 -12 22 -18 49 -37 171 -165 331 -324 405 -86 39 -140 50 -262
49 -107 0 -129 -3 -202 -30 -206 -75 -346 -213 -434 -428 -18 -44 -40 -119
-45 -153 -9 -65 0 -62 -168 -61 -153 0 -154 0 -151 22 2 12 6 54 10 92 11 137
15 172 37 290 6 33 12 69 14 80 17 106 91 353 139 461 13 30 24 55 24 57 -1 5
69 147 91 183 45 76 105 169 117 182 7 7 26 32 43 56 44 60 217 225 292 279
93 65 222 131 279 142 9 2 33 8 55 14 21 6 50 12 64 14 34 5 237 0 276 -6z
m1150 -887 c160 -234 222 -477 191 -746 -22 -189 -134 -436 -281 -619 -50 -63
-194 -207 -266 -266 -59 -49 -219 -157 -235 -159 -5 -1 -17 -7 -25 -15 -24
-21 -183 -92 -278 -124 -120 -41 -239 -63 -344 -65 -48 0 -88 -5 -88 -9 0 -5
-4 -6 -9 -3 -4 3 -35 8 -67 11 -32 4 -81 12 -109 19 -27 8 -57 15 -65 17 -8 2
-52 23 -98 46 -95 48 -176 113 -233 187 -22 28 -43 56 -47 61 -4 6 -23 40 -42
76 l-34 66 22 51 c67 155 61 343 -14 451 -18 27 -31 51 -29 53 2 2 6 17 9 33
11 58 68 156 124 213 92 93 197 133 326 128 87 -4 100 -8 166 -41 83 -42 154
-126 184 -216 22 -64 36 -169 22 -169 -7 0 -6 -4 1 -11 6 -6 8 -23 3 -44 -5
-23 -4 -37 4 -43 21 -16 192 -4 281 20 22 5 47 12 55 14 195 46 454 238 589
437 76 112 151 286 167 385 3 20 8 40 10 43 8 13 18 141 18 236 l1 102 20 -22
c11 -12 43 -56 71 -97z m-5851 7 c-3 -255 75 -496 223 -692 206 -275 509 -435
832 -439 l65 -1 1 75 c1 82 11 168 22 184 4 6 7 13 7 16 1 3 9 22 18 42 52
121 175 204 319 215 124 10 246 -35 337 -126 59 -59 88 -108 120 -202 l19 -56
-24 -31 c-47 -59 -64 -114 -68 -219 -4 -79 14 -170 46 -246 l21 -47 -34 -68
c-18 -37 -39 -73 -46 -80 -7 -7 -13 -17 -13 -21 0 -9 -110 -123 -157 -163 -76
-65 -263 -135 -381 -143 -32 -2 -59 -5 -62 -6 -6 -2 1 -2 -105 5 -119 8 -137
11 -234 36 -346 88 -707 330 -929 623 -46 60 -152 230 -152 242 0 6 -37 92
-51 118 -5 10 -7 22 -4 27 4 6 1 10 -6 10 -7 0 -9 3 -6 6 3 4 2 16 -4 27 -38
70 -55 344 -31 477 20 108 81 275 106 292 6 4 8 8 3 8 -14 0 148 240 162 240
4 0 6 -47 6 -103z m3672 -1180 c26 -26 26 -178 0 -204 -17 -17 -63 -18 -798
-18 l-781 0 -14 34 c-24 58 -14 182 16 201 5 3 358 6 784 5 731 0 776 -1 793
-18z m-1213 -497 c-7 -524 -244 -974 -564 -1070 -163 -50 -310 -21 -410 79
-77 77 -103 202 -68 320 l13 44 101 33 c162 52 296 137 389 246 28 32 55 64
61 71 21 24 94 151 94 164 0 7 3 13 8 13 7 0 32 50 34 67 1 4 12 27 25 51 13
23 21 42 17 42 -4 0 -1 7 6 15 10 12 39 14 153 12 l142 -2 -1 -85z m651 65 c3
-11 7 -67 10 -125 23 -433 98 -720 247 -937 16 -24 24 -43 18 -43 -5 0 -10 -4
-10 -9 0 -23 -192 -219 -274 -281 -26 -19 -52 -40 -59 -45 -7 -6 -45 -34 -85
-63 -85 -62 -67 -66 -232 57 -123 93 -253 214 -319 299 l-41 53 20 22 c11 11
20 24 20 28 0 4 6 14 13 21 18 18 77 141 104 218 44 124 83 298 99 445 3 33 8
74 10 90 2 17 6 86 10 154 3 69 7 128 9 131 2 3 105 5 230 5 218 0 226 0 230
-20z m501 -33 c63 -140 122 -249 159 -296 11 -14 35 -44 54 -68 94 -118 254
-219 422 -268 85 -25 92 -32 105 -116 16 -95 1 -170 -47 -239 -31 -45 -48 -61
-99 -91 -32 -18 -48 -24 -110 -41 -42 -12 -133 -7 -200 9 -206 51 -392 245
-490 514 -29 79 -76 258 -85 325 -4 30 -9 65 -11 79 -2 14 -7 75 -10 136 l-6
111 146 1 147 1 25 -57z"/>
</g>
</svg>
