<svg width="106" height="103" viewBox="0 0 106 103" fill="none" xmlns="http://www.w3.org/2000/svg">
  <g clip-path="url(#clip0_164_15367)">
    <path
      d="M92.9656 52.845C51.9457 57.2648 56.1627 53.4215 51.9457 94.1603C47.7287 52.845 51.3707 57.2648 10.9258 53.0372C51.9457 48.8096 47.7287 52.4607 51.9457 11.9141C56.1627 52.845 52.5208 48.6174 92.9656 52.845Z"
      fill="#F0DC2F"/>
    <path
      d="M37.5696 84.3601C18.7848 86.2817 20.7016 84.5522 18.7848 103.192C16.868 84.36 18.5931 86.2817 0 84.3601C18.7848 82.4384 16.868 84.1679 18.7848 65.528C20.7016 84.36 18.9765 82.4384 37.5696 84.3601Z"
      fill="#F0DC2F"/>
    <path
      d="M106 18.8321C87.2152 20.7537 89.132 19.0243 87.2152 37.6642C85.2984 18.8321 87.0235 20.7537 68.4304 18.8321C87.2152 16.9104 85.2984 18.6399 87.2152 0C89.132 18.8321 87.5986 16.9104 106 18.8321Z"
      fill="#F0DC2F"/>
  </g>
  <defs>
    <clipPath id="clip0_164_15367">
      <rect width="106" height="103" fill="white"/>
    </clipPath>
  </defs>
</svg>
