<svg width="17" height="17" viewBox="0 0 17 17" fill="none" xmlns="http://www.w3.org/2000/svg">
  <path fill-rule="evenodd" clip-rule="evenodd"
        d="M8.98204 15.8779L15.8002 11.7113C15.9236 11.6358 16 11.5317 16 11.4167C16 11.1863 15.6952 11 15.3182 11C15.13 11 14.9595 11.0467 14.8361 11.1221L9.18182 14.5775L9.18182 1.41667C9.18182 1.18625 8.87705 1 8.5 1C8.12295 1 7.81818 1.18625 7.81818 1.41667L7.81818 14.5775L2.16386 11.1221C2.03977 11.0467 1.87 11 1.68182 11C1.30477 11 1 11.1863 1 11.4167C1 11.5317 1.07568 11.6358 1.19977 11.7112L8.01795 15.8779C8.14136 15.9538 8.31182 16 8.5 16C8.68818 16 8.85795 15.9538 8.98204 15.8779Z"
        fill="#332670"/>
  <path
    d="M8.98204 15.8779L15.8002 11.7113C15.9236 11.6358 16 11.5317 16 11.4167C16 11.1863 15.6952 11 15.3182 11C15.13 11 14.9595 11.0467 14.8361 11.1221L9.18182 14.5775L9.18182 1.41667C9.18182 1.18625 8.87705 1 8.5 1C8.12295 1 7.81818 1.18625 7.81818 1.41667L7.81818 14.5775L2.16386 11.1221C2.03977 11.0467 1.87 11 1.68182 11C1.30477 11 1 11.1862 1 11.4167C1 11.5317 1.07568 11.6358 1.19977 11.7112L8.01795 15.8779C8.14136 15.9538 8.31182 16 8.5 16C8.68818 16 8.85795 15.9538 8.98204 15.8779"
    stroke="#332670"/>
</svg>
