<svg width="68" height="68" viewBox="0 0 68 68" fill="none" xmlns="http://www.w3.org/2000/svg">
  <g clip-path="url(#clip0_15_210)">
    <path
      d="M1.8 3.69998C2.8 3.69998 3.6 2.89998 3.6 1.89998C3.6 0.899976 2.8 0.0999756 1.8 0.0999756C0.8 0.0999756 0 0.799976 0 1.79998C0 2.89998 0.8 3.69998 1.8 3.69998Z"
      fill="#332670"/>
    <path
      d="M1.8 16.4C2.8 16.4 3.6 15.6 3.6 14.6C3.6 13.6 2.8 12.8 1.8 12.8C0.8 12.8 0 13.6 0 14.6C0 15.6 0.8 16.4 1.8 16.4Z"
      fill="#332670"/>
    <path
      d="M1.8 29.2C2.8 29.2 3.6 28.4 3.6 27.4C3.6 26.4 2.8 25.6 1.8 25.6C0.8 25.6 0 26.3 0 27.4C0 28.4 0.8 29.2 1.8 29.2Z"
      fill="#332670"/>
    <path d="M1.8 42C2.8 42 3.6 41.2 3.6 40.2C3.6 39.2 2.8 38.4 1.8 38.4C0.8 38.4 0 39.1 0 40.1C0 41.1 0.8 42 1.8 42Z"
          fill="#332670"/>
    <path
      d="M1.8 54.7C2.8 54.7 3.6 53.9 3.6 52.9C3.6 51.9 2.8 51.1 1.8 51.1C0.8 51.1 0 51.8 0 52.9C0 53.9 0.8 54.7 1.8 54.7Z"
      fill="#332670"/>
    <path
      d="M1.8 67.5C2.8 67.5 3.6 66.7 3.6 65.7C3.6 64.7 2.8 63.9 1.8 63.9C0.8 63.9 0 64.6 0 65.6C0 66.6 0.8 67.5 1.8 67.5Z"
      fill="#332670"/>
    <path
      d="M14.6 3.69998C15.6 3.69998 16.4 2.89998 16.4 1.89998C16.4 0.899976 15.6 0.0999756 14.6 0.0999756C13.6 0.0999756 12.8 0.899976 12.8 1.89998C12.8 2.89998 13.6 3.69998 14.6 3.69998Z"
      fill="#332670"/>
    <path
      d="M14.6 16.4C15.6 16.4 16.4 15.6 16.4 14.6C16.4 13.6 15.6 12.8 14.6 12.8C13.6 12.8 12.8 13.6 12.8 14.6C12.8 15.6 13.6 16.4 14.6 16.4Z"
      fill="#332670"/>
    <path
      d="M14.6 29.2C15.6 29.2 16.4 28.4 16.4 27.4C16.4 26.4 15.6 25.6 14.6 25.6C13.6 25.6 12.8 26.4 12.8 27.4C12.8 28.4 13.6 29.2 14.6 29.2Z"
      fill="#332670"/>
    <path
      d="M14.6 42C15.6 42 16.4 41.2 16.4 40.2C16.4 39.2 15.6 38.4 14.6 38.4C13.6 38.4 12.8 39.2 12.8 40.2C12.8 41.1 13.6 42 14.6 42Z"
      fill="#332670"/>
    <path
      d="M14.6 54.7C15.6 54.7 16.4 53.9 16.4 52.9C16.4 51.9 15.6 51.1 14.6 51.1C13.6 51.1 12.8 51.9 12.8 52.9C12.8 53.9 13.6 54.7 14.6 54.7Z"
      fill="#332670"/>
    <path
      d="M14.6 67.5C15.6 67.5 16.4 66.7 16.4 65.7C16.4 64.7 15.6 63.9 14.6 63.9C13.6 63.9 12.8 64.7 12.8 65.7C12.8 66.6 13.6 67.5 14.6 67.5Z"
      fill="#332670"/>
    <path
      d="M27.4 3.69998C28.4 3.69998 29.2 2.89998 29.2 1.89998C29.2 0.899976 28.4 0.0999756 27.4 0.0999756C26.4 0.0999756 25.6 0.899976 25.6 1.89998C25.5 2.89998 26.3 3.69998 27.4 3.69998Z"
      fill="#332670"/>
    <path
      d="M27.4 16.4C28.4 16.4 29.2 15.6 29.2 14.6C29.2 13.6 28.4 12.8 27.4 12.8C26.4 12.8 25.6 13.6 25.6 14.6C25.5 15.6 26.3 16.4 27.4 16.4Z"
      fill="#332670"/>
    <path
      d="M27.4 29.2C28.4 29.2 29.2 28.4 29.2 27.4C29.2 26.4 28.4 25.6 27.4 25.6C26.4 25.6 25.6 26.4 25.6 27.4C25.5 28.4 26.3 29.2 27.4 29.2Z"
      fill="#332670"/>
    <path
      d="M27.4 42C28.4 42 29.2 41.2 29.2 40.2C29.2 39.2 28.4 38.4 27.4 38.4C26.4 38.4 25.6 39.2 25.6 40.2C25.5 41.1 26.3 42 27.4 42Z"
      fill="#332670"/>
    <path
      d="M27.4 54.7C28.4 54.7 29.2 53.9 29.2 52.9C29.2 51.9 28.4 51.1 27.4 51.1C26.4 51.1 25.6 51.9 25.6 52.9C25.5 53.9 26.3 54.7 27.4 54.7Z"
      fill="#332670"/>
    <path
      d="M27.4 67.5C28.4 67.5 29.2 66.7 29.2 65.7C29.2 64.7 28.4 63.9 27.4 63.9C26.4 63.9 25.6 64.7 25.6 65.7C25.5 66.6 26.3 67.5 27.4 67.5Z"
      fill="#332670"/>
    <path
      d="M40.1 3.69998C41.1 3.69998 41.9 2.89998 41.9 1.89998C41.9 0.899976 41.1 0.0999756 40.1 0.0999756C39.1 0.0999756 38.3 0.899976 38.3 1.89998C38.3 2.89998 39.1 3.69998 40.1 3.69998Z"
      fill="#332670"/>
    <path
      d="M40.1 16.4C41.1 16.4 41.9 15.6 41.9 14.6C41.9 13.6 41.1 12.8 40.1 12.8C39.1 12.8 38.3 13.6 38.3 14.6C38.3 15.6 39.1 16.4 40.1 16.4Z"
      fill="#332670"/>
    <path
      d="M40.1 29.2C41.1 29.2 41.9 28.4 41.9 27.4C41.9 26.4 41.1 25.6 40.1 25.6C39.1 25.6 38.3 26.4 38.3 27.4C38.3 28.4 39.1 29.2 40.1 29.2Z"
      fill="#332670"/>
    <path
      d="M40.1 42C41.1 42 41.9 41.2 41.9 40.2C41.9 39.2 41.1 38.4 40.1 38.4C39.1 38.4 38.3 39.2 38.3 40.2C38.3 41.1 39.1 42 40.1 42Z"
      fill="#332670"/>
    <path
      d="M40.1 54.7C41.1 54.7 41.9 53.9 41.9 52.9C41.9 51.9 41.1 51.1 40.1 51.1C39.1 51.1 38.3 51.9 38.3 52.9C38.3 53.9 39.1 54.7 40.1 54.7Z"
      fill="#332670"/>
    <path
      d="M40.1 67.5C41.1 67.5 41.9 66.7 41.9 65.7C41.9 64.7 41.1 63.9 40.1 63.9C39.1 63.9 38.3 64.7 38.3 65.7C38.3 66.6 39.1 67.5 40.1 67.5Z"
      fill="#332670"/>
    <path
      d="M52.9 3.69998C53.9 3.69998 54.7 2.89998 54.7 1.89998C54.7 0.899976 53.9 0.0999756 52.9 0.0999756C51.9 0.0999756 51.1 0.899976 51.1 1.89998C51 2.89998 51.8 3.69998 52.9 3.69998Z"
      fill="#332670"/>
    <path
      d="M52.9 16.4C53.9 16.4 54.7 15.6 54.7 14.6C54.7 13.6 53.9 12.8 52.9 12.8C51.9 12.8 51.1 13.6 51.1 14.6C51 15.6 51.8 16.4 52.9 16.4Z"
      fill="#332670"/>
    <path
      d="M52.9 29.2C53.9 29.2 54.7 28.4 54.7 27.4C54.7 26.4 53.9 25.6 52.9 25.6C51.9 25.6 51.1 26.4 51.1 27.4C51 28.4 51.8 29.2 52.9 29.2Z"
      fill="#332670"/>
    <path
      d="M52.9 42C53.9 42 54.7 41.2 54.7 40.2C54.7 39.2 53.9 38.4 52.9 38.4C51.9 38.4 51.1 39.2 51.1 40.2C51 41.1 51.8 42 52.9 42Z"
      fill="#332670"/>
    <path
      d="M52.9 54.7C53.9 54.7 54.7 53.9 54.7 52.9C54.7 51.9 53.9 51.1 52.9 51.1C51.9 51.1 51.1 51.9 51.1 52.9C51 53.9 51.8 54.7 52.9 54.7Z"
      fill="#332670"/>
    <path
      d="M52.9 67.5C53.9 67.5 54.7 66.7 54.7 65.7C54.7 64.7 53.9 63.9 52.9 63.9C51.9 63.9 51.1 64.7 51.1 65.7C51 66.6 51.8 67.5 52.9 67.5Z"
      fill="#332670"/>
    <path
      d="M65.6 3.69998C66.6 3.69998 67.4 2.89998 67.4 1.89998C67.4 0.899976 66.6 0.0999756 65.6 0.0999756C64.6 0.0999756 63.8 0.899976 63.8 1.89998C63.8 2.89998 64.6 3.69998 65.6 3.69998Z"
      fill="#332670"/>
    <path
      d="M65.6 16.4C66.6 16.4 67.4 15.6 67.4 14.6C67.4 13.6 66.6 12.8 65.6 12.8C64.6 12.8 63.8 13.6 63.8 14.6C63.8 15.6 64.6 16.4 65.6 16.4Z"
      fill="#332670"/>
    <path
      d="M65.6 29.2C66.6 29.2 67.4 28.4 67.4 27.4C67.4 26.4 66.6 25.6 65.6 25.6C64.6 25.6 63.8 26.4 63.8 27.4C63.8 28.4 64.6 29.2 65.6 29.2Z"
      fill="#332670"/>
    <path
      d="M65.6 42C66.6 42 67.4 41.2 67.4 40.2C67.4 39.2 66.6 38.4 65.6 38.4C64.6 38.4 63.8 39.2 63.8 40.2C63.8 41.1 64.6 42 65.6 42Z"
      fill="#332670"/>
    <path
      d="M65.6 54.7C66.6 54.7 67.4 53.9 67.4 52.9C67.4 51.9 66.6 51.1 65.6 51.1C64.6 51.1 63.8 51.9 63.8 52.9C63.8 53.9 64.6 54.7 65.6 54.7Z"
      fill="#332670"/>
    <path
      d="M65.6 67.5C66.6 67.5 67.4 66.7 67.4 65.7C67.4 64.7 66.6 63.9 65.6 63.9C64.6 63.9 63.8 64.7 63.8 65.7C63.8 66.6 64.6 67.5 65.6 67.5Z"
      fill="#332670"/>
  </g>
  <defs>
    <clipPath id="clip0_15_210">
      <rect width="67.5" height="67.5" fill="white"/>
    </clipPath>
  </defs>
</svg>
