<svg width="305" height="36" viewBox="0 0 305 36" fill="none" xmlns="http://www.w3.org/2000/svg">
  <g clip-path="url(#clip0_15_262)">
    <path
      d="M240.4 34.5H259.7V27.6L265.8 23.9L276.9 34.5H304.8L282.3 14.8L303.5 0.7H279.1L259.8 13.8H259.6V0.8H240.3V34.5H240.4ZM208.3 35.3C227.6 35.3 236.5 28.8 236.5 20.5C236.5 20.4 236.5 19.8 236.4 19.4H219.8V19.7C219.8 21.8 216.9 23.6 209.7 23.6C201.7 23.6 198.4 21.1 198.4 17.7C198.4 14.2 202.1 11.7 209.7 11.7C216.9 11.7 219.8 13.9 219.8 15.8V16H236.4C236.5 15.6 236.5 15.1 236.5 14.7C236.3 7 227.6 0 208.2 0C188.6 0 177.9 7.1 177.9 17.7C177.9 27.8 187.9 35.3 208.3 35.3ZM138.9 22.7L144.2 13.8H144.4L149.5 22.7H138.9ZM156.3 34.5H180.8L158.1 0.8H134L111.3 34.6H131.9L134.9 29.7H153.6L156.3 34.5ZM74.5 17.1V12.4H84C88.4 12.4 90.1 13.1 90.1 14.7C90.1 16.3 88.4 17.1 84.2 17.1H74.5ZM55.1 34.5H74.4V24H83.5C88.1 24 88.9 25.4 88.9 27.9V34.6H108.3V27.8C108.3 24.3 107.2 20.4 99 19.6V19.5C106.8 18.4 108.3 14.5 108.3 11.4C108.3 5.1 102.9 0.8 85.3 0.8H55.1V34.5ZM16.1 34.5H35.6V13.5H51.7V0.8H0V13.6H16.1V34.5Z"
      fill="#332670"/>
  </g>
  <defs>
    <clipPath id="clip0_15_262">
      <rect width="304.7" height="35.3" fill="white"/>
    </clipPath>
  </defs>
</svg>
