<svg width="130" height="130" viewBox="0 0 130 130" fill="none" xmlns="http://www.w3.org/2000/svg">
  <g clip-path="url(#clip0_175_2877)">
    <path
      d="M103.269 15.1211C103.435 9.97002 99.7825 7.64372 95.1337 9.80386L83.0137 15.4534C77.7008 17.9459 70.0635 16.4504 66.0788 12.1302L56.9473 2.32646C53.4607 -1.49532 49.144 -0.498333 47.4837 4.32043L42.8349 16.9489C40.8426 22.4324 34.3675 26.7526 28.5565 26.5865L15.1082 26.088C9.96134 25.9218 7.63695 29.5774 9.79532 34.23L15.4403 46.36C17.9307 51.6773 16.4364 59.3208 12.1197 63.3088L2.32405 72.4478C-1.49459 75.9373 -0.498424 80.2576 4.31639 81.9192L16.9345 86.5718C22.4134 88.5658 26.7302 95.0462 26.5641 100.862L26.0661 114.321C25.9 119.472 29.5527 121.799 34.2014 119.639L46.3215 113.989C51.6344 111.496 59.2717 112.992 63.2563 117.312L72.3879 127.116C75.8745 130.938 80.1912 129.941 81.8515 125.122L86.5003 112.493C88.4926 107.01 94.9677 102.69 100.779 102.856L114.227 103.354C119.374 103.521 121.698 99.865 119.54 95.2124L114.061 83.0824C111.571 77.7651 113.065 70.1215 117.382 66.1336L128.173 55.9976C131.328 53.0066 130.664 49.351 126.513 47.8555L116.219 44.1999C108.582 41.3751 102.771 32.5684 102.937 24.5925L103.269 15.1211Z"
      fill="#332670"/>
    <path
      d="M75.8751 54.1694C71.2263 53.1724 66.5776 56.3295 65.5814 61.1483C66.5776 56.4957 63.423 51.8431 58.6082 50.8461C53.9594 49.8491 49.3106 53.0063 48.3145 57.825C47.9824 59.6528 48.1484 61.3145 48.8125 62.81C49.3106 63.9731 61.4307 81.4204 61.4307 81.4204C61.4307 81.4204 79.3617 69.7889 80.1919 68.958C81.3541 67.7949 82.1842 66.2994 82.5163 64.4716C83.6785 59.6528 80.6899 55.1664 75.8751 54.1694Z"
      fill="#CD9AD9"/>
    <path
      d="M40.8433 46.692C42.0055 46.692 43.3338 46.1935 44.3299 45.0304C44.994 44.3657 45.1601 43.5349 44.662 43.2026C44.1639 42.7041 43.4998 43.2026 42.5036 43.8672C41.0094 45.0304 38.851 46.5259 37.0247 44.6981C35.6965 43.3687 35.5304 41.2086 37.5228 39.0485C38.685 37.7192 40.1792 37.0545 41.6735 36.7222L42.1716 39.2146C41.0094 39.3808 39.8472 40.0455 39.1831 40.7101C38.5189 41.3748 38.5189 41.8733 38.851 42.2056C39.3491 42.5379 39.8472 42.2056 40.8433 41.5409C42.3376 40.5439 44.496 39.0485 46.3223 40.7101C47.9825 42.2056 47.9825 44.3657 45.8242 46.692C44.3299 48.3537 42.6696 49.0183 41.1754 49.1845L40.8433 46.692Z"
      fill="#CD9AD9"/>
    <path
      d="M58.1101 39.2149L53.9594 36.2239L53.6274 37.387L54.7896 40.378L51.9671 41.5412L48.1484 31.0728L50.8049 30.0758L52.2991 34.3961L53.9594 28.9127L57.28 27.7495L54.9556 34.0638L61.2647 38.0517L58.1101 39.2149Z"
      fill="#CD9AD9"/>
    <path d="M64.585 38.384L64.917 27.251L67.7395 27.4171L67.4074 38.5501L64.585 38.384Z" fill="#CD9AD9"/>
    <path
      d="M71.8906 39.0488L76.0413 28.7466L78.6978 29.7436L75.5432 37.7195L79.694 39.3811L78.6978 41.7074L71.8906 39.0488Z"
      fill="#CD9AD9"/>
    <path
      d="M81.6865 44.0337L89.6559 36.3901L91.6482 38.3841L85.5052 44.366L88.6597 47.5232L86.8334 49.1848L81.6865 44.0337Z"
      fill="#CD9AD9"/>
    <path
      d="M92.4776 52.0094C91.9796 53.0064 91.8135 54.3357 92.1456 55.8312C92.4776 56.8282 92.9757 57.1605 93.4738 56.9943C94.1379 56.8282 94.1379 55.9973 93.9719 54.8342C93.8059 53.0064 93.3078 50.3478 95.7982 49.5169C97.6245 48.8523 99.6168 49.8493 100.447 52.6741C100.945 54.3357 100.945 55.9973 100.447 57.4928L98.2886 56.4958C98.7867 55.3327 98.6207 54.1695 98.4546 53.1726C98.1226 52.3417 97.6245 52.0094 97.2924 52.1756C96.7944 52.3417 96.7944 53.0064 96.9604 54.3357C97.1264 56.1635 97.4585 58.8221 95.1341 59.4868C92.9757 60.1515 91.1494 59.1545 90.1532 56.3297C89.4891 54.1695 89.6552 52.5079 90.3193 51.1786L92.4776 52.0094Z"
      fill="#CD9AD9"/>
    <path
      d="M89.3233 82.7499C88.1611 82.7499 86.8328 83.2484 85.8367 84.4116C85.1726 85.0762 85.0065 85.9071 85.5046 86.2394C86.0027 86.7379 86.6668 86.2394 87.663 85.5747C89.1572 84.4116 91.3156 82.9161 93.1419 84.7439C94.4701 86.0732 94.6362 88.2334 92.6438 90.3935C91.4816 91.7228 89.9874 92.3875 88.4931 92.7198L87.995 90.0612C89.1572 89.895 90.3194 89.2303 90.9835 88.5657C91.6477 87.901 91.6477 87.4025 91.3156 87.0702C90.8175 86.7379 90.3194 87.0702 89.3233 87.7349C87.829 88.898 85.6706 90.2273 83.8443 88.5657C82.1841 87.0702 82.184 84.9101 84.3424 82.5838C85.8367 80.9221 87.497 80.2575 88.9912 80.0913L89.3233 82.7499Z"
      fill="#CD9AD9"/>
    <path
      d="M72.0569 90.2275L76.2076 93.2185L76.5396 92.0553L75.3774 89.0644L78.0339 88.0674L81.8525 98.5357L79.1961 99.5327L77.7018 95.2125L76.0416 100.696L72.721 101.859L75.0454 95.5448L68.9023 91.3907L72.0569 90.2275Z"
      fill="#CD9AD9"/>
    <path d="M65.5813 91.2243L65.2492 102.357L62.4268 102.191L62.7588 91.0581L65.5813 91.2243Z" fill="#CD9AD9"/>
    <path
      d="M58.276 90.3935L54.1253 100.696L51.4688 99.6987L54.6234 91.7228L50.4727 90.0612L51.4688 87.7349L58.276 90.3935Z"
      fill="#CD9AD9"/>
    <path
      d="M48.4802 85.5749L40.5109 93.2185L38.5186 91.2245L44.6616 85.2426L41.5071 82.0855L43.3334 80.4238L48.4802 85.5749Z"
      fill="#CD9AD9"/>
    <path
      d="M37.6886 77.599C38.1867 76.602 38.3527 75.2727 38.0207 73.7772C37.6886 72.7802 37.1905 72.4479 36.6924 72.614C36.0283 72.7802 36.0283 73.611 36.1944 74.7742C36.3604 76.602 36.8585 79.2606 34.3681 80.0914C32.5417 80.7561 30.5494 79.7591 29.7193 76.9343C29.2212 75.2727 29.2212 73.611 29.7193 72.1156L32.2097 72.9464C31.7116 74.1095 31.8776 75.2727 32.0437 76.2697C32.3757 77.1005 32.8738 77.4328 33.2059 77.2666C33.7039 77.1005 33.7039 76.4358 33.5379 75.1065C33.3719 73.2787 33.0398 70.6201 35.3642 69.9554C37.5226 69.2908 39.3489 70.2877 40.3451 73.1125C41.0092 75.2727 40.8431 76.9343 40.179 78.2636L37.6886 77.599Z"
      fill="#CD9AD9"/>
  </g>
  <defs>
    <clipPath id="clip0_175_2877">
      <rect width="130" height="129.442" fill="white"/>
    </clipPath>
  </defs>
</svg>
