<svg width="130" height="130" viewBox="0 0 130 130" fill="none" xmlns="http://www.w3.org/2000/svg">
  <g clip-path="url(#clip0_175_2837)">
    <path
      d="M103.27 15.1859C103.436 10.0126 99.783 7.67624 95.1342 9.84568L83.0142 15.5196C77.7013 18.0228 70.064 16.5209 66.0793 12.182L56.9478 2.33606C53.4612 -1.5022 49.1444 -0.500913 47.4842 4.33862L42.8354 17.0215C40.843 22.5286 34.368 26.8675 28.557 26.7006L15.1087 26.2C9.96183 26.0331 7.63744 29.7045 9.7958 34.3771L15.4408 46.5594C17.9312 51.8996 16.4369 59.5761 12.1202 63.5812L2.32454 72.7597C-1.4941 76.2642 -0.497935 80.6031 4.31688 82.2719L16.935 86.9445C22.4139 88.9471 26.7307 95.4554 26.5646 101.296L26.0665 114.814C25.9005 119.987 29.5531 122.323 34.2019 120.154L46.322 114.48C51.6349 111.977 59.2722 113.479 63.2568 117.817L72.3884 127.663C75.875 131.502 80.1917 130.5 81.852 125.661L86.5008 112.978C88.4931 107.471 94.9682 103.132 100.779 103.299L114.227 103.799C119.374 103.966 121.699 100.295 119.54 95.6223L114.061 83.44C111.571 78.0998 113.065 70.4233 117.382 66.4182L128.174 56.2385C131.328 53.2346 130.664 49.5633 126.514 48.0613L116.22 44.39C108.582 41.553 102.771 32.7083 102.938 24.6981L103.27 15.1859Z"
      fill="#CD9AD9"/>
    <path
      d="M75.8746 54.4033C71.2259 53.402 66.5771 56.5727 65.5809 61.4123C66.5771 56.7396 63.4225 52.067 58.6077 51.0657C53.9589 50.0644 49.3101 53.2351 48.314 58.0747C47.9819 59.9103 48.1479 61.5791 48.8121 63.0811C49.3101 64.2492 61.4302 81.7717 61.4302 81.7717C61.4302 81.7717 79.3612 70.0901 80.1914 69.2557C81.3536 68.0875 82.1837 66.5856 82.5158 64.7499C83.678 59.9103 80.6895 55.4046 75.8746 54.4033Z"
      fill="#332670"/>
    <path
      d="M40.8428 46.8927C42.005 46.8927 43.3333 46.3921 44.3294 45.2239C44.9936 44.5564 45.1596 43.722 44.6615 43.3882C44.1634 42.8876 43.4993 43.3882 42.5031 44.0557C41.0089 45.2239 38.8505 46.7258 37.0242 44.8902C35.696 43.5551 35.5299 41.3857 37.5223 39.2162C38.6845 37.8812 40.1787 37.2136 41.673 36.8799L42.1711 39.3831C41.0089 39.55 39.8467 40.2175 39.1826 40.885C38.5185 41.5525 38.5185 42.0532 38.8505 42.3869C39.3486 42.7207 39.8467 42.3869 40.8428 41.7194C42.3371 40.7181 44.4955 39.2162 46.3218 40.885C47.9821 42.3869 47.9821 44.5564 45.8237 46.8927C44.3294 48.5615 42.6692 49.2291 41.1749 49.3959L40.8428 46.8927Z"
      fill="#332670"/>
    <path
      d="M58.1101 39.3839L53.9594 36.3801L53.6274 37.5482L54.7896 40.5521L51.9671 41.7202L48.1484 31.2068L50.8049 30.2055L52.2991 34.5444L53.9594 29.0373L57.28 27.8691L54.9556 34.2106L61.2647 38.2157L58.1101 39.3839Z"
      fill="#332670"/>
    <path d="M64.5849 38.5492L64.9169 27.3682L67.7394 27.535L67.4073 38.716L64.5849 38.5492Z" fill="#332670"/>
    <path
      d="M71.8901 39.2167L76.0408 28.8701L78.6973 29.8714L75.5427 37.8816L79.6934 39.5504L78.6973 41.8868L71.8901 39.2167Z"
      fill="#332670"/>
    <path
      d="M81.6855 44.2234L89.6549 36.5469L91.6472 38.5494L85.5042 44.5571L88.6587 47.7279L86.8324 49.3967L81.6855 44.2234Z"
      fill="#332670"/>
    <path
      d="M92.4776 52.2334C91.9795 53.2347 91.8135 54.5697 92.1455 56.0716C92.4776 57.0729 92.9757 57.4067 93.4737 57.2398C94.1379 57.0729 94.1379 56.2385 93.9718 55.0703C93.8058 53.2347 93.3077 50.5646 95.7981 49.7302C97.6244 49.0626 99.6168 50.0639 100.447 52.9009C100.945 54.5697 100.945 56.2385 100.447 57.7404L98.2886 56.7391C98.7866 55.571 98.6206 54.4028 98.4546 53.4015C98.1225 52.5671 97.6244 52.2334 97.2924 52.4003C96.7943 52.5671 96.7943 53.2347 96.9603 54.5697C97.1264 56.4054 97.4584 59.0755 95.134 59.743C92.9757 60.4105 91.1493 59.4092 90.1532 56.5723C89.4891 54.4028 89.6551 52.734 90.3192 51.399L92.4776 52.2334Z"
      fill="#332670"/>
    <path
      d="M89.3233 83.1066C88.1611 83.1066 86.8328 83.6073 85.8367 84.7754C85.1726 85.4429 85.0065 86.2774 85.5046 86.6111C86.0027 87.1118 86.6668 86.6111 87.663 85.9436C89.1572 84.7754 91.3156 83.2735 93.1419 85.1092C94.4701 86.4442 94.6362 88.6137 92.6438 90.7831C91.4816 92.1182 89.9874 92.7857 88.4931 93.1195L87.995 90.4494C89.1572 90.2825 90.3194 89.615 90.9835 88.9474C91.6477 88.2799 91.6477 87.7793 91.3156 87.4455C90.8175 87.1118 90.3194 87.4455 89.3233 88.113C87.829 89.2812 85.6706 90.6162 83.8443 88.9474C82.1841 87.4455 82.184 85.2761 84.3424 82.9397C85.8367 81.2709 87.497 80.6034 88.9912 80.4365L89.3233 83.1066Z"
      fill="#332670"/>
    <path
      d="M72.0564 90.6157L76.2071 93.6196L76.5391 92.4514L75.3769 89.4476L78.0334 88.4463L81.852 98.9598L79.1956 99.961L77.7013 95.6222L76.0411 101.129L72.7205 102.297L75.0449 95.9559L68.9019 91.7839L72.0564 90.6157Z"
      fill="#332670"/>
    <path d="M65.5813 91.6171L65.2492 102.798L62.4268 102.631L62.7588 91.4502L65.5813 91.6171Z" fill="#332670"/>
    <path
      d="M58.276 90.7834L54.1253 101.13L51.4688 100.129L54.6234 92.1184L50.4727 90.4496L51.4688 88.1133L58.276 90.7834Z"
      fill="#332670"/>
    <path
      d="M48.4802 85.9438L40.5109 93.6203L38.5186 91.6177L44.6616 85.61L41.5071 82.4393L43.3334 80.7705L48.4802 85.9438Z"
      fill="#332670"/>
    <path
      d="M37.6886 77.9331C38.1867 76.9318 38.3527 75.5967 38.0207 74.0948C37.6886 73.0935 37.1905 72.7598 36.6924 72.9267C36.0283 73.0935 36.0283 73.9279 36.1944 75.0961C36.3604 76.9318 36.8585 79.6019 34.3681 80.4363C32.5417 81.1038 30.5494 80.1025 29.7193 77.2655C29.2212 75.5967 29.2212 73.9279 29.7193 72.426L32.2097 73.2604C31.7116 74.4286 31.8776 75.5967 32.0437 76.598C32.3757 77.4324 32.8738 77.7662 33.2059 77.5993C33.7039 77.4324 33.7039 76.7649 33.5379 75.4299C33.3719 73.5942 33.0398 70.9241 35.3642 70.2566C37.5226 69.589 39.3489 70.5903 40.3451 73.4273C41.0092 75.5967 40.8431 77.2655 40.179 78.6006L37.6886 77.9331Z"
      fill="#332670"/>
  </g>
  <defs>
    <clipPath id="clip0_175_2837">
      <rect width="130" height="130" fill="white"/>
    </clipPath>
  </defs>
</svg>
