<svg width="130" height="130" viewBox="0 0 130 130" fill="none" xmlns="http://www.w3.org/2000/svg">
  <g clip-path="url(#clip0_175_2965)">
    <path
      d="M103.313 15.1358C103.479 10.0075 99.8441 7.60104 95.1971 9.75858L83.0153 15.418C77.7044 17.8908 70.1365 16.4138 66.1367 12.1319L56.9589 2.32337C53.457 -1.42743 49.1917 -0.547814 47.4159 4.26516L42.8021 16.8785C40.7939 22.3885 34.4043 26.687 28.5458 26.4878L15.1192 26.0397C9.99093 25.8737 7.58444 29.5084 9.74198 34.1554L15.4014 46.3372C17.8742 51.648 16.3972 59.216 12.1153 63.2157L2.30677 72.3936C-1.44403 75.8954 -0.564415 80.1607 4.24856 81.9365L16.8619 86.5504C22.3719 88.5585 26.6704 94.9482 26.4712 100.807L26.0231 114.233C25.8571 119.362 29.4918 121.768 34.1388 119.61L46.3206 113.951C51.6314 111.478 59.1994 112.955 63.1992 117.237L72.377 127.046C75.8788 130.796 80.1441 129.917 81.9199 125.104L86.5338 112.491C88.5419 106.981 94.9316 102.682 100.79 102.881L114.217 103.329C119.345 103.495 121.751 99.8607 119.594 95.2137L113.934 83.0319C111.462 77.721 112.939 70.1531 117.221 66.1533L127.992 56.0793C131.211 53.0753 130.465 49.4075 126.332 47.8972L116.208 44.1962C108.64 41.4246 102.715 32.6451 102.981 24.5958L103.296 15.1524L103.313 15.1358Z"
      fill="#332670"/>
    <path
      d="M38.869 41.3748L44.6778 47.4823L46.5698 45.6733L40.761 39.5658L42.902 37.5244L41.4913 36.0474L35.2842 41.9391L36.7115 43.4328L38.869 41.3748Z"
      fill="#F0DC2F"/>
    <path
      d="M53.2412 40.9101L51.7973 37.2755L54.154 36.3461C55.0668 35.981 55.5481 36.2465 55.8967 37.1261L56.8261 39.4828L59.2491 38.5202L58.2865 36.0972C57.855 35.0018 57.1082 34.4043 56.0626 34.5703V34.5371C56.8592 33.9064 57.0916 32.9107 56.5937 31.6659C55.8635 29.8237 54.0544 29.3092 51.482 30.3382L46.9346 32.1472L50.8015 41.8893L53.2246 40.9267L53.2412 40.9101ZM52.2288 32.2468C53.3574 31.7987 54.0876 32.0974 54.4362 32.9604C54.8013 33.8566 54.4528 34.5205 53.4404 34.9354L51.2165 35.815L50.1377 33.0766L52.2454 32.2468H52.2288Z"
      fill="#F0DC2F"/>
    <path
      d="M65.6224 35.9643L69.7881 36.4456L70.2528 38.6529L73.2734 39.0014L70.4686 28.1141L67.2489 27.7324L62.021 37.6737L64.6764 37.989L65.639 35.9477L65.6224 35.9643ZM68.394 30.0393H68.4272L69.423 34.7859L66.3361 34.4208L68.394 30.0393Z"
      fill="#F0DC2F"/>
    <path
      d="M79.2815 42.603C81.6382 44.2626 84.1941 44.0966 85.5882 42.1383C85.6545 42.0387 85.7707 41.8893 85.8703 41.7067L83.9949 40.379C83.9119 40.5284 83.8455 40.6114 83.8123 40.6612C83.0489 41.7399 81.8208 41.8893 80.576 40.9931C79.1985 40.0139 78.8832 38.2713 80.0947 36.5785C81.2897 34.8856 83.0323 34.5371 84.443 35.5329C85.6048 36.3461 85.9533 37.5908 85.1235 38.7526C85.0737 38.819 84.9907 38.9517 84.8745 39.0845L86.7333 40.3956C86.8329 40.2961 87.0155 40.0637 87.1482 39.8645C88.5423 37.9062 87.8619 35.4333 85.5218 33.7737C82.8829 31.8983 79.8458 32.2136 77.8874 35.0018C75.929 37.7568 76.6427 40.7276 79.2815 42.5864V42.603Z"
      fill="#F0DC2F"/>
    <path
      d="M86.7164 49.5568L88.8075 48.3618L91.0481 48.9095L88.9901 53.5399L90.6829 56.4775L93.355 49.6398L99.6284 51.0007L98.0684 48.2954L91.297 46.9677L91.2804 46.9345L95.7947 44.3455L94.4835 42.0718L85.4053 47.2997L86.7164 49.5568Z"
      fill="#F0DC2F"/>
    <path
      d="M90.9322 88.1768L85.1234 82.0693L83.2314 83.8783L89.0402 89.9692L86.8993 92.0106L88.31 93.5043L94.517 87.6125L93.0897 86.1189L90.9322 88.1768Z"
      fill="#F0DC2F"/>
    <path
      d="M76.6422 88.5915L78.0861 92.2261L75.7294 93.1555C74.8166 93.5206 74.3353 93.2717 73.9868 92.3755L73.0574 90.0188L70.6343 90.9814L71.5969 93.4045C72.0284 94.4998 72.7586 95.0973 73.8208 94.9313V94.9645C73.0242 95.5952 72.7918 96.591 73.2897 97.8357C74.0199 99.6779 75.829 100.192 78.4014 99.1634L82.9488 97.3544L79.0819 87.6123L76.6588 88.5749L76.6422 88.5915ZM77.6546 97.2548C76.526 97.7029 75.7958 97.3876 75.4472 96.5412C75.0821 95.645 75.4307 94.9811 76.443 94.5662L78.667 93.6866L79.7457 96.425L77.638 97.2548H77.6546Z"
      fill="#F0DC2F"/>
    <path
      d="M64.4107 93.4209L60.245 92.9396L59.7803 90.7323L56.7598 90.3838L59.5646 101.271L62.8009 101.653L68.0288 91.7115L65.3733 91.3962L64.4107 93.4375V93.4209ZM61.6391 99.3459H61.6059L60.6101 94.5993L63.6971 94.9644L61.6557 99.3459H61.6391Z"
      fill="#F0DC2F"/>
    <path
      d="M50.6689 86.8491C48.3122 85.1894 45.7564 85.3554 44.3623 87.3138C44.2959 87.4133 44.1797 87.5627 44.0802 87.7453L45.9556 89.073C46.0385 88.9236 46.1049 88.8406 46.1381 88.7909C46.9015 87.7121 48.1297 87.5627 49.3744 88.4589C50.7519 89.4381 51.0673 91.1807 49.8557 92.8736C48.6608 94.5664 46.9181 94.9149 45.5074 93.9192C44.3457 93.1059 43.9972 91.8612 44.827 90.6994C44.8768 90.6331 44.9598 90.5003 45.0759 90.3675L43.2171 89.0564C43.1176 89.156 42.935 89.3883 42.8022 89.5875C41.4081 91.5459 42.0886 94.0187 44.4287 95.6784C47.0675 97.5538 50.1047 97.2384 52.063 94.4502C54.0214 91.6952 53.3078 88.7245 50.6689 86.8657V86.8491Z"
      fill="#F0DC2F"/>
    <path
      d="M43.101 79.9613L41.0098 81.1562L38.7527 80.6085L40.8107 75.9781L39.1179 73.0405L36.4458 79.8783L30.189 78.5174L31.749 81.2226L38.5204 82.5503L38.537 82.5835L34.0227 85.1725L35.3173 87.4463L44.3955 82.2184L43.101 79.9613Z"
      fill="#F0DC2F"/>
    <path
      d="M75.9121 54.1042C71.1821 53.1914 66.618 56.2784 65.6886 60.9918C66.6014 56.2618 63.5145 51.6812 58.8011 50.7684C54.0711 49.8555 49.5071 52.9425 48.5777 57.6559C48.2292 59.4151 48.4449 61.1411 49.0922 62.6846C49.5403 63.7634 61.7387 81.2892 61.7387 81.2892C61.7387 81.2892 79.6131 69.6219 80.4429 68.7921C81.6212 67.6138 82.4676 66.0869 82.7996 64.3277C83.7124 59.5977 80.6254 55.0336 75.9121 54.1042Z"
      fill="#F0DC2F"/>
  </g>
  <defs>
    <clipPath id="clip0_175_2965">
      <rect width="130" height="129.369" fill="white"/>
    </clipPath>
  </defs>
</svg>
