<svg width="130" height="130" viewBox="0 0 130 130" fill="none" xmlns="http://www.w3.org/2000/svg">
  <g clip-path="url(#clip0_175_2948)">
    <g clip-path="url(#clip1_175_2948)">
      <path
        d="M103.269 16.1082C103.435 10.9613 99.7825 8.63695 95.1338 10.7953L83.0137 16.4403C77.7008 18.9307 70.0635 17.4364 66.0788 13.1197L56.9473 3.32405C53.4607 -0.494592 49.144 0.501576 47.4837 5.31639L42.8349 17.9345C40.8426 23.4135 34.3675 27.7302 28.5565 27.5642L15.1082 27.0661C9.96135 26.9 7.63695 30.5527 9.79532 35.2015L15.4403 47.3215C17.9307 52.6344 16.4364 60.2717 12.1197 64.2564L2.32405 73.3879C-1.49459 76.8745 -0.498424 81.1912 4.31639 82.8515L16.9345 87.5003C22.4135 89.4926 26.7302 95.9677 26.5642 101.779L26.0661 115.227C25.9 120.374 29.5527 122.698 34.2014 120.54L46.3215 114.895C51.6344 112.405 59.2717 113.899 63.2564 118.216L72.3879 128.011C75.8745 131.83 80.1912 130.834 81.8515 126.019L86.5003 113.401C88.4926 107.922 94.9677 103.605 100.779 103.771L114.227 104.269C119.374 104.435 121.698 100.783 119.54 96.1338L114.061 84.0137C111.571 78.7008 113.065 71.0635 117.382 67.0788L128.173 56.9511C131.328 53.9626 130.664 50.31 126.513 48.8158L116.219 45.1631C108.582 42.3407 102.771 33.5412 102.937 25.5718L103.269 16.1082Z"
        fill="#332670"/>
      <path
        d="M75.8751 55.1255C71.2263 54.1293 66.5776 57.2839 65.5814 62.0987C66.5776 57.4499 63.423 52.8011 58.6082 51.805C53.9594 50.8088 49.3106 53.9633 48.3145 58.7781C47.9824 60.6044 48.1484 62.2647 48.8125 63.759C49.3106 64.9212 61.4307 82.3541 61.4307 82.3541C61.4307 82.3541 79.3617 70.7322 80.1919 69.902C81.3541 68.7398 82.1842 67.2456 82.5163 65.4193C83.6785 60.6044 80.6899 56.1217 75.8751 55.1255Z"
        fill="#2C98B7"/>
      <path
        d="M39.5146 58.4455L37.6883 58.7776L36.8581 63.2604L38.3524 64.0905L37.8543 67.079L27.5605 61.102L28.2247 57.6154L39.8466 55.291L39.5146 58.4455ZM30.5491 59.7738L34.6998 62.0982L35.1978 59.1097L30.5491 59.7738Z"
        fill="#2C98B7"/>
      <path
        d="M40.6765 54.4611L31.7109 47.986L34.3674 44.1673C36.3597 41.3448 39.5143 40.5147 42.3367 42.507C45.1592 44.4994 45.3252 47.8199 43.3329 50.6424L40.6765 54.4611ZM40.3444 50.8084L41.3406 49.3142C42.5028 47.6539 42.0047 45.9936 40.6765 44.9975C39.3482 44.0013 37.6879 44.0013 36.3597 45.6616L35.3636 47.1558L40.3444 50.8084Z"
        fill="#2C98B7"/>
      <path
        d="M50.4724 43.669L41.5068 36.0317L44.3293 34.3714L50.6384 40.0164L49.1441 31.715L51.9666 30.0547L53.7929 41.6767L50.4724 43.669Z"
        fill="#2C98B7"/>
      <path
        d="M58.4415 39.8505L57.2793 28.8926L65.4147 28.0625L65.7467 30.3869L60.4338 30.885L60.5999 32.7113L65.7467 32.2132L66.0788 34.7036L60.9319 35.2017L61.0979 37.194L66.4108 36.696L66.7429 39.0204L58.4415 39.8505Z"
        fill="#2C98B7"/>
      <path
        d="M75.7085 41.3447L73.3842 33.5414L71.2258 39.8505L68.5693 39.0203L72.0559 28.5605L74.8784 29.5567L77.2028 37.028L79.1951 31.051L81.8516 31.8811L78.365 42.3409L75.7085 41.3447Z"
        fill="#2C98B7"/>
      <path
        d="M81.8516 45.3294L87.6625 39.0203L85.3382 36.862L86.9984 35.0356L93.6396 41.1787L91.9793 43.005L89.8209 40.8466L84.0099 47.1557L81.8516 45.3294Z"
        fill="#2C98B7"/>
      <path
        d="M97.4586 46.3257L98.6208 48.9821L92.6438 51.4726C91.4816 51.9706 90.8175 52.9668 91.4816 54.4611C92.1457 55.7893 93.3079 56.1213 94.4701 55.6233L100.447 53.1328L101.609 55.7893L95.6323 58.4457C93.1419 59.6079 90.6515 58.7778 89.3233 55.6233C87.995 52.3027 89.1572 50.1443 91.6477 48.9821L97.4586 46.3257Z"
        fill="#2C98B7"/>
      <path
        d="M91.3154 68.4077L95.1341 66.7474V65.2532L91.3154 65.0871L91.4815 62.2646L102.605 62.5967L102.439 68.0756C102.273 70.5661 100.613 71.8943 98.6207 71.7282C96.6283 71.7282 95.6322 70.4 95.4661 69.4039L91.3154 71.7282V68.4077ZM100.115 67.5775L100.281 65.2532L97.7905 65.0871L97.6245 67.4115C97.6245 68.2417 98.1226 68.7397 98.7867 68.9058C99.4508 69.0718 99.9489 68.4077 100.115 67.5775Z"
        fill="#2C98B7"/>
      <path
        d="M90.6516 73.3882L100.613 78.037L97.1267 85.3422L94.9684 84.346L97.1267 79.5312L95.4664 78.7011L93.3081 83.3499L91.1497 82.3537L93.3081 77.7049L91.4818 76.8748L89.3234 81.6896L87.165 80.6934L90.6516 73.3882Z"
        fill="#2C98B7"/>
      <path
        d="M82.0184 90.821C81.0222 90.489 79.5279 90.489 78.1997 91.1531C77.3696 91.6511 77.0375 92.3153 77.2035 92.6473C77.5356 93.1454 78.1997 93.1454 79.3619 92.8133C81.1882 92.3153 83.6786 91.4851 84.8408 93.8095C85.671 95.4698 85.0069 97.6282 82.5164 98.9564C81.0222 99.7865 79.3619 99.9526 77.8677 99.6205L78.3657 97.1301C79.5279 97.2961 80.8562 97.1301 81.6863 96.632C82.5164 96.1339 82.6825 95.6358 82.5164 95.3038C82.1844 94.8057 81.5203 94.9717 80.3581 95.3038C78.5318 95.8019 76.0413 96.466 74.8791 94.3076C73.883 92.3153 74.5471 90.3229 77.2035 88.8287C79.1959 87.8325 80.8562 87.6665 82.3504 88.1646L82.0184 90.821Z"
        fill="#2C98B7"/>
      <path
        d="M71.5572 91.6514L72.5534 102.609L67.0745 103.107C64.584 103.273 63.0898 101.779 62.9238 99.7867C62.7577 97.7944 63.9199 95.9681 66.4104 95.8021L69.0668 95.636L68.7348 91.8174L71.5572 91.6514ZM67.0745 100.617L69.3989 100.451L69.2328 97.9604L66.9084 98.1265C66.0783 98.1265 65.5802 98.7906 65.7462 99.4547C65.7462 100.285 66.4104 100.783 67.0745 100.617Z"
        fill="#2C98B7"/>
      <path
        d="M60.6005 91.9836L57.1139 102.443L49.3105 99.9529L49.9747 97.6286L54.9555 99.2888L55.4536 97.4625L50.6388 95.8022L51.4689 93.4778L56.2837 95.1381L56.9478 93.3118L51.967 91.6515L52.6311 89.3271L60.6005 91.9836Z"
        fill="#2C98B7"/>
      <path
        d="M49.1443 90.4888C48.9783 89.9907 48.8122 89.3266 48.3141 88.9945C47.65 88.4964 46.8199 88.4965 46.1558 89.3266L41.673 94.9715L39.3486 93.1452L43.8314 87.5003C45.4917 85.3419 47.65 85.3419 49.4763 86.8362C50.3065 87.5003 50.9706 88.3304 51.3027 89.4926L49.1443 90.4888Z"
        fill="#2C98B7"/>
      <path
        d="M44.6614 83.0178L34.8657 88.4968L32.5413 84.5121C30.881 81.5236 31.3791 78.203 34.3676 76.5427C37.3561 74.8825 40.5107 76.0447 42.1709 79.0332L44.6614 83.0178ZM41.0087 81.6896L40.1786 80.1954C39.1824 78.5351 37.5222 78.203 36.0279 79.0332C34.5337 79.8633 33.8695 81.3576 34.8657 83.1839L35.6958 84.6781L41.0087 81.6896Z"
        fill="#2C98B7"/>
    </g>
  </g>
  <defs>
    <clipPath id="clip0_175_2948">
      <rect width="130" height="130" fill="white"/>
    </clipPath>
    <clipPath id="clip1_175_2948">
      <rect width="130" height="129.336" fill="white" transform="translate(0 1)"/>
    </clipPath>
  </defs>
</svg>
