<?xml version="1.0" encoding="UTF-8" standalone="no"?>
<svg width="279px" height="261px" viewBox="0 0 279 261" version="1.1" xmlns="http://www.w3.org/2000/svg" xmlns:xlink="http://www.w3.org/1999/xlink">
    <!-- Generator: Sketch 40.1 (33804) - http://www.bohemiancoding.com/sketch -->
    <title>tree_ikon</title>
    <desc>Created with Sketch.</desc>
    <defs>
        <polygon id="path-1" points="8.92112718e-21 0.00017857615 8.92112718e-21 162.803893 105.110131 162.803893 105.110131 0.00017857615 0 0.00017857615"></polygon>
        <polygon id="path-3" points="1.42443986e-20 0.000284507593 1.42443986e-20 259.379226 167.829756 259.379226 167.829756 0.000284507593 0 0.000284507593"></polygon>
        <polygon id="path-5" points="1.13088894e-20 0.000226738362 1.13088894e-20 206.712307 133.243123 206.712307 133.243123 0.000226738362 0 0.000226738362"></polygon>
    </defs>
    <g id="Symbols" stroke="none" stroke-width="1" fill="none" fill-rule="evenodd">
        <g id="Footer-blok---NY-Copy" transform="translate(-1128.000000, -179.000000)">
            <g id="Footer-blok">
                <g id="Illu" transform="translate(747.000000, 179.000000)">
                    <g id="tree_ikon" transform="translate(381.000000, 0.000000)">
                        <g id="Page-1" transform="translate(0.823045, 98.069361)">
                            <mask id="mask-2" fill="white">
                                <use xlink:href="#path-1"></use>
                            </mask>
                            <g id="Clip-2"></g>
                            <path d="M70.5573678,14.3706763 C66.3892465,10.0260396 56.7101474,-2.3695834 50.449408,0.399140361 C45.8178695,2.45035949 43.9477443,7.46834665 40.9625216,11.100024 C37.9193718,14.8063737 33.9605781,17.693924 31.0023442,21.5015685 C29.7503279,23.112545 24.2123613,29.6759267 25.2280611,31.581697 C25.9238451,32.8848932 34.1014464,33.1361821 35.9399749,33.0738469 C33.0725813,39.4171073 27.385189,46.4031999 23.3401628,52.1607688 C20.209464,56.6151415 11.4183617,64.4375653 12.0410785,70.4639549 C12.625616,76.1072425 31.2004813,71.7710471 24.3328235,78.9370028 C21.6089312,81.7810484 17.3558939,82.9738592 14.6293686,85.9497178 C12.2510643,88.5509156 10.9233479,91.9845487 9.4284326,95.1006615 C6.69729942,100.797194 -0.781884792,110.468247 9.76743805,112.378563 C12.0904482,112.800624 18.6855852,110.95654 19.7434138,113.694745 C20.5083154,115.675188 14.5668336,122.295711 13.3957837,123.972918 C10.9233479,127.520832 9.29678,131.363541 6.9448063,135.02184 C5.15762226,137.80355 1.93147529,140.603442 0.603758824,143.57021 C-3.11806018,151.880926 11.371625,149.847239 16.55018,149.389465 C21.1132591,148.988831 25.6072206,148.623261 30.1097395,147.954455 C32.8632537,147.544731 37.4816269,145.731165 40.0541187,147.161629 C46.7387794,150.881615 37.9766407,163.224642 49.195417,162.792841 C54.3608067,162.590251 57.2038446,160.433841 58.1471355,155.635326 C59.1424292,150.56864 57.5672058,149.732958 63.2098362,149.736854 C71.4874935,149.745944 79.805963,149.02844 88.0724298,149.389465 C93.8381554,149.64465 99.4834189,150.819929 105.081287,149.314143 C105.509817,143.609819 101.084973,140.035282 97.0241483,136.373086 C92.9810969,132.723877 89.9649359,128.251324 86.1114643,124.430693 C88.3581159,121.305489 97.0932659,123.660593 100.730169,121.855468 C107.069242,118.703642 102.966288,113.905776 99.8375644,109.257255 C96.3770758,104.120442 93.2154386,98.1648284 88.9781996,93.6305887 C85.6914925,90.113842 79.7592263,86.402947 78.5473641,81.7018307 C83.300023,79.2850413 89.3066729,84.7172981 94.7531409,81.6355995 C100.324021,78.4837737 94.1304241,72.5015382 91.4776243,68.6899977 C88.045441,63.7596695 85.1293359,59.0715397 80.7387217,54.8678067 C77.2558521,51.5354684 71.0727878,45.7123177 72.2286976,40.2229202 C77.4829529,38.1320922 86.5597414,41.838442 83.8042525,32.5634771 C81.8031329,25.8202322 75.3054189,19.313991 70.5573678,14.3706763" id="Fill-1" fill="#E9EC5F" mask="url(#mask-2)"></path>
                        </g>
                        <g id="Page-1-Copy-2" transform="translate(110.572547, 0.000000)">
                            <mask id="mask-4" fill="white">
                                <use xlink:href="#path-3"></use>
                            </mask>
                            <g id="Clip-2"></g>
                            <path d="M112.659224,22.8953672 C106.003969,15.9734903 90.5493135,-3.77522122 80.5527665,0.635910581 C73.157571,3.90391371 70.1715348,11.8985728 65.405018,17.6845626 C60.5460088,23.5895204 54.2249875,28.1899667 49.5015639,34.2563075 C47.5024647,36.8229158 38.6599718,47.2796982 40.2817436,50.3159721 C41.3927046,52.3922248 54.4499124,52.7925785 57.3854982,52.6932659 C52.8071196,62.7993509 43.7260381,73.9295965 37.2673291,83.1025575 C32.26853,90.1992658 18.2317426,102.661955 19.2260369,112.263201 C20.1593703,121.254089 49.8179302,114.345661 38.8523141,125.762464 C34.5030647,130.293599 27.7122235,132.193985 23.3587699,136.935124 C19.5613222,141.079354 17.4413522,146.549819 15.0544151,151.514412 C10.6936041,160.590129 -1.2484385,175.998055 15.5957064,179.041571 C19.3048658,179.713999 29.8353467,176.776003 31.5243858,181.138513 C32.7457072,184.293755 23.25892,194.841574 21.3891001,197.513702 C17.4413522,203.166241 14.8442049,209.288445 11.0887993,215.116849 C8.23519558,219.548671 3.08399414,224.009459 0.964024069,228.736115 C-4.97861885,241.976752 18.157118,238.736681 26.425737,238.007354 C33.7116232,237.369064 40.887149,236.786638 48.0763386,235.721097 C52.4728853,235.068324 59.8470598,232.17895 63.9545675,234.457966 C74.6279915,240.384648 60.6374503,260.049565 78.5505142,259.361618 C86.7981121,259.038853 91.3376018,255.60326 92.8437581,247.958263 C94.4329473,239.886016 91.917782,238.554608 100.927392,238.560815 C114.14436,238.575298 127.426492,237.432169 140.625592,238.007354 C149.831749,238.413915 158.845563,240.28637 167.783701,237.887352 C168.467936,228.79922 161.40277,223.104267 154.918836,217.269655 C148.46328,211.455734 143.647364,204.330059 137.494511,198.243029 C141.081748,193.263953 155.029196,197.016105 160.836254,194.14018 C170.957876,189.118689 164.406674,181.474728 159.411028,174.068702 C153.885653,165.884729 148.837454,156.396243 142.071838,149.172291 C136.82394,143.569409 127.351868,137.657209 125.416883,130.167389 C133.005472,126.316959 142.596313,134.971633 151.29271,130.061869 C160.187755,125.040379 150.298415,115.509479 146.062679,109.436932 C140.582499,101.581931 135.926343,94.1128004 128.915832,87.4154112 C123.35472,82.1063286 113.482197,72.8288826 115.327843,64.0831724 C123.717333,60.7520644 138.210277,66.6570223 133.810577,51.8801445 C130.615381,41.1368041 120.240456,30.7710582 112.659224,22.8953672" id="Fill-1" fill="#1D6D38" mask="url(#mask-4)"></path>
                        </g>
                        <g id="Page-1-Copy" transform="translate(47.548081, 51.728894)">
                            <mask id="mask-6" fill="white">
                                <use xlink:href="#path-5"></use>
                            </mask>
                            <g id="Clip-2"></g>
                            <path d="M89.4422254,18.2464657 C84.1584959,12.7300751 71.8887615,-3.00866302 63.9523194,0.506789017 C58.0811379,3.11122452 55.710469,9.48256912 51.9262439,14.0937144 C48.0685873,18.7996713 43.0502125,22.4659975 39.3001998,27.3005685 C37.7130783,29.3460274 30.6928609,37.6795614 31.9804154,40.0993203 C32.8624277,41.7539901 43.2287846,42.073052 45.5593999,41.9939049 C41.9245412,50.0479506 34.7149039,58.9182012 29.5872163,66.2285936 C25.6185781,71.8843162 14.474515,81.8164576 15.2639035,89.468172 C16.004894,96.6334613 39.5513689,91.1277885 30.8455651,100.226412 C27.3926161,103.8375 22.0012427,105.352013 18.544956,109.130465 C15.5300926,112.433209 13.8470095,116.792897 11.9519764,120.749429 C8.48984851,127.982324 -0.991158229,140.261672 12.3817175,142.687202 C15.3264871,143.223094 23.6868292,140.881658 25.0277884,144.358361 C25.9974178,146.872932 18.4656834,155.279017 16.981199,157.40857 C13.8470095,161.913361 11.7850866,166.792452 8.80360124,171.4374 C6.53807287,174.969341 2.44843953,178.524367 0.765356397,182.291276 C-3.95261686,192.843403 14.4152691,190.261228 20.9798775,189.679991 C26.7642762,189.171306 32.4610579,188.707141 38.1686873,187.857958 C41.6591865,187.33773 47.5136789,185.035043 50.7747046,186.851305 C59.2485317,191.574575 48.1411844,207.246533 62.3626945,206.698274 C68.9106139,206.441046 72.514598,203.70305 73.7103631,197.610369 C74.9720496,191.177191 72.9752137,190.116125 80.1281085,190.121071 C90.6213015,190.132614 101.16623,189.221597 111.645238,189.679991 C118.954175,190.003999 126.110407,191.496253 133.206559,189.584355 C133.749785,182.341567 128.140621,177.802973 122.992906,173.153079 C117.867722,168.519674 114.044278,162.840867 109.159415,157.989807 C112.007389,154.021732 123.080524,157.01201 127.690853,154.72004 C135.726594,150.718163 130.525475,144.626307 126.55934,138.724074 C122.172643,132.201855 118.164786,124.640006 112.793439,118.882876 C108.627037,114.417658 101.106985,109.70593 99.5707644,103.736917 C105.595484,100.668316 113.209829,107.56566 120.114058,103.652823 C127.175998,99.650946 119.32467,92.0552941 115.961841,87.2157764 C111.611025,80.9557324 107.914417,75.0032081 102.348644,69.665723 C97.933576,65.4346489 90.0955988,58.0409871 91.5608908,51.0710923 C98.2214608,48.4163654 109.727675,53.1223223 106.234672,41.3458877 C103.697948,32.7839812 95.4611043,24.5229987 89.4422254,18.2464657" id="Fill-1" fill="#7FC552" mask="url(#mask-6)"></path>
                        </g>
                    </g>
                </g>
            </g>
        </g>
    </g>
</svg>