<?xml version="1.0" encoding="UTF-8" standalone="no"?>
<svg width="120px" height="179px" viewBox="0 0 120 179" version="1.1" xmlns="http://www.w3.org/2000/svg" xmlns:xlink="http://www.w3.org/1999/xlink">
    <!-- Generator: Sketch 40.1 (33804) - http://www.bohemiancoding.com/sketch -->
    <title>Illu</title>
    <desc>Created with Sketch.</desc>
    <defs></defs>
    <g id="Symbols" stroke="none" stroke-width="1" fill="none" fill-rule="evenodd">
        <g id="Footer-blok---NY-Copy" transform="translate(-747.000000, -219.000000)">
            <g id="Footer-blok">
                <g id="Illu" transform="translate(747.000000, 179.000000)">
                    <g transform="translate(60.000000, 130.000000) scale(-1, 1) translate(-60.000000, -130.000000) translate(0.000000, 40.000000)">
                        <path d="M47.8706316,62.8876911 C48.552386,62.8061299 49.2597544,62.455979 49.8909825,62.2127015" id="Stroke-1" stroke="#FEFEFE"></path>
                        <path d="M47.8706316,61.8076023 C48.5039649,61.260931 49.1937895,60.7831649 49.8909825,60.3236798" id="Stroke-3" stroke="#FEFEFE"></path>
                        <path d="M50.9682456,60.0539301 C51.7647368,59.9386194 52.4945614,59.7203024 53.2577193,59.51429" id="Stroke-5" stroke="#FEFEFE"></path>
                        <path d="M46.0638246,37.4138649 C45.6722456,38.0420974 44.888386,38.8271244 44.8104912,39.5334025 C44.5754035,41.3386482 46.6125965,41.6529402 47.7873333,40.9463105 C47.9438246,41.9661776 47.1603158,43.5362315 48.8841754,43.4574827 C49.9806667,43.4574827 50.5290877,42.1233236 51.391193,41.5738398 C50.8424211,45.0275366 55.151193,43.065145 55.8557544,41.2598994 C55.8557544,41.4954426 55.9347018,41.7309859 55.9347018,41.9661776 C56.7178596,38.8271244 47.9438246,37.4926137 46.534,37.257422" id="Fill-7" fill="#FEFEFE"></path>
                        <polygon id="Fill-9" fill="#047736" points="46.2761404 117.0214 70.7526316 117.0214 70.7526316 63.8044465 46.2761404 63.8044465"></polygon>
                        <g id="Group-14" transform="translate(27.368421, 66.527256)">
                            <path d="M5.86473684,1.84630749 C5.94824561,1.96126665 6.00894737,2.05583551 6.16578947,2.1050535 C6.01,1.43041546 6.26087719,0.980070835 5.6345614,0.495976732 C5.00438596,0.00871861565 4.45701754,0.214027952 3.7945614,0.419337288 C2.29947368,0.883392638 1.9654386,1.27748813 1.88964912,2.84262026 C1.77631579,5.17625618 2.01175439,7.57774261 1.88964912,9.97922904 C1.75315789,12.6521175 2.2422807,15.4174656 1.97421053,18.02848 C1.69280702,20.7688675 2.34052632,23.633003 1.82473684,26.345969 C1.58017544,27.6340742 1.16333333,28.5994499 0.711403509,29.8109156 C0.338070175,30.8114471 -0.199824561,32.5769668 0.649298246,33.4463674 C1.48052632,34.2971356 2.94894737,34.2619799 4.04298246,34.478539 C4.88473684,34.6455286 6.84929825,35.9621099 6.71175439,34.3590096 C6.61561404,33.2424643 5.80754386,32.2000976 5.69491228,31.0621073 C5.56263158,29.7219717 5.86368421,28.393789 5.92964912,27.0747469 C6.07,24.2506888 5.92368421,21.6196356 5.78263158,18.8585063 C5.64438596,16.1638212 5.86473684,13.3081231 5.86473684,10.5603529 C5.86473684,7.75246648 5.92122807,5.02965687 6.19596491,2.34446387" id="Fill-11" fill="#795751"></path>
                            <path d="M5.86473684,1.84630749 C5.94824561,1.96126665 6.00894737,2.05583551 6.16578947,2.1050535 C6.01,1.43041546 6.26087719,0.980070835 5.6345614,0.495976732 C5.00438596,0.00871861565 4.45701754,0.214027952 3.7945614,0.419337288 C2.29947368,0.883392638 1.9654386,1.27748813 1.88964912,2.84262026 C1.77631579,5.17625618 2.01175439,7.57774261 1.88964912,9.97922904 C1.75315789,12.6521175 2.2422807,15.4174656 1.97421053,18.02848 C1.69280702,20.7688675 2.34052632,23.633003 1.82473684,26.345969 C1.58017544,27.6340742 1.16333333,28.5994499 0.711403509,29.8109156 C0.338070175,30.8114471 -0.199824561,32.5769668 0.649298246,33.4463674 C1.48052632,34.2971356 2.94894737,34.2619799 4.04298246,34.478539 C4.88473684,34.6455286 6.84929825,35.9621099 6.71175439,34.3590096 C6.61561404,33.2424643 5.80754386,32.2000976 5.69491228,31.0621073 C5.56263158,29.7219717 5.86368421,28.393789 5.92964912,27.0747469 C6.07,24.2506888 5.92368421,21.6196356 5.78263158,18.8585063 C5.64438596,16.1638212 5.86473684,13.3081231 5.86473684,10.5603529 C5.86473684,7.75246648 5.92122807,5.02965687 6.19596491,2.34446387" id="Stroke-13" stroke="#FEFEFE" stroke-width="0.345"></path>
                        </g>
                        <path d="M28.1814386,69.3698764 C29.5189825,69.2183553 30.8796842,69.2763622 32.2217895,69.2514016 C33.1323158,69.2348785 34.266,69.6331926 35.143193,69.290776 C35.8109123,69.0295691 35.6568772,68.3918446 35.7182807,67.7931429 C35.851614,66.4892176 36.1154737,65.2524398 36.0498596,63.8922655 C35.9558246,61.9618655 34.7498596,62.6864247 33.3140702,62.4839278 C31.9902105,62.297251 30.651614,62.1499486 29.2579298,62.1499486 C27.9028421,62.1499486 26.5744211,62.5236537 25.2817895,62.1288551 C24.406,61.8616718 21.8007368,60.5992303 21.1589825,61.6517922 C20.6761754,62.444905 20.7295088,64.2846032 20.7270526,65.222909 C20.7228421,66.6133173 20.9389825,67.8529076 21.3898596,69.1251926 C21.5484561,69.5734279 21.6751228,70.1802154 21.9042456,70.5950528 C22.5484561,71.7636285 23.7242456,70.6839967 24.6196842,70.282167 C25.7235439,69.7875262 26.9926667,69.5045227 28.1814386,69.3698764" id="Fill-15" fill="#EECBA8"></path>
                        <path d="M22.8802456,61.2366736 C22.3609474,62.3609531 22.3834035,64.0276853 22.3834035,65.3034859 C22.3834035,66.6886208 22.3518246,68.0414125 22.5672632,69.3699467 C22.6216491,69.7032228 23.1577895,70.843674 23.0290175,71.0957404 C22.9630526,71.2244103 21.8423509,71.7714331 21.6377895,71.8593224 C20.1297193,72.5107577 19.5904211,71.5169058 19.1349825,70.2175508 C18.4251579,68.1953945 18.5486667,65.5147717 18.7574386,63.330196 C19.0146316,60.6341047 20.8398947,60.0455982 23.0458596,61.4862791" id="Fill-17" fill="#677478"></path>
                        <path d="M23.9249825,85.4748821 C21.7134035,86.2328392 20.9762105,88.5081166 23.9249825,89.2660737 C20.2390175,88.6972543 20.4846316,92.1098189 23.6790175,92.489149 C22.2049825,92.2996598 20.2390175,92.6786383 20.7305965,94.1956071 C21.4677895,95.5223835 23.9249825,94.9535642 25.3993684,95.143405 C28.1018246,95.3328943 32.2790175,95.9017136 34.7358596,94.9535642 C38.1758596,93.6271393 39.1586667,89.8348931 36.4555088,87.5596156 C34.886386,86.2395188 32.3446316,85.932961 30.1537544,85.7652683 C28.8498947,85.6657776 25.0758596,85.0800835 23.9249825,85.4748821" id="Fill-19" fill="#EECBA8"></path>
                        <path d="M58.6995088,96.9732596 C59.2033684,96.9219323 59.7026667,96.8625191 60.1967018,96.7957233 C64.0124912,96.2810437 64.1370526,93.3184722 64.3089825,90.1491851 C64.5163509,86.3397125 64.3517895,82.5453569 64.8472281,78.7510013 C65.2472281,75.6854236 65.7033684,72.6662514 64.0633684,69.8000065 C62.3437193,66.7938418 57.1837193,65.6375706 54.7265263,68.1814377 C52.0237193,70.9566293 53.7437193,78.1248782 53.7437193,81.5936919 C53.7437193,88.2999948 50.3037193,87.6060211 44.1609123,87.1437236 C40.4756491,86.912399 33.8412632,85.5251548 30.4012632,86.681426 C26.2240702,88.0686703 26.2240702,95.2372707 30.8928421,96.393542 C35.0693333,97.5501648 40.9665263,96.393542 45.3893333,96.8558396 C49.7121404,97.3343087 54.3682807,97.4204402 58.6995088,96.9732596" id="Fill-21" fill="#047736"></path>
                        <g id="Group-25" transform="translate(0.000000, 79.183311)" fill="#52BBCA">
                            <path d="M97.5526667,5.36634309 C96.2123158,6.23750154 95.0523158,7.27354026 94.1740702,8.51910701 C91.3137193,12.5764273 92.480386,18.6917628 92.7119649,23.3541128 C93.0452982,30.0628766 93.1919649,38.0238867 91.3761754,44.5487862 C89.8996842,49.8555404 90.1695088,48.4844677 86.2561754,45.4853343 C79.5845965,40.3719365 73.1137193,35.4346688 64.323193,35.5485733 C43.8930175,35.8132958 14.7010877,36.2762965 7.92705263,60.2823719 C5.95617544,67.267108 7.38529825,71.6766885 7.38529825,78.7651339 C7.38529825,81.1968543 7.99196491,85.4528043 6.77863158,87.8845247 C6.17161404,90.316245 0.710912281,92.7479654 0.104245614,94.5714919 C-1.10908772,101.259162 8.59863158,101.259162 12.2396842,96.3953701 C16.1074035,91.2285356 15.7042456,84.662504 15.0291579,78.5904101 C13.3393333,63.4045503 21.2705614,51.3475486 36.8828421,49.1791445 C43.440386,48.2682601 49.3084561,50.0355376 55.6568772,50.0302642 C63.5989825,50.0235846 71.4028421,47.4203044 78.7579298,51.9451957 C82.2144211,54.0728191 84.5386316,57.2818322 87.308807,60.2500286 C89.4428421,62.5365559 93.3102105,67.571908 96.5474035,65.5497516 C99.9210877,63.4418154 101.559333,49.1830117 101.858632,45.0638173 C102.522491,35.9289581 99.5477544,26.2903175 102.195474,17.3460022 C103.475825,13.0222017 107.559333,11.5569118 111.045298,9.45284262 C113.613018,7.90282744 118.415474,6.22976729 119.580035,3.20497014 C120.988456,-0.456145315 116.44986,-0.175251206 113.893719,0.334155007 C109.123193,1.28546847 102.236175,2.32185875 97.5526667,5.36634309" id="Fill-23"></path>
                        </g>
                        <path d="M73.8009474,57.9315448 C77.3342807,54.7798356 81.5212982,52.6620557 84.7251579,48.8972309 C88.4665614,44.500658 91.2349825,39.2881212 93.4283158,33.9708203 C96.5865614,26.3167195 90.5174386,15.1807973 81.3556842,15.0577523 C75.1293684,14.9747849 71.2805965,21.5587459 64.8079649,20.9997702 C60.3444561,20.6148152 54.2227018,14.4896361 50.0841053,18.6228927 C46.8869123,21.8164373 54.5556842,24.731197 53.607614,28.6415665 C52.7553333,32.1553795 47.047614,32.6243567 46.0918246,36.087897 C44.4146316,42.1635065 53.8356842,42.0049543 57.376386,41.7486692 C60.1841053,51.6541415 45.1567368,47.4952213 41.4627018,43.9789473 C36.7662105,46.8951133 34.1005965,49.5757361 37.796386,54.7583906 C40.4283158,58.4486853 43.9181404,61.2966492 47.5665614,63.7501661 C57.8490175,70.6638877 65.7272632,65.4995141 73.3027018,58.3875144 C73.4672632,58.2328292 73.6335789,58.0813081 73.8009474,57.9315448" id="Fill-26" fill="#EECBA8"></path>
                        <path d="M69.0507368,24.0663674 C72.6047719,25.7766926 79.5556491,31.1488364 75.8349474,35.8431782 C73.0598596,34.7262813 69.9167018,33.0932987 68.9444211,30.0322911 C68.7640702,29.4638233 68.2314386,23.6733266 69.0507368,24.0663674" id="Fill-28" fill="#FEFEFE"></path>
                        <path d="M68.7407018,24.5977811 C72.3382456,26.3822849 78.6038596,31.0182681 75.3045614,35.5326126 C75.5357895,35.4383953 75.7670175,35.3438265 75.9982456,35.2496092 C73.4463158,34.2033753 70.1501754,32.6164466 69.4877193,29.6377035 C69.3150877,28.8621685 69.3035088,28.0114004 69.2610526,27.220397 C69.2333333,26.7057174 69.2133333,26.1889285 69.2238596,25.6735458 C69.237193,25.0326572 69.4747368,24.7763721 68.8873684,24.6596552 C69.6596491,24.8129341 69.9901754,23.6267805 69.2140351,23.4727985 C67.1768421,23.0692109 68.0961404,28.4392454 68.2235088,29.4049727 C68.7196491,33.1680397 72.5266667,35.1473061 75.6715789,36.4368174 C75.9389474,36.5461517 76.217193,36.3566624 76.3652632,36.153814 C80.1319298,31.0006903 73.5712281,25.6236247 69.3607018,23.5350241 C68.654386,23.1845216 68.0312281,24.2458725 68.7407018,24.5977811" id="Fill-30" fill="#795751"></path>
                        <path d="M72.7236491,29.095286 C69.4397895,30.4487808 72.0092632,34.3584471 74.9562807,32.9480001 C78.5008421,31.2520887 75.9131228,27.7811657 72.7236491,29.095286" id="Fill-32" fill="#795751"></path>
                        <path d="M72.0383509,60.531661 C73.0144912,60.531661 73.0158947,59.0118797 72.0383509,59.0118797 C71.0622105,59.0118797 71.060807,60.531661 72.0383509,60.531661" id="Fill-34" fill="#795751"></path>
                        <path d="M59.5955789,72.62417 C56.7103158,72.7514336 52.6120702,72.37808 52.8892632,69.7224178 C53.0524211,68.1572857 55.5292632,68.9496953 56.6815439,68.7633701 C58.3247018,68.4979445 59.4478596,67.4460857 60.9741754,67.0154283 C62.6475088,66.542584 64.5345263,66.8333217 66.2366316,66.3225093 C69.4004912,65.4569757 72.5215439,63.2020886 74.8303158,60.9106395 C75.5825965,60.1628776 77.8176842,56.2602424 79.0078596,56.3727407 C83.5303158,56.8012888 77.441193,65.1096373 75.9418947,66.0229826 C71.344,68.8210255 67.1945263,71.4742268 61.8166316,72.405853 C61.3254035,72.491633 60.5236491,72.5837409 59.5955789,72.62417" id="Fill-36" fill="#003C7E"></path>
                        <path d="M53.7005614,74.9796727 C48.7745965,76.2596921 49.2051228,67.6845117 52.7605614,67.9003678 C55.9086316,68.0909117 56.8700351,74.1552714 53.7005614,74.9796727" id="Fill-38" fill="#003C7E"></path>
                        <path d="M54.5328421,73.4223803 C55.3051228,75.5841048 54.8061754,77.7511027 55.1963509,79.7866182 C56.3584561,83.9835067 59.0338947,85.4994208 61.5868772,88.035202 C56.2444211,86.9126803 43.861614,74.3610377 55.1658246,72.7836011 C55.2967018,73.6744468 55.1767018,75.3299291 54.9230175,75.4582474" id="Fill-40" fill="#003C7E"></path>
                        <path d="M53.1372281,67.7710299 C50.2081053,66.3834341 48.5361754,61.806864 45.2337193,62.2030688 C44.8596842,63.987221 46.4010877,67.6740002 48.0593333,69.0672209 C50.3558246,71.094299 56.7045965,69.7928347 52.3737193,67.5200182" id="Fill-42" fill="#003C7E"></path>
                        <path d="M76.2403158,46.0033185 C73.8090877,54.3665099 64.4929474,57.3150192 61.6947018,65.1480625 C58.1252281,74.6952982 69.2466316,82.2657284 76.5361053,85.4367733 C74.4585614,84.1349574 74.2532982,82.7076357 73.2332982,80.6700108 C75.5529474,80.6260662 78.1592632,81.5608565 80.3175088,82.4140855 C79.7820702,77.6842365 85.1557544,78.6562919 88.2097895,79.6719403 C87.9234737,78.6932054 87.7989123,76.8172968 87.0648772,75.7584068 C89.8325965,75.7953203 93.048386,75.9137951 95.5301404,74.9723252 C94.7522456,71.5885883 97.6813684,70.7286797 101.264175,71.3765994 C100.08207,70.2361482 99.4290877,68.7279683 98.1662807,68.0364555 C100.648035,67.0953372 103.415404,67.1322507 105.897158,66.1911324 C105.082421,65.5808293 104.590842,63.1751242 103.775754,62.5644695 C105.648035,62.4396668 107.681719,61.4173388 109.391895,62.1900612 C102.051895,51.5969432 102.36207,39.6074405 99.9041754,27.5803211 C99.0017193,22.3213787 95.3697895,14.2527921 89.5476842,13.1984724 C73.6227719,10.3174621 78.5304912,38.1256274 76.2403158,46.0033185" id="Fill-44" fill="#F9A01B"></path>
                        <path d="M83.8698246,26.4888418 C82.9596491,30.5922161 81.594386,36.519117 84.3245614,39.2549342 C87.0547368,35.6071779 84.7796491,30.1362466 84.3245614,26.4888418" id="Fill-46" fill="#FEFEFE"></path>
                        <path d="M92.9707018,41.9902944 C92.0605263,45.1820811 92.0605263,49.2854554 94.3359649,52.0209211 C96.155614,48.3735163 93.8808772,45.1820811 92.9707018,41.5343248" id="Fill-48" fill="#FEFEFE"></path>
                        <path d="M83.4147719,47.0058186 C82.9596842,51.5651624 78.4091579,54.7565976 79.3193333,59.3159415 C82.5042456,57.0364453 83.8698596,51.5651624 83.4147719,47.9177577" id="Fill-50" fill="#FEFEFE"></path>
                        <path d="M72.0383509,59.7717352 C70.2183509,63.8751095 67.0327368,72.5378276 72.4930877,74.3613541 C73.8583509,69.8023619 71.5832632,64.7870486 71.5832632,59.7717352" id="Fill-52" fill="#FEFEFE"></path>
                        <path d="M86.1447018,60.2276696 C84.3247018,63.4191048 80.229614,68.4347697 83.8699649,71.6262049 C85.2345263,67.5228306 84.7794386,63.4191048 86.1447018,59.7717001" id="Fill-54" fill="#FEFEFE"></path>
                        <path d="M94.7908772,58.860218 C93.8807018,62.0516532 93.8807018,66.1550275 95.2459649,68.8904931 C96.6108772,65.6987064 96.1557895,61.5956837 95.7010526,57.9482789" id="Fill-56" fill="#FEFEFE"></path>
                        <path d="M99.3412982,47.461753 C98.1770877,50.6331495 99.7146316,55.9595908 101.161298,58.8602883 C102.982,55.6685016 101.161298,52.0210968 100.251474,48.3736921" id="Fill-58" fill="#FEFEFE"></path>
                        <path d="M97.9761754,4.14812749 C89.3274035,-3.279219 76.7772281,-0.880545025 81.820386,12.5440137 C84.4937193,19.6616384 89.643193,25.4640881 93.4256491,31.9598083 C99.7965263,41.990435 113.903193,48.3736569 111.627754,30.5922513 C110.717579,22.3855027 104.801789,9.16344083 97.9761754,4.14812749" id="Fill-60" fill="#795751"></path>
                        <path d="M110.716386,25.1213902 C104.399895,26.982885 101.025509,27.5492435 97.616386,21.1885212 C94.7911228,15.9179774 92.9069123,9.04925509 100.270421,6.92690498 C103.489018,5.99879428 115.15393,-0.10599446 114.469368,6.99651328 C114.251825,9.25175197 111.036386,11.7017533 111.924807,13.9798432 C112.550772,15.5836466 115.672526,15.6943871 116.843404,16.8429241 C121.857088,21.7580436 115.007263,23.8568394 110.716386,25.1213902" id="Fill-62" fill="#795751"></path>
                    </g>
                </g>
            </g>
        </g>
    </g>
</svg>