<svg id="Layer_1" data-name="Layer 1" xmlns="http://www.w3.org/2000/svg" viewBox="0 0 60 60"><defs><style>.cls-1{fill:#036;}</style></defs><title>Ikoner</title><path class="cls-1" d="M55.71,13.57a1.6,1.6,0,0,0-.77.1l-1.71.39c0.47-.92.94-1.76,1.33-2.63a4.17,4.17,0,0,0,.15-1.17,3.52,3.52,0,0,0-1.19,0c-1.49.53-3,1.14-4.19,1.63-1.19-.75-2.24-1.42-3.3-2.07a7.85,7.85,0,0,0-4.22-1.24,17.83,17.83,0,0,0-4,.42,9.51,9.51,0,0,0-4.05,1.93,23.65,23.65,0,0,0-4.17,5.16,5.38,5.38,0,0,0-.6,2.14c-0.15,1-.17,2-0.26,3.15A19.65,19.65,0,0,1,26,21c-1.73-.49-3.43-1.09-5.13-1.67a8.27,8.27,0,0,1-2.4-.91c-1.78-1.36-3.8-2.32-5.55-3.76-1.53-1.25-2.7-2.78-4.14-4.09-0.66-.6-1.13-0.69-1.44.16C6.39,13.28,5.44,15.83,6,18.65c0.28,1.41.48,2.77,1.69,3.76a5.16,5.16,0,0,1,.82,1.18l-0.11.21-1.68-.42c-0.57-.14-0.92.17-0.78,0.68,0.43,1.48.76,3,1.33,4.42s1.34,3.13,3,4c0.63,0.34,1.21.79,1.81,1.19a12.31,12.31,0,0,1-1.66-.15,1.13,1.13,0,0,0-.88.43,4.26,4.26,0,0,0,.19,1.82,8.92,8.92,0,0,0,2.92,4.08,52.31,52.31,0,0,0,4.88,2.85,11.33,11.33,0,0,1-4.55,2,33.54,33.54,0,0,1-7.89,1,0.9,0.9,0,0,0-.65.47C4,47,4.11,47.31,5,47.65a52.94,52.94,0,0,0,5.59,1.85c2.59,0.64,5.22,1.15,7.85,1.6,1.48,0.25,3,.21,4.51.42a12.87,12.87,0,0,0,5.42-.87,28.41,28.41,0,0,0,4.12-1.44A28.11,28.11,0,0,0,36,47c1.56-1,3.13-2.07,4.62-3.2a13.26,13.26,0,0,0,1.85-2c0.78-.91,1.59-1.81,2.3-2.78a60.88,60.88,0,0,0,3.62-5.25,17.25,17.25,0,0,0,2-5.92c0.24-1.43.64-2.84,1-4.26,0.22-1,.4-2,0.65-3a2.94,2.94,0,0,1,.55-1.26c1.29-1.39,2.66-2.71,3.95-4.1a1.28,1.28,0,0,0,.34-1.07A2.2,2.2,0,0,0,55.71,13.57Zm-3.16,4.25a8.18,8.18,0,0,0-1.2,1.09,5.88,5.88,0,0,0-.66,1.83c-0.52,2.43-1,4.86-1.47,7.3a21.44,21.44,0,0,1-2.79,7A35.38,35.38,0,0,1,42.63,40a26,26,0,0,1-2.9,3.27A44,44,0,0,1,32.41,48a18.88,18.88,0,0,1-9,2.17,38.74,38.74,0,0,1-11.89-1.67c-1.41-.43-2.86-0.74-4.28-1.14a4.57,4.57,0,0,1-.89-0.48c1.76-.3,3.4-0.64,5.06-0.84a18.15,18.15,0,0,0,6.68-2.27,9.3,9.3,0,0,0,1.19-.77,0.78,0.78,0,0,0-.17-1.43,3.36,3.36,0,0,0-.9-0.29A10.25,10.25,0,0,1,13,38.71a14.07,14.07,0,0,1-2.26-3.24c-0.34-.55.11-0.73,0.58-0.76,0.87,0,1.75,0,2.61-.12a1.08,1.08,0,0,0,.76-0.68,1.16,1.16,0,0,0-.61-0.79,23.65,23.65,0,0,1-3.68-2,8.41,8.41,0,0,1-2.07-3,18,18,0,0,1-.85-3.3c0.75,0,1.42,0,2.08,0a2.75,2.75,0,0,0,.91-0.1c0.34-.13.46-0.38,0.15-0.73C9.79,23.1,9,22.13,8.12,21.17S7.28,18.9,7,17.71c-0.41-2.07.57-3.88,1.08-6.06C8.84,12.38,9.45,13,10,13.6c0.38,0.39.7,0.84,1.11,1.2a12,12,0,0,0,2.43,2c2.05,1,3.63,2.81,6,3.34,1.46,0.33,2.83,1.06,4.27,1.5,1.16,0.35,2.37.54,3.57,0.78,0.53,0.11,1.08.16,1.6,0.31,0.73,0.2,1,.06,1-0.68,0.06-1.32,0-2.66.19-4A4.42,4.42,0,0,1,31,16.13a38.57,38.57,0,0,1,2.83-3.58,8.06,8.06,0,0,1,4.91-2.46,21.31,21.31,0,0,1,2.45-.31,8.44,8.44,0,0,1,6.29,2.35c1.26,1.22,2.26,1,3.53.37,0.55-.27,1.16-0.43,2-0.72a9,9,0,0,1-1.74,2.44,3.24,3.24,0,0,0-.64.67,1,1,0,0,0,.07.8,0.8,0.8,0,0,0,.7.2c1.15-.27,2.29-0.6,3.44-0.9L55,15.21C54.15,16.08,53.37,17,52.55,17.82Z"/></svg>