<?xml version="1.0" encoding="utf-8"?>
<!-- Generator: Adobe Illustrator 20.0.0, SVG Export Plug-In . SVG Version: 6.00 Build 0)  -->
<svg version="1.1" xmlns="http://www.w3.org/2000/svg" xmlns:xlink="http://www.w3.org/1999/xlink" x="0px" y="0px"
	 viewBox="0 0 100 100" style="enable-background:new 0 0 100 100;" xml:space="preserve">
<style type="text/css">
	.st0{fill:#231F20;}
	.st1{fill:#393939;}
	.st2{fill:#003366;}
	.st3{opacity:0.9;fill:#2E3191;}
	.st4{fill:#2E3191;}
	.st5{fill:#292929;}
	.st6{fill:none;}
	.st7{fill:#1C3664;}
</style>
<g id="Layer_2">
</g>
<g id="Layer_1">
	<g id="_x38_fkLiG_1_">
		<g>
			<path class="st7" d="M10.7,26.8c1.5-0.5,2.7-0.6,4-1c0.8-0.2,1.7-0.4,2.5-0.6c2.1-0.5,4.3-1.1,6.4-1.6c2.6-0.7,5.3-1.3,7.9-2
				c0.7-0.2,1.4-0.3,2-0.6c0.3-0.1,0.4-0.7,0.4-1.1c0.1-1.3,0.2-2.6,1.1-3.7c1.5-1.7,4-1.9,5.7-0.1c0.2,0.2,0.4,0.4,0.6,0.6
				c0.8,1.1,1.2,1.3,2.7,0.9c1.3-0.3,2.4-0.3,3.6-0.6c1.1-0.2,2.2-0.5,3.2-0.7c0.2,0,3.3-0.7,4.6-0.9c0.7-0.1,1.5-0.3,2,0
				c0.5,0.2,0.7,1,0.9,1.6c0.5,1.2,1,2.5,1.4,3.8c0.8,2.2,1.5,4.3,2.3,6.5c0.5,1.3,1.1,2.6,1.6,3.9c0.5,1.4,1,2.8,1.4,4.2
				c0.5,1.5,1,3,1.4,4.5c0.3,1,2.5,8.9,2.9,10.2c0.5,1.6,1.1,3.2,1.4,4.8c0.3,1.8,1.4,2.1,3,2.8c0.1,0.1,0.8,0.5,0.9,0.6
				c2.4,1.4,4.2,2.4,6.5,3.8c1.1,0.7-0.8-0.5,0.3,0.2c2,1.3,3,2.6,5,3.8c1.7,1,3.4,2,5.1,2.9c0.7,0.4,1.3,0.6,1.7,1.5
				c0.4,0.9,0.1,1.5-0.1,2.3c-0.6,2.6-1.7,5-3.6,6.8c-0.9,0.9-2.2,1.4-3.5,1.8c-0.6,0.2-1.5-0.2-2.1-0.5c-1.4-0.7-1.7-1.6-3-2.4
				c-1.8-1.2-0.7-0.3-2.5-1.5c-1.4-0.9-2.9-1.7-4.3-2.7c-1.6-1-3.1-2.1-4.6-3.2c-0.2-0.2-0.6-0.3-0.8-0.2c-2.6,0.9-5.2,2-7.8,2.9
				c-2.1,0.7-4.2,1.2-6.3,1.9c-2.1,0.7-4.1,1.5-6.2,2c-1.5,0.4-3.1,0.4-4.7,0.5c-1.7,0.1-3.2,0.9-4.8,1.5c-0.9,0.3-1.8,0.5-2.7,0.7
				c-1.3,0.3-2.7,0.5-4,1.1c-1.8,0.8-3.3,0.7-4.9-0.3c-1.8-1.1-3.6-2.1-5.5-3.1c-0.6-0.3-1.2-0.8-1.8-1C19.4,76.8,19.2,76,19,75
				c-0.3-1.7-2.1-9.8-2.6-12.3c-0.2-1.2-1.7-9.2-1.8-10.1c-0.2-1.3-0.3-2.6-0.5-3.9c-0.3-2.2-1.7-8.8-2.1-9.9
				c-0.2-0.6-1.2-5.9-1.6-7.9c-0.2-0.8-0.4-1.7-0.4-2.5C10.1,27.9,10.1,27,10.7,26.8z M29.3,72.8c0.4,2.2,0.7,4.1,1.1,6
				c0.1,0.4,0.2,0.9,0.4,1.3c0.2,0.5,0.4,1,1.3,0.5c1.1-0.6,2.4-0.7,3.6-1.1c1.3-0.4,2.6-0.7,3.8-1.1c1.3-0.4,2.5-1.2,3.8-1.4
				c1.6-0.3,3.3-0.2,4.9-0.5c1.3-0.2,2.6-0.7,3.9-1.1c1.5-0.5,3-1,4.4-1.4c1.2-0.4,2.4-0.7,3.6-1c0.6-0.2,0.9-0.1,1.7-0.4
				c2-0.6,3.7-1.6,5.6-2.1c0.4-0.1,0.7-0.4,0.1-0.8c-1.1-0.7-2.1-1.5-3.1-2.1c-1.8-1.1-3.6-2.1-5.4-3.2c-1.3-0.8-2.5-1.7-3.7-2.6
				c-1.1-0.7-2.3-1.4-3.1-2.3c-1-1.2-1.7-2.6-2.7-3.9c-1.9-2.5-3.4-5.3-5.2-8.2c0.2-0.1,2,0,2.5,0.1c1.2,0.2,2.5,0.2,3.7,0.5
				c2.6,0.6,5.1,1.3,7.8,1.2c0.3,0,0.6,0,0.8,0.1c1.9,1.1,3.8,2.2,5.6,3.3c1.3,0.8,2.5,1.6,3.8,2.5c0.7,0.5,1,0.3,1-0.5
				c0-0.5-0.2-1-0.3-1.4c-0.2-0.7-0.4-1.4-0.6-2.2c-0.3-1.2-0.7-2.5-1-3.7c-0.5-1.8-1-3.6-1.5-5.4c-0.4-1.4-0.7-2.8-1.1-4.1
				c-0.5-1.4-1-2.8-1.5-4.2c-1.2-3.3-2.5-6.5-3.7-9.8c-0.3-0.9-0.5-1.7-0.8-2.6c-1.7-3.9-1.5-4.7-2.7-4.4c-4.8,0.9-8.3,1.6-12.9,2.4
				c0.5,1.7-0.2,3.1-1.4,3.8c-1.2,0.7-2.7,0.7-4.3,1c-0.9,1.3-1.9,3-3,4.5c-0.7,1-1.4,0.9-2.3,0.1c-0.8-0.7-0.2-1.2,0.3-1.6
				c0.1-0.1,0.1-0.3,0.2-0.4c0.6-1.2,1.2-2.4,1.7-3.6c0.1-0.2,0-0.5-0.1-0.9c-7.7,2-14.5,3.8-22.1,5.8c-1,0.3-1,0.5-1,0.7
				c0.4,2.4,0.8,4.8,1.3,7.1c0.3,1.6,0.8,3.2,1.2,4.8c0.4,1.7,1,3.4,1.2,5.1c0.4,2.5,0.6,5,0.9,7.5c0.1,1.2,0.3,2.3,0.5,3.5
				c0.3,1.5,0.6,3,0.8,4.5c0.3,1.8,0.7,3.2,1,5c0.4,1.7,0.7,3.9,1.1,5.6c0.6,2.9,0.5,3.4,1.3,3.1C23.9,74,26.4,73.4,29.3,72.8z
				 M90,69.4c-0.5-0.3-0.9-0.5-1.4-0.8c-1-0.6-1.9-1.3-2.9-1.9c-1.6-1-2.3-1.9-3.9-2.9c-1.4-0.9,0.2,0.1-1.3-0.8
				c-1.7-1-3.4-1.8-5.1-2.8c-2.7-1.6-5.4-3.3-8.1-5c-2-1.3-4-2.5-6-3.8c-1.5-1-2-0.9-2.9,0.6c-0.6,1-0.2,1.3,1,2.2
				c0.1,0,0.9,0.4,1,0.5c1.4,1,2.3,1.6,3.8,2.6c2.1,1.5,4.2,3,6.3,4.4c1.5,1,3.2,1.9,4.7,2.8c1.8,1.1,3.5,2.3,5.3,3.4
				c2.2,1.4,1.5,0.8,3.8,2.1c1.1,0.7,1.3,1.2,2.4,1.8c0.3,0.1,0.9,0.2,1.1,0C88.6,71.1,89.2,70.2,90,69.4z M84.4,79.4
				c-0.4-1.6,1.9-3.4-0.3-4.2c-0.3-0.1-0.6-0.3-1-0.5c-2.2-1.3-1.4-0.6-3.5-1.9c-1.2-0.8-2.4-1.7-3.6-2.5c-2.5-1.7-5.1-3.3-7.7-4.9
				c-2.2-1.4-4.4-2.8-6.6-4.2c-1.5-1-3.1-2-4.6-3c-0.8-0.6-2.1-0.6-2.6,0c-0.8,1,0.2,1.4,0.7,2c0.1,0.1,0.2,0.1,0.3,0.2
				c2.8,1.8,5.6,3.6,8.4,5.4c1.8,1.2,3.6,2.5,5.4,3.8c2.6,1.8,5.2,3.5,7.9,5.2c2.7,1.7,2.4,1.5,5.2,3.2
				C83.3,78.4,83.3,78.8,84.4,79.4z M86.7,73.1c-0.2-0.1-0.4-0.2-0.6-0.3c-1.5-0.8-1.9-1.5-3.4-2.3c-2.2-1.3-1.3-0.7-3.4-2.1
				c-0.5-0.3-1-0.7-1.5-1c-1.1-0.7-2.3-1.4-3.5-2.1c-1.5-0.9-3-1.9-4.4-2.8c-1.9-1.3-3.9-2.6-5.8-3.8c-1.9-1.3-3.8-2.6-5.8-3.9
				c-0.9-0.5-1.4,0.3-1.8,0.9c-0.2,0.2,0,1,0.3,1.1c2.3,1.6,4.6,3,7,4.5c2.4,1.5,4.8,3.1,7.2,4.6c2,1.3,4,2.5,6,3.8
				c1.5,0.9,2.9,1.9,4.3,2.8c2.3,1.4,0.6,0.6,3,1.9c0.3,0.2,0.8,0.4,0.9,0.3C85.7,74.4,86.1,73.8,86.7,73.1z M49,52.1
				c1.5,2.3,2.9,4.4,4.2,6.3c0.4-0.4,0.8-0.9,1.1-1.3c0.5-0.7,1.6-1,1.4-2.2c0-0.2,0.3-0.6,0.5-0.6c1.2-0.3,1.1-1.3,1.2-2.1
				c0.1-0.3,0.2-0.7,0.3-1c0.2-0.3,0.4-0.6,0.6-0.9c-0.3-0.2-0.6-0.4-1-0.5c-1.2-0.2-2.5-0.2-3.7-0.5c-3.2-1-1.8,0.1-2.1,1
				C51.2,51.5,50.8,52.2,49,52.1z M38.3,15.8c-1.5,0-2.6,1-2.9,2.3c-0.1,0.6-0.3,1.3-0.1,1.9c0.7,2,2.4,2.6,4.3,2.6
				c1.9,0,3.2-2.1,2.2-3.7c-0.5-0.8-1.1-1.5-1.8-2.1C39.5,16.3,39.2,15.8,38.3,15.8z M20.8,75.6c0,0.1-0.1,0.2-0.1,0.3
				c0.3,0.2,0.6,0.4,1,0.6c0.8,0.4,1.6,0.8,2.3,1.2c1.7,1,3.3,2,5,2.9c0.2,0.1,0.4,0.2,0.5,0.1c0.1-0.1,0.2-0.4,0.2-0.5
				c-0.4-1.8-0.8-3.6-1.3-5.4c-0.1-0.2-0.5-0.6-0.7-0.5c-0.6,0.1-1.2,0.3-1.8,0.5C24.3,75,22.6,75.3,20.8,75.6z M86.2,80.3
				c0.5,0.5,3-1.6,3.8-2.5c1.8-1.9,2.1-4.2,2.5-6.8c0-0.2-0.3-0.6-0.5-0.7c-0.1-0.1-0.5,0-0.7,0.1c-1.7,1.3-3,2.8-4.3,4.4
				c-0.5,0.6-1,1.2-1.1,1.9C85.7,77.9,85.2,79,86.2,80.3z M33.2,27.6c0.1,0,0.2,0.1,0.3,0.1c1.1-1.5,2.2-3,3.3-4.5
				c-0.2-0.2-0.4-0.4-0.6-0.5c-0.3-0.1-0.7-0.1-0.8,0.1c-0.5,0.7-0.9,1.5-1.2,2.3C33.8,26,33.5,26.8,33.2,27.6z"/>
			<path class="st7" d="M87.9,77.6c0.5-0.3,0.7-0.4,1-0.5c0.9-0.5,1.6-2.1,1.2-3c-0.1-0.2-0.4-0.4-0.5-0.4C88.4,74,87.9,75,87.5,76
				C87.3,76.4,87.7,77,87.9,77.6z"/>
			<path class="st7" d="M22.4,41c-0.7,0.2-1.4,0.4-2,0.6c0-0.5,0-0.9,0-1.4c0.8,0,1.6-0.1,2.2,0.1c0.6,0.2,0.9,0.9,1.4,1.4
				c0.1-0.1,0.2-0.1,0.3-0.2c0-0.6-0.1-1.3,0-1.9c0.1-0.4,0.5-0.7,0.7-1c0.3,0.2,0.7,0.4,1,0.7c0.3,0.3,0.4,0.7,0.6,1
				c0.3-0.8,0.4-1.5,0.7-2.2c0.3-0.8,1.2-0.8,1.7-0.1c0.3,0.4,0.6,0.6,0.9,1c0.4,0.6,0.7,0.4,0.9-0.1c0.1-0.3,0.1-0.5,0.2-0.8
				c0.1-0.3,0.2-0.8,0.5-0.9c0.2-0.1,0.6,0.2,0.9,0.3c0.4,0.2,0.8,0.4,1.4,0.8c0.1-1,0.1-1.7,0.2-2.4c1.3-0.4,1.6,0.7,2.4,1.3
				c0.4-0.9,0.8-1.7,1.1-2.5c0.3-0.8,0.6-0.8,1.1-0.2c0.2,0.3,0.4,0.7,0.6,0.9c0.2,0.2,0.4,0.4,0.9,0.7c-0.5-3.2,1.2-1.9,2.4-1.6
				c0.2-0.7,0.3-1.2,0.5-1.7c0.3-0.7,0.6-0.8,1.1-0.1c0.5,0.7,1.1,1.3,1.7,2c0.2,0,0.3-0.1,0.5-0.1c0.4-0.8,0.7-1.6,1.2-2.7
				c0.5,0.4,1.1,0.9,1.6,1.4c0.1-0.2,0.1-0.2,0.2-0.2c0.2-0.5,0.3-1,0.5-1.5c0.4,0.3,0.9,0.7,1.3,1c0.2,0.1,0.4,0.2,0.6,0.3
				c0.3-0.7,0.5-1.2,0.8-1.8c0.4,0.4,0.8,0.7,1.2,1c0.2,0.1,0.4,0.3,0.6,0.3c0.2-0.1,0.2-0.4,0.4-0.5c0.2-0.3,0.4-0.5,0.6-0.8
				c0.1,0.1,0.3,0.1,0.4,0.2c-0.1,0.5,0,1.3-0.3,1.6c-0.3,0.3-1.1,0.4-1.5,0.2c-0.6-0.2-0.9-0.2-1.2,0.4c-0.6,1.1-1.1,1-1.8,0
				C50.3,33.1,50,33,49.6,33c0.1,0.3,0.2,0.7,0.5,1.4c-0.9-0.2-1.4-0.4-2-0.5c-0.2,0-0.6,0.1-0.8,0.2c-0.4,0.3-0.7,0.9-1.1,0.9
				c-0.6,0.1-1.3-0.2-1.8-0.4c-0.4-0.2-0.8-0.6-1.1-0.8c-0.2,0.8-0.2,1.6-0.5,2.1c-0.4,0.7-0.9,0.4-1.5-0.8c-0.4,0.6-0.6,1.2-1,1.7
				c-0.6,0.8-1.3,0.6-1.7-0.3c-0.2-0.3-0.4-0.6-0.6-1.1c-0.3,0.7-0.5,1.3-0.7,1.9c-0.4,0.9-1.1,1.2-2,0.4c-0.2-0.2-0.5-0.3-0.8-0.4
				c0.5,1-0.2,1.6-0.8,2c-0.2,0.2-1-0.3-1.7-0.6c-0.1,0.1-0.2,0.5-0.5,0.8c-0.4,0.3-0.8,0.7-1.2,0.7c-0.4,0-0.8-0.4-1.2-0.7
				c-0.1-0.1-0.1-0.4-0.2-0.5c-0.2-0.2-0.5-0.3-0.7-0.5c-0.1,0.3-0.3,0.5-0.4,0.8c-0.2,0.7-0.3,1.5-0.4,2.2
				c-0.2,0.1-0.5,0.3-0.7,0.4c-0.5-0.6-1.1-1.2-1.6-1.8c0-0.1,0.1-0.2,0.1-0.3c0,0.4-0.1,0.7,0,1.1c0.2,0.9-0.5,1.3-1,1.8
				c-0.3,0.3-1.4-0.5-1.6-1.2C22.4,41.4,22.4,41.3,22.4,41z"/>
			<path class="st7" d="M22.5,47.3c1.1-0.3,1.7,0.2,2.4,0.9c0.2,0.2,0.5,0.4,0.7,0.3c0.2-0.1,0.3-0.4,0.4-0.7c0-0.1,0-0.3,0-0.4
				c0.2-0.4,0.4-0.7,0.6-1c0.4,0.2,1,0.4,1.1,0.7c0.3,1,0.7,0.7,1.1,0.1c0.4-0.6,0.8-1.2,1.2-1.7c1.5,1.2,1.8,1.2,2.2-0.4
				c0.6,0.1,1.4-0.5,1.8,0.5c0.2-0.2,0.5-0.4,0.7-0.7c0.2-0.4,0.3-0.9,0.6-1.2c0.6-0.5,1.3-0.7,1.8,0c0.5,0.7,0.9,0.5,1.3-0.1
				c1.1-1.6,1.6-1.6,2.9-0.1c0,0,0.1,0.1,0.2,0.2c0.6-0.9,1.2-1.8,1.8-2.7c0.7,0.5,1.1,0.8,1.5,1.1c0.5-0.8,0.8-1.6,1.3-2.1
				c0.6-0.6,0.9,0.2,1.2,0.6c0.2,0.3,0.4,0.7,0.6,0.9c0.6-0.8,1.1-1.5,1.7-2.3c0.5,0.5,0.8,2.1,1.4,0.3c0-0.1,0.5,0,0.7,0.1
				c0.3,0.1,0.5,0.4,0.8,0.7c0.2-0.4,0.4-0.8,0.5-1.2c0.2-0.7,0.5-0.8,1-0.3c0.5,0.4,0.8,1.4,1.5,0.8c0.2-0.5,0.4-1,0.7-1.5
				c0.3,0.3,0.7,0.6,1.1,1c0.3-0.1-0.3-1.5,1-0.9c0,0.5,0,1,0,1.3c-0.8,0.4-1.3,0.8-2,1.1c-1,0.3-1.9,0-2.6-0.8
				c-0.3,0.6-0.5,1.1-0.8,1.8c-0.3-0.3-0.6-0.6-0.9-0.8c-0.6,1.1-1.1,1.1-2.2,0c-0.5,0.4-0.9,1.1-1.4,1.2c-0.5,0.1-1.1-0.3-1.9-0.6
				c-0.1,0.2-0.2,0.6-0.4,1c-0.2,0.4-0.5,0.8-0.8,0.9c-0.2,0.1-0.6-0.3-0.9-0.5c-0.2-0.1-0.5-0.3-0.7-0.3c-0.2,0-0.4,0.3-0.5,0.6
				c-0.3,0.5-0.6,1-0.9,1.4c-0.1,0.1-0.6,0.2-0.7,0.1c-0.6-0.3-1.1-0.7-1.5-1.1c-0.5,0.6-0.9,1.5-1.5,1.7c-0.6,0.2-1.4-0.4-2.3-0.7
				c-0.2,0.6-0.6,1.3-0.8,2.1c-0.3,1-0.8,0.7-1.3,0.2c-0.4-0.3-0.7-0.7-1.2-1c-0.3,0.8-0.6,1.3-0.9,2.1c-0.6-0.3-1.2-0.6-1.7-0.9
				c-0.3,0.4-0.6,1.1-1.1,1.3c-0.5,0.2-1.2,0.1-1.9-0.1c-0.7,0.2-0.5,1.7-1.6,1.2c-0.7-0.3-1.3-0.8-2.1-1.2
				c-0.1,0.2-0.3,0.6-0.5,0.9c-0.2,0.3-0.4,0.6-0.6,0.8c-0.1-0.1-0.3-0.1-0.4-0.2C22.1,48.9,22.3,48.1,22.5,47.3z"/>
			<path class="st7" d="M42.5,52.2c0-0.8,0.1-1.3,0.1-1.8c0.1-0.1,0.2-0.1,0.2-0.2c0.4,0.4,0.8,0.8,1.2,1.3c1-0.5,1.1-0.4,1.1,0.9
				c-0.7,0.5-2.2-1-2.2,1.1c-0.3-0.3-0.6-0.6-0.9-0.7c-0.2-0.1-0.6-0.1-0.7,0c-1.6,1.5-2.1,1.5-3.4,0c-0.3,0.8-0.7,1.6-1.1,2.5
				c-0.8-0.6-1.4-1.1-2-1.6c-0.6,2.7-0.9,2.9-2.6,1.6c-0.8,0.6-0.7,2.3-2.3,1.7c-0.3-0.1-0.5-0.4-0.7-0.5c-0.6,0.6-1.2,1.6-1.9,1.6
				c-0.7,0-1.4-1-2.1-1.6c-0.2,0.5-0.3,1.1-0.5,1.6c-0.1,0.2-0.4,0.4-0.6,0.6c-0.1-0.3-0.4-0.6-0.3-0.9c0.1-0.7,0.3-1.4,0.5-2.1
				c1-0.1,1.9-0.1,2.5,1c0.1,0.1,0.7,0.1,0.8,0c0.4-0.6,0.7-1.3,1.1-2c0.6,0.5,1.1,1,1.6,1.4c0.4-0.9,0.8-1.6,1.1-2.3
				c0.6,0.3,1.2,0.7,1.9,1.1c0.1-0.1,0.3-0.4,0.3-0.7c0.2-1.3,0.8-1.6,1.9-1c0.5,0.3,1,0.4,1.2-0.5c0.1-0.4,0.5-1,0.7-1.1
				c0.4,0,1.1,0.3,1.3,0.7c0.6,1,1,0.6,1.4-0.1c0.1-0.1,0.2-0.2,0.3-0.3C41.2,50.5,41.7,51.3,42.5,52.2z"/>
			<path class="st7" d="M87.9,77.6c-0.1-0.6-0.6-1.2-0.4-1.6c0.4-0.9,0.9-2,2.1-2.3c0.1,0,0.4,0.2,0.5,0.4c0.4,0.9-0.2,2.4-1.2,3
				C88.6,77.2,88.4,77.3,87.9,77.6z"/>
		</g>
	</g>
</g>
</svg>
