<?xml version="1.0" encoding="utf-8"?>
<!-- Generator: Adobe Illustrator 20.0.0, SVG Export Plug-In . SVG Version: 6.00 Build 0)  -->
<svg version="1.1" xmlns="http://www.w3.org/2000/svg" xmlns:xlink="http://www.w3.org/1999/xlink" x="0px" y="0px"
	 viewBox="0 0 100 100" style="enable-background:new 0 0 100 100;" xml:space="preserve">
<style type="text/css">
	.st0{fill:#231F20;}
	.st1{fill:#393939;}
	.st2{fill:#003366;}
	.st3{opacity:0.9;fill:#2E3191;}
	.st4{fill:#2E3191;}
	.st5{fill:none;}
	.st6{fill:#1C3664;}
</style>
<g id="Layer_2">
</g>
<g id="Layer_1">
	<path class="st6" d="M91.7,60.8c-0.1-0.2-0.2-0.4-0.2-0.7l-0.1-0.2C91,59,90.7,58,90.3,57c-0.1-0.4-3.4-7.9-5.9-13.5
		c-0.8-2.1-2.8-6.7-4.4-9.4c-2.9-6.4-5.3-10.4-10.3-14.5c-2.4-1.9-6.8-3.2-9.5-2.1c-2.8,1.2-5.7,2.2-8.6,3.3
		c-1.3,0.5-2.5,0.9-3.8,1.4c-0.7,0.2-1.3,0.5-2,0.7L45.6,23c-1.4,0.5-3.1,1.2-4.7,1.8c-0.3,0.1-0.7,0.2-1,0.3
		c-0.5,0.1-1.1,0.2-1.6,0.5c-0.5,0.3-1,0.7-1.4,1c-0.3,0.3-0.7,0.6-1.1,0.8c-2.4,1.5-3.6,3.7-3.8,6.6c0,0.4-0.1,0.7-0.2,0.9
		c-0.5,0.8-1,1.6-1.4,2.3l-0.1,0.1c-0.8,1.3-1.7,2.7-2.4,4.1c-1.8,3.3-3.4,6.5-5,9.6c-1.5,3-3.1,6.2-4.9,9.4c-2.3,4.2-3,5.6-5.2,9.9
		c0,0.1-0.1,0.1-0.1,0.3c-2.1,4.3-2.8,4.8-3,4.9c-0.5-0.5-1-0.6-1.3-0.3c-0.1,0.1-0.1,0.2-0.2,0.3c0,0.2,0.2,0.4,0.5,0.8l0.1,0.1
		c0.4,0.4,1,1.1,1.5,1c0.4-0.1,1.3-1.6,9.2-17.1c3.2-6.2,6.7-13.1,8.7-16.7c-1.7,4.8-4.6,13.1-5.5,15.9l0,0.1
		c-2,5.4-3.7,10.1-5.2,14.3c0,0,0,0.1-0.1,0.1c-0.2,0.5-0.4,1-0.1,1.3c0.3,0.2,0.6,0,0.7,0l2.7-1.2c1.5-0.7,2.8-1.2,4.6-2
		c0.3-0.1,0.6-0.4,1-0.6c0.5-0.3,1.1-0.7,1.5-0.7c3.5-0.1,7.3,0,10.2,0.1c3.2,0.1,3.9,0.5,4,0.7c0,0,0,0,0,0.1c0,0.2,0,0.2,0,0.2
		c0,0,0,0,0,0c0,0,0,0.1,0,0.1c-0.1,0.5-0.2,1.1-0.3,1.6l-0.1,0.5c-0.2,1.5-0.5,3-0.7,4.5c-0.1,0.7,0,1.1,0.4,1.4
		c0.3,0.3,0.8,0.3,1.5,0c0.6-0.2,1.3-0.4,2-0.7l0-0.1c0,0,0,0,0,0l0.1,0.1c0.2-0.1,0.4-0.1,0.7-0.2c-0.1,1-0.2,2.1-0.3,3.3
		c-0.3,3.1-0.6,6-0.8,6.9c0,0.1,0,0.1-0.1,0.1c-0.2,0.1-0.7,0.1-1.1,0c-0.2-0.1-0.4-0.2-0.6-0.3c-0.2-0.1-0.5-0.3-0.7-0.1
		c-0.1,0.1-0.1,0.2-0.2,0.3c0,0.2,0.1,0.6,0.6,0.9c0.2,0.1,0.8,0.4,2.1,0.9l0,0l0,0l0.1,0c0.1,0,0.2,0.1,0.3,0.1
		c0.1,0,0.2,0,0.3-0.1c0.4-0.2,0.4-0.9,0.5-1.7c0-0.2,0-0.3,0-0.5c0.2-1.7,0.4-3.5,0.5-5.1c0.1-1.5,0.3-3.1,0.5-4.7
		c0-0.4,0.3-0.8,0.4-0.9c1.3-0.4,2.5-0.8,3.7-1.1l0.1,0c2.5-0.8,4.9-1.5,8.2-2.3c0.6-0.1,1-0.2,1.5-0.3c1.5-0.2,2.6-0.4,4.8-2.4
		c0.5-0.4,2.8-1.7,3.1-1.8c0.8-0.4,1.5-0.7,2.1-1l0.2-0.1c1-0.5,2-1,3.6-1.7c2.1-1,3.9-1.9,5.8-2.7c0.6-0.3,1.2-0.3,1.4-0.2
		c0.4,0.4,0.5,0.5,0.9,1.6c0.1,0.4,0.3,0.7,0.4,0.9c0.1,0.1,0.1,0.3,0.1,0.4c-0.1,0-0.1-0.1-0.2-0.1c-0.3-0.1-0.9-0.4-1.6-0.6
		c-0.3-0.1-0.6-0.1-0.7,0.1c-0.1,0.1-0.1,0.2-0.1,0.4c0.2,0.6,1.5,1.4,4.2,2c0.1,0,0.4,0.1,0.6-0.1c0.1-0.2,0.2-0.7-1-2.4
		c-0.4-0.6-0.7-1.4-0.9-2.1l0,0c-0.1-0.2-0.1-0.5-0.2-0.7c0.3-0.1,0.5-0.2,0.8-0.3c0.8-0.3,1.6-0.6,2.4-0.8c1.2-0.3,2.3-0.6,3.6-1
		c0.5-0.1,1.1-0.3,1.7-0.4l0.3-0.1L91.7,60.8z M31.2,39.8l-0.9,4.6c-0.2,1.1-0.4,2.2-0.6,3.3l-0.1,0.5c-0.6,2.8-1.1,5.6-1.6,8.5
		c-0.4,2.2-0.7,4.5-1,6.6c-0.3,2-0.5,4.1-0.9,6.2c-0.1,0.4-0.6,0.9-1,1.1c-1.4,0.7-2.9,1.4-4.3,2l-0.1,0.1c-0.5,0.2-1,0.4-1.5,0.7
		c-0.1,0.1-0.2,0.1-0.3,0.1c0.1-0.2,0.2-0.5,0.3-0.7l0.1-0.2c0.9-2.7,2-5.8,3.1-8.8l0-0.1c1.1-3,2.2-6.2,3.1-8.8
		c0.7-1.7,1.3-3.1,1.5-3.7c0.8-2.1,1.5-4.2,2.2-6.3l0.2-0.5c0.5-1.3,0.9-2.6,1.4-3.9c0.1-0.2,0.1-0.2,0.4-1.1c0-0.1,0-0.1,0.1-0.2
		C31.3,39.4,31.2,39.6,31.2,39.8z M80.4,59.7c-1.3-2.4-3.1-5.6-5-9.1l0-0.1c-2.3-4.3-4.7-8.7-6.5-11.7V35l-4.3,2.3l0.4,0.3
		c0.2,0.1,0.4,0.3,0.6,0.4c0.4,0.2,0.7,0.4,1,0.7c0.4,0.3,0.9,0.7,1.3,1.1c0.1,0.1,0.3,0.3,0.4,0.4l0,0.5l0.2-0.2
		c1.6,2.7,3.2,5.7,4.8,8.5l0,0.1c1.7,3,3.4,6.2,5.2,9.2c0.2,0.5,0.8,1.6,1.4,2.6l0.1,0.1c0.4,0.8,0.8,1.6,1.1,2
		c-1.8,0.9-3.6,1.6-5.4,2.3c-4,1.7-7.9,3.2-11.8,6.2c-0.2-0.3-0.5-0.9-0.5-1L62.9,69l-0.3-0.9c-0.7-2.5-1.3-4.6-2.1-7.3
		c-0.3-1.3-0.7-2.6-1-3.9c-0.5-2.3-1.1-4.6-1.9-6.9c-1.9-5.4-4.2-10.6-6-14.6c-1.7-3.8-4.1-6.7-7.1-8.8c-0.4-0.3-0.8-0.5-1.3-0.8
		l-0.1-0.1c-0.1-0.1-0.2-0.1-0.3-0.2c0.4-0.2,0.8-0.3,1.2-0.5l0.4-0.1c1.4-0.6,2.7-1.1,4-1.6c2.7-1,5.4-2.1,8.1-3.1l0.1,0
		c1.5-0.6,3-1.1,4.5-1.7c1.9-0.7,5.6,0.5,7.6,2c3.6,2.7,5.2,5.3,7.6,9.2l0.3,0.4c0.5,0.8,0.9,1.5,1.4,2.3c0.2,0.4,0.5,0.9,0.9,1.6
		c1,1.7,2.3,4.1,2.7,5c0.2,0.7,1.4,3.5,3,7.2c2.2,5.1,4.9,11.4,5.7,14c-0.7,0.2-1.4,0.3-2,0.4c-1.9,0.4-3.8,0.8-5.5,1.5
		c-0.7,0.3-0.8,0.2-0.9,0c-0.2-0.3-0.3-0.5-0.5-0.8c-0.2-0.3-0.5-0.7-0.7-1c0,0,0-0.1-0.1-0.2C80.5,59.9,80.4,59.7,80.4,59.7z
		 M45.8,75c0,0.2,0,0.4,0,0.7c0.1,1,0.1,1.4,0,1.5c-1.6,0.8-3.2,1.2-3.7,1.3c0-0.8,0.7-4.2,1.2-6.5l0,0c0.2-1.1,0.4-2.1,0.6-3
		c0.6-3.2,1.2-6.3,1.9-9.8l0.2-1c0.3-1.7,0.7-3.4,1-5c0.2-0.8,0.5-2.5,0.8-4c-0.3,3.4-0.7,6.7-0.8,7.7l-0.2,1.7
		C46.2,63.9,45.7,69.5,45.8,75z M38.2,29.4c0.1,0,0.3,0,0.5,0.1c1.1,0.3,2.2,0.4,3.3,0.6c0.8,0.1,1.8,0.3,2.7,0.5
		c0.3,0.1,0.7,0.4,0.8,0.8c0.1,0.3,0.2,0.6,0.3,0.8c0.6,1.6,1.3,3.2,2.9,4.3c0,0,0.1,0.3,0.1,0.5c-0.9,4.3-2.1,10.5-2.6,13.5
		c0,0.2-0.1,0.5-0.2,1c-0.2,1.2-0.5,3.5-0.9,3.9c-1.2,1.4-2.9,2.4-4.6,3.4c-0.2,0.1-0.5,0.3-0.7,0.4c-2.6,1.8-3.1,2.1-5.1,3.6
		c-1,0.5-1.4,0.6-2.5,0.7c-0.8,0.1-1.6,0.3-2.4,0.5c-0.6,0.2-1.2,0.3-1.9,0.4c0.2-1.2,0.4-2.5,0.5-3.7l0,0c0.3-2.3,0.7-4.7,1.1-6.8
		c0.9-5.1,2-10.3,3-15.3l0.1-0.4c0.1-0.4,0.1-0.7,0.2-1c0.2-1.4,0.4-2.4,1.9-3.3c1.1-0.6,2.3-2.5,2.7-3.7v0
		C37.8,29.5,37.9,29.4,38.2,29.4z M50.1,34.8c0.1,0.2,0.3,0.4,0.4,0.7c-0.6,0-1.2-0.2-1.7-0.7c-1.2-1-1.9-2.8-1.9-4.6
		C48.3,31.5,49.2,33.1,50.1,34.8z M37.2,64c-0.7,0-1.3-0.1-1.9-0.1c0,0,0.1,0,0.1-0.1l9.6-6.6l-1.2,5.6c0,0.1,0,0.3-0.1,0.4l0,0.1
		c-0.1,0.6-0.1,0.8-0.3,1.2c0,0-0.2,0.2-1.7-0.1C40.5,64.2,38.8,64.1,37.2,64l0,0.2L37.2,64z M45.7,29.8c-0.1,0-0.5-0.1-0.8-0.2
		l-0.3-0.1c-0.9-0.2-1.9-0.5-2.9-0.7c-1.3-0.3-2.7-0.6-3.8-0.9c-0.3-0.1-0.4-0.2-0.5-0.3c0-0.1,0.1-0.3,0.4-0.6
		c0.6-0.4,1.4-0.7,2.5-0.7c0.4,0,0.9,0,1.4,0.1c1.6,0.3,3,1.1,3.5,2c0.1,0.2,0.4,0.9,0.4,1C45.7,29.7,45.7,29.8,45.7,29.8z
		 M27.6,68.1c0.1-0.7,0.1-1.2,0.2-1.9c0-0.1,0.4-0.4,0.8-0.6c2.8-0.9,5.8-0.6,8.7-0.3c0.4,0,0.8,0.1,1.2,0.1
		c0.6,0.1,1.2,0.1,1.8,0.2c0.5,0.1,1,0.1,1.5,0.2l0.4,0c0.5,0.1,0.9,0.1,1,0.2c0.2,0.2,0,1.2-0.2,1.7l0,0.1
		c-0.1,0.4-0.2,0.7-0.2,1.2c-0.1,0.7-0.2,0.8-1,0.7c-2.6-0.1-5.3-0.2-7.9-0.3c-1.2,0-2.4-0.1-3.5-0.1c-0.1,0-0.2,0-0.2,0
		c-0.3,0-0.7,0-1,0.1c-0.6,0-1.3,0.1-1.5-0.1c0,0,0,0,0-0.2C27.5,68.8,27.6,68.4,27.6,68.1L27.6,68.1l-0.2,0L27.6,68.1z M47.1,74.4
		c0-2,0-3.8,0.1-5.8c0.1-2.3,0.4-4.6,0.7-6.9c0.1-1.2,0.3-2.5,0.4-3.8c0.1-1,0.2-2.1,0.3-3.1l0-0.3c0.1-0.7,0.1-1.4,0.2-2.1l0.2-2.2
		c0.3-3.9,0.7-7.9,1.1-11.9c0.1-0.7,0.4-1.4,0.6-1.4c0.5,0,0.8,0.6,1.1,1.1c3.8,8.1,6.3,15.6,7.8,23c0.4,2,1,3.9,1.6,5.8
		c0.5,1.6,1,3.3,1.4,4.9l0.1,0.2c0.1,0.2,0.1,0.4,0.1,0.5c0,0-0.1,0.1-0.5,0.2c-0.4,0.1-0.8,0.2-1.2,0.2c-1,0.2-2.1,0.4-3,0.6
		c-3.1,0.9-6.3,1.8-9.3,2.7l-1.2,0.4c-0.1,0-0.2,0-0.2,0.1c0,0,0,0,0,0c0-0.1,0-0.1,0-0.2C47.1,75.8,47.1,75.1,47.1,74.4l-0.1,0
		L47.1,74.4z M36.7,29c0,0,0.1,0.1,0.1,0.1c-0.5,1.3-1.6,3.6-3.7,4.4c-0.1-1.6,1.6-4.2,2.8-4.8c0.1,0,0.2,0,0.3,0c0,0,0.1,0,0.1,0
		C36.4,28.8,36.6,28.9,36.7,29l0.1-0.1L36.7,29L36.7,29z"/>
</g>
</svg>
