<svg viewBox="0 0 32 44" version="1.1" xmlns="http://www.w3.org/2000/svg" xmlns:xlink="http://www.w3.org/1999/xlink">
    <!-- Generator: Sketch 40.3 (33839) - http://www.bohemiancoding.com/sketch -->
    <title>downlaod ikon</title>
    <desc>Created with Sketch.</desc>
    <defs></defs>
    <g id="Symbols" stroke="none" stroke-width="1" fill="none" fill-rule="evenodd">
        <g id="1170---Blanket-blok" transform="translate(-22.000000, -18.000000)" fill="#BABABA">
            <path d="M53,32 L42,32 C41.448,32 41,32.448 41,33 C41,33.553 41.448,34 42,34 L52,34 L52,60 L24,60 L24,34 L34,34 C34.552,34 35,33.553 35,33 C35,32.448 34.552,32 34,32 L23,32 C22.448,32 22,32.448 22,33 L22,61 C22,61.553 22.448,62 23,62 L53,62 C53.552,62 54,61.553 54,61 L54,33 C54,32.448 53.552,32 53,32 M29,45 C29,45.276 29.112,45.526 29.293,45.707 L37.293,53.707 C37.474,53.889 37.724,54 38,54 C38.276,54 38.526,53.889 38.707,53.707 L46.707,45.707 C46.888,45.526 47,45.276 47,45 C47,44.447 46.552,44 46,44 C45.724,44 45.474,44.112 45.293,44.293 L39,50.586 L39,19 C39,18.448 38.552,18 38,18 C37.448,18 37,18.448 37,19 L37,50.586 L30.707,44.293 C30.526,44.112 30.276,44 30,44 C29.448,44 29,44.447 29,45 Z" id="downlaod-ikon"></path>
        </g>
    </g>
</svg>
