<svg id="Layer_1" data-name="Layer 1" xmlns="http://www.w3.org/2000/svg" viewBox="0 0 60 60"><defs><style>.cls-1{fill:#036;}</style></defs><title>Ikoner</title><path class="cls-1" d="M53.37,17.77a10.73,10.73,0,0,0-.66-3.22A16.37,16.37,0,0,0,51.28,12a9.62,9.62,0,0,0-3.89-3.52A23,23,0,0,0,36.89,6c-2.37-.08-4.74.06-7.11,0.1-1.36,0-2.71.09-4.07,0.07S23.17,6,21.9,6.06a23.77,23.77,0,0,0-7,1.28,12.08,12.08,0,0,0-6.72,5.91,19.44,19.44,0,0,0-1.9,8.45c-0.07,2.21.06,4.44,0.12,6.65,0,1.6.11,3.2,0.17,4.81,0,1.14.12,2.27,0.1,3.41,0,0.48-.37,1-0.37,1.44a10.32,10.32,0,0,0,.27,2.27c0.26,1.17.68,2.31,0.91,3.49a10.57,10.57,0,0,0,2.95,5.83,17.28,17.28,0,0,0,7.88,4.12,21.18,21.18,0,0,0,4.33.42c3.48,0.12,7,.18,10.43.24a32.88,32.88,0,0,0,4.28,0,70.27,70.27,0,0,0,7-1.12,12,12,0,0,0,4.15-1.46c3.41-2.3,4.88-5.73,4.92-9.78,0-.68-0.32-1.35-0.37-2a20.89,20.89,0,0,1,0-2.66c0.12-2.33.27-4.66,0.41-7.09,0-1.17,0-2.45,0-3.73C53.4,23.58,53.46,20.67,53.37,17.77ZM52.28,32.29C52.08,35.19,52,38.11,52,41c0,0.74.27,1.49,0.25,2.24a10,10,0,0,1-3.09,6.61c-1.56,1.69-3.75,2-5.81,2.51a36.42,36.42,0,0,1-5.39.78c-1.78.15-3.58,0.15-5.37,0.12-3,0-6.06-.17-9.09-0.25a24.15,24.15,0,0,1-3.53-.08,16.15,16.15,0,0,1-4.09-1.23,21.52,21.52,0,0,1-4.51-2.77,8,8,0,0,1-2.1-3.06,27.71,27.71,0,0,1-1.39-4.81A20.61,20.61,0,0,1,7.64,38H7.57c0-2.93,0-5.87,0-8.8,0-1.66-.25-3.31-0.24-5a31.7,31.7,0,0,1,.31-4.77,24.81,24.81,0,0,1,1.14-4.53,10.66,10.66,0,0,1,4.47-5.55A20.62,20.62,0,0,1,16.8,8c2.3-.88,4.71-0.67,7.1-0.73,0.59,0,1.18.18,1.76,0.18,2,0,3.93-.1,5.9-0.1,2.37,0,4.74-.07,7.09.09C42.39,7.7,46,8.57,48.91,11.11A9.2,9.2,0,0,1,52,15.87a11.65,11.65,0,0,1,.2,2.8C52.18,23.21,52.61,27.74,52.28,32.29Z"/><path class="cls-1" d="M44.55,14.92a2.86,2.86,0,0,0-2.31-1.67c-1.11,0-1.8.49-2.66,1.91a3.16,3.16,0,0,0,.34,3.05,3.5,3.5,0,0,0,4.27.57,2.06,2.06,0,0,0,.95-2.21C45,16,44.75,15.47,44.55,14.92Zm-1.77,3.25a3.19,3.19,0,0,1-.44,0,1.59,1.59,0,0,1-1.85-1.77,2.17,2.17,0,0,1,2-2.09,0.88,0.88,0,0,1,.68.36,12.11,12.11,0,0,1,1,2.17C44.35,17.41,43.59,18.06,42.78,18.18Z"/><path class="cls-1" d="M40.48,28a19,19,0,0,0-1.31-2.6c-2-3-6.25-5.79-9.63-5.8h0c-4.51,0-7.59,1.59-10.66,7.42C17.67,29.29,17.7,35.58,20,38c3.19,3.31,11.33,6,17.74,2.15,3-1.77,3.87-6.08,3.67-7.59A15.86,15.86,0,0,0,40.48,28ZM39.33,37C38,39,35.27,40.58,32.26,41a7.33,7.33,0,0,1-.95.05l-0.7,0H30C23.4,41,19,37.66,19,31.71c0-4.53,3.33-10.91,11-10.85a11.06,11.06,0,0,1,6.69,3c3.32,3.15,3,4.89,3.64,8.78A7.49,7.49,0,0,1,39.33,37Z"/></svg>