<?xml version="1.0" encoding="utf-8"?>
<!-- Generator: Adobe Illustrator 19.2.1, SVG Export Plug-In . SVG Version: 6.00 Build 0)  -->
<svg version="1.1" xmlns="http://www.w3.org/2000/svg" xmlns:xlink="http://www.w3.org/1999/xlink" x="0px" y="0px"
	 viewBox="0 0 100 100" style="enable-background:new 0 0 100 100;" xml:space="preserve">
<style type="text/css">
	.st0{fill:#231F20;}
	.st1{fill:#393939;}
	.st2{fill:#003366;}
	.st3{opacity:0.9;fill:#2E3191;}
	.st4{fill:#2E3191;}
	.st5{fill:none;}
	.st6{fill:#1C3664;}
	.st7{fill:#1C3764;}
</style>
<g id="Layer_2">
</g>
<g id="Layer_1">
	<path class="st7" d="M75.5,84.1l-0.2-0.6c-0.1-0.4-0.3-0.9-0.5-1.2l-0.1-0.2c-0.4-0.8-0.8-1.7-2-1.9c-0.1,0-0.2-0.1-0.4-0.4
		c-0.1-0.3-0.5-1.2-0.6-1.4c-0.1-0.2-0.2-0.5-0.5-0.7c-0.2-0.1-0.4,0-0.7,0.1L70,75.9l-0.2-0.6c-0.3-1.1-0.6-2.2-0.9-3.4l-0.1-0.4
		c-0.4-1.7-0.6-2.5-1.8-3.6c-0.3-0.3-0.7-0.6-1-0.8c-0.3-0.3-0.6-0.5-0.7-0.6c-0.5-0.7-0.9-1.8-1.2-2.7c-0.3-0.9-0.4-1.3-0.6-1.8
		c0-0.2-0.1-0.3-0.1-0.5c-0.2-0.5-0.4-1-0.6-1.7c-0.2-0.4-0.4-1.5-0.1-1.6c0.1-0.1,0.2-0.4,0.2-0.8c0-0.2,0-0.4-0.1-0.5
		c0-0.4-0.1-0.7-0.2-1.5c0-0.3-0.1-0.6-0.2-0.8c-0.2-0.8-0.3-1.7-0.3-2.4v-1.4c0-0.7,0-1.4-0.1-2l-0.1-0.4c-0.2-1-0.4-2-0.6-3
		c-0.1-0.5-0.2-1-0.4-1.5l0.4,0.2c0.5,0.3,1,0.6,1.4,0.9c0.9,0.6,1.8,0.6,2.7,0.1c1.7-1.2,3.7-2.5,4.6-4.8c0.8-2,0.7-3.9-0.2-5.9
		c-0.3-0.6-0.4-1-0.5-1.5c-0.3-2.3-0.7-5-1.7-7.6c-0.6-1.3-1.2-2.6-1.7-4c-0.4-1-1.1-1.9-1.8-2.4c-2.9-1.9-5.9-2.3-9.1-1.3
		c-0.4,0.1-0.9,0.3-1.2,0.5c-0.1,0.1-0.1,0.1-0.2,0.1c0,0-0.1,0-0.1,0.1c-0.1-0.1-0.2-0.2-0.3-0.3c-0.1-0.1-0.2-0.3-0.3-0.4
		c-0.5-0.6-1-1.2-1.5-1.7c-0.3-0.3-0.4-0.7-0.2-1.2c0.7-1.7,0.4-2.8-0.2-4.4c-0.1-0.2-0.1-0.3-0.2-0.5c-0.3-0.8-0.7-1.3-1.4-1.9
		c-0.9-0.7-2.6-1.4-4.5-1.2c-1.6,0.2-2.8,0.9-3.5,1.8c-0.1,0.1-0.1,0.2-0.1,0.2c0,0,0,0-0.1,0.1l0,0c-0.2,0.5-1,2.1-1.2,2.3
		c-0.1,0.1-0.5,0.1-0.8,0.2c-0.3,0-0.5,0-0.6,0.1c-0.2,0-0.4,0-0.6,0c-0.5,0-0.9,0-1.1,0.3c-0.1,0.1-0.2,0.3-0.2,0.4
		c0,0.2,0.1,0.3,0.4,0.5c0.7,0.5,1.4,0.6,2.1,0.6c0.1,0,0.2,0,0.4,0c0.2,0,0.4,0.1,0.4,0.1v0l0,0c0.1,0.1,0,0.3-0.1,0.4
		c-0.1,0.3-0.2,0.6-0.4,0.9c-0.1,0.1-0.1,0.1-0.1,0.2c0,0.1,0,0.1-0.1,0.2l0,0c0,0,0,0.1,0,0.1c-0.1,0.3-0.3,0.9,0.3,1.4
		c0.5,0.4,0.8,0.8,0.9,1.6c0.1,0.8,0.4,1.3,1,1.6c0.5,0.3,1.1,0.3,1.9,0c0.3-0.1,0.6-0.2,0.7-0.2c0,0,0.1,0.2,0.2,0.3
		c0,0.1,0.1,0.1,0.1,0.2c0.1,0.2,0.1,0.4,0.1,0.6c-0.1,0.4-0.1,0.7-0.1,1.1c0,0.3,0,0.7-0.1,1c-0.1,0.4-0.1,0.8-0.1,1.2L44,25.4
		c-0.1,2.2,0.3,8.8,0.3,8.8c-0.1,0-6,3-6.8,3.2c-0.4,0.1-0.6,0.3-0.7,0.5c-0.1,0.2-0.2,0.6,0,0.9c0,0,0,0.1,0,0.1c0,0,0,0.1,0,0.1
		l-0.2,0.1c-0.8,0.3-1.3,0.1-2.2-0.2l-0.1,0c-0.1,0-0.3-0.1-0.5-0.1c-0.2-0.1-0.4-0.1-0.5-0.1l0,0l0,0c0,0,0,0-0.1,0
		c-0.1,0-0.2,0-0.4,0.1c-0.2,0-0.7,0.4-1.1,0.8c-0.3,0.4-0.4,0.7-0.4,1l0,0l0,0c0,0.1,0.1,0.1,0.1,0.2c0,0.1,0,0.2,0.1,0.3
		c0.2,0.7,0.4,1.4,0.9,2c1.1,1.3,1.8,2.1,3.5,0.9c1.1-0.8,1.9-1.2,2.3-1.1c0.2,0,0.1,0,0.1,0c0,0,0.1,2.5,3.6,0.2
		c0,0,3.3-1.7,3.7-1.8c0,0.1,0.1,0.4,0.1,0.6c-0.1,2.5-0.8,4.2-2,6.4c-0.3,0.6-0.7,1.2-1.1,1.8c-0.4,0.6-0.8,1.2-1.1,1.8
		c-0.3,0.4-0.5,0.7-0.7,1.1c-0.2,0.4-0.4,0.7-0.7,1.1c-0.4,0.8-0.4,1.3,0.2,1.9c0.1,0.1,0.1,0.2,0.1,0.2c-0.2,0.4-0.5,0.9-0.8,1.4
		c-0.3,0.5-0.6,1-0.8,1.4l-0.6,1c-0.1,0.1-0.1,0.1-0.1,0.2c0,0.1,0,0.1-0.1,0.2l-0.3,0.6c-1,1.6-0.8,3.2-0.5,4.6l0.5,1.8
		c0.5,1.9,0.9,3.8,1.4,5.7l0.2,1c0.1,0.5,0.2,1.1,0.2,1.6c0,0.3,0,0.5,0.1,0.8c0,0.3,0,0.6,0.1,0.9l0,0.5c0.1,0.6,0.1,1.3,0.1,1.9
		c0,0.7-0.1,1.2-0.3,2c0,0.2-0.1,0.3-0.1,0.5c0,0,0,0.1-0.1,0.1c-0.1,0.2-0.2,0.4-0.3,0.5l0,0c-0.5,0.7-2,0.5-3.5,0.3
		c-1.6-0.2-3.4-0.4-4.5,0.3c-0.6,0.4-0.7,1.4-0.7,1.6c-0.3,0.2-0.4,0.3-0.4,0.5c0,0.3,0.4,0.6,1.1,0.9c0,0,0,0,0,0
		c2.9,1.4,4.4,1.6,5,1.8c0.1,0,0.2,0,0.2,0c0.6,0.1,1,0.3,1.5,0.5c0.2,0.1,0.5,0.2,0.7,0.3c0.4,0.2,0.6,0,0.8-0.1
		c0.2-0.1,0.3-0.2,0.6-0.1c0.4,0.1,0.4,0.3,0.3,0.6c0,0.2,0,0.5,0.4,0.6c0.6,0.2,2.2,0.6,3.1,0.7c0.7,0.1,1.1-0.6,1.4-1.1l0.3-0.6
		c0.2-0.4,0.4-0.9,0.5-1.3l0.1-0.2c0.3-0.9,0.6-1.9-0.2-2.8c0,0,0-0.3,0.1-0.7c0.1-0.3,0.3-0.5,0.5-0.7l0,0c0-0.1,0.1-0.2,0.1-0.2
		c0.1-0.1,0.1-0.2,0.2-0.3c0.1-0.2,0.2-0.4,0.1-0.8c-0.1-0.2-0.4-0.4-0.6-0.5c-0.8-0.3-0.8-0.3-0.8-1.1v-3c0-1.5,0-3.1,0.2-4.6
		c0.3-2.3,0.4-5.2-0.9-8.1c-0.5-1-0.2-2,0.8-2.8l1.8-1.2l0.6-0.3l0.1-0.1c0.2-0.1,0.4-0.2,0.5-0.2c1.2,0,1.8-0.7,2.3-1.3
		c0.4-0.5,0.7-1,1-1.5c0.1-0.1,0.1-0.1,0.2-0.2c0,0,0.1-0.1,0.1-0.1c0,0,0,0.1,0,0.1c0,0.1,0.1,0.2,0.1,0.2c0.1,0.3,0.2,0.6,0.3,0.9
		c0.1,0.4,0.3,0.8,0.4,1.3l0.5,1.4c0.1,0.3,0.3,1,1.1,0.8l0.1,0c0.1,0,0.1,0,0.3-0.1c0.4,0.4,4.9,7.7,5.5,9.3c0.4,1,0.9,1.3,1.2,1.6
		c0.1,0.1,0.2,0.1,0.3,0.2c0.7,0.9,1.1,1.6,1.3,2c0.1,0.2,0.1,0.3,0.2,0.4c0.5,1.1,0.7,1.3,0.8,1.7c0.2,0.3,0.4,0.7,1,1.8l0.7,1.4
		c0,0-0.1,0.1-0.2,0.2c-0.2,0.2-0.5,0.3-0.4,0.5l1.7,1.9c0,0,0,0.1,0,0.1c0.1,0.2,0.1,0.4,0.1,0.5l0,0l0,0c0.1,0.8-1,1.6-2.2,2.5
		c-1.2,0.9-2.6,1.9-3,3.1c-0.2,0.7,0.4,1.4,0.6,1.6c-0.1,0.3-0.1,0.5,0.1,0.6c0.1,0.1,0.2,0.1,0.4,0.1c0.2,0,0.6-0.1,1-0.2
		c0,0,0,0,0,0c2.9-0.9,4.1-1.7,4.6-2c0.1-0.1,0.1-0.1,0.2-0.1c0.5-0.3,0.9-0.5,1.3-0.6c0.2-0.1,0.4-0.2,0.7-0.3
		c0.4-0.2,0.5-0.4,0.5-0.6c0-0.2,0.1-0.3,0.4-0.4c0.3-0.1,0.5,0,0.6,0.2c0.1,0.2,0.3,0.4,0.6,0.2c0.6-0.3,1.9-1,2.6-1.5
		C75.8,85.4,75.6,84.7,75.5,84.1z M66.7,85.4c0.4-0.4,0.7-0.7,0.9-1.1c0.7-1.1,0.7-1.2,0.2-2.1c-0.1-0.1-0.1-0.3-0.2-0.4
		c-0.3-0.5-0.7-0.9-0.9-1l4-1.6c0,0.1,0.1,0.2,0.1,0.2c0,0.1,0,0.1,0.1,0.2c0.1,0.4,0.2,0.7,0.3,0.9c0.3,0.8,0.4,0.9,1.1,1
		c0.5,0.1,0.8,0.4,1,0.9c0.3,0.8,0.6,1.7,0.6,1.9c0,0.1,0,0.1,0,0.1c0,0-0.1,0-0.1,0l0,0c-0.2,0.1-0.3,0.2-0.5,0.3
		c-0.4,0.2-0.9,0.4-1.4,0.6c-0.3,0.1-0.5,0.2-0.7,0.3c-0.2,0.1-0.4,0.2-0.7,0.3c-0.5,0.2-1,0.5-1.5,0.8c-0.2,0.1-0.4,0.3-0.7,0.4
		c-0.1,0.1-0.4,0.2-0.7,0.4c-0.3,0.2-0.6,0.3-0.8,0.4c-1.5,0.7-3.4,1.5-3.6,1.6c0,0,0,0-0.1,0c-0.1-0.1-0.3-0.4-0.3-0.5
		c0.1-0.8,1.8-2.1,2.8-2.8c0.3-0.3,0.6-0.5,0.7-0.6C66.5,85.6,66.6,85.5,66.7,85.4z M44.5,85.5c0.3,0.4,0.4,0.9,0.2,1.4
		c-0.3,0.8-0.8,1.7-0.9,1.9c0,0-0.1,0.1-0.1,0.1c0,0-0.1,0-0.1,0c-0.2-0.1-0.4-0.1-0.6-0.2c-0.4-0.1-0.9-0.3-1.5-0.5
		c-0.3-0.1-0.5-0.2-0.8-0.2c-0.2-0.1-0.5-0.1-0.8-0.2c-0.6-0.2-1.1-0.3-1.7-0.5c-0.3-0.1-0.5-0.1-0.8-0.2C37.3,87.1,37,87,36.6,87
		c-0.3-0.1-0.7-0.2-0.9-0.2c-1.7-0.5-3.7-1.2-4-1.3c0,0,0,0-0.1-0.1c-0.1-0.2,0.1-0.5,0.1-0.7c0.7-0.5,2.9-0.3,4.2-0.2
		c0.5,0,0.8,0.1,1,0.1c0.2,0,0.3,0,0.5,0c0.6,0,1,0,1.5-0.2c1.3-0.4,1.5-0.8,1.8-1.8c0-0.2,0.1-0.3,0.2-0.5l0,0c0-0.2,0-0.8,0.1-1
		l4.1,1.6c0,0.1-0.1,0.2-0.1,0.2c0,0.1-0.1,0.1-0.1,0.2c-0.1,0.1-0.1,0.2-0.2,0.3c-0.1,0.2-0.2,0.3-0.3,0.4
		C44,84.4,44.1,85,44.5,85.5z M43.3,65.3c1,2.4,1.3,5,0.8,7.8c-0.2,1.1-0.2,2.3-0.2,3.4v4.3l-0.4-0.1c-0.3-0.1-0.5-0.2-0.7-0.3
		c-0.2-0.1-0.4-0.1-0.7-0.2c-0.4-0.2-0.7-0.4-0.8-0.9c0-0.2,0-0.4-0.1-0.6c0-0.2,0-0.4,0-0.6c-0.1-1.3-0.3-2.7-0.5-4.1l0,0
		c-0.3-1.6-0.7-3.1-1.1-4.6c-0.1-0.5-0.2-1-0.4-1.5c-0.1-0.5-0.2-0.9-0.3-1.4c0-0.1-0.1-0.3-0.1-0.4c-0.2-0.8-0.4-1.7-0.4-2.7
		c0-0.3,0.2-0.8,0.3-1.2c0.1-0.2,0.1-0.3,0.2-0.5c0.6-1.2,1.1-2.2,1.6-3.1c0.1-0.2,0.3-0.5,0.4-0.7c0.1-0.2,0.2-0.3,0.3-0.4
		c0.4-0.7,0.5-0.8,0.8-0.8c0.1,0,0.3,0.1,0.5,0.1c0.1,0,0.1,0.1,0.2,0.1l0,0c0.1,0,0.2,0,0.3,0.1c0,0,0.1,0.1,0.2,0.1
		c1.4,0.4,2.8,0.9,3.7,2.1l-0.7,0.5l0,0c-0.2,0.2-0.5,0.4-0.8,0.5c-0.3,0.2-0.6,0.4-0.8,0.6C42.9,62.1,42.6,63.4,43.3,65.3z
		 M62.1,71.5c-0.2-0.2-0.3-0.3-0.7-0.9l-0.1-0.2c-0.2-0.3-0.5-0.9-0.9-1.7c-0.2-0.4-0.8-1.3-1.3-2.3c-0.7-1.2-1.4-2.5-1.7-2.9
		c-0.4-0.6-1.1-1.7-1.4-2.4c0.1-0.1,0.7-0.3,0.8-0.3c0.2-0.1,0.5-0.2,0.9-0.4c0.3-0.1,0.7-0.3,0.9-0.3c0.7-0.2,1.4-0.4,2-0.8
		c0.1-0.1,0.2-0.1,0.4-0.2c0,0.2,0.1,0.5,0.2,0.7c0.2,0.6,0.4,1.2,0.6,1.8c0.1,0.2,0.1,0.5,0.2,0.7c0.1,0.4,0.2,0.7,0.4,1
		c0.2,0.6,0.4,1.3,0.8,2.2c0.2,0.6,0.5,0.9,0.7,1.3c0.1,0.1,0.1,0.2,0.2,0.3c0.2,0.2,0.8,0.7,1.2,1.1c0.2,0.1,0.3,0.2,0.4,0.3
		c1,1,1.4,2.2,1.7,3.4c0.2,0.7,0.2,1,0.2,1.1c0,0.3,0.1,0.4,0.5,1.6c0.1,0.3,0.5,1.3,0.6,1.5c0,0.1,0.2,0.6,0.4,1.1
		c0.2,0.4,0.3,0.9,0.4,1c-0.1,0.1-0.3,0.2-0.5,0.3c-0.2,0.1-0.3,0.2-0.4,0.2c-0.5,0.2-1,0.4-1.5,0.7c0,0-0.1,0-0.2,0
		c-0.1,0-0.2,0.1-0.2,0.1c-0.3-0.7-3-6.4-4.1-7.6C62.4,71.7,62.2,71.6,62.1,71.5z M54.5,60.1c0,0,0-0.1-0.1-0.1v-0.1l0,0
		c-0.3-0.7-0.5-1.4-0.7-2.1c0-0.1-0.1-0.2-0.1-0.4c-0.2-0.5-0.3-1.1-0.6-1.5c-0.1-0.4-0.3-1-1.1-1c-0.5,0-0.8,0.3-1.1,0.9
		c-0.3,0.8-0.7,1.6-1.5,2.6c-0.1,0.2-0.3,0.3-0.6,0.3c-0.2,0-0.4-0.1-0.5-0.3c-1.6-1.8-3.8-2.4-6.1-2.9l-0.1,0
		c-0.5-0.1-0.5-0.2-0.5-0.2v0l0,0c-0.1-0.1,0.1-0.4,0.2-0.5c0.3-0.5,0.6-1,0.9-1.5c0.5-0.8,0.9-1.6,1.4-2.3c1.1-1.8,2.2-3.6,2.7-5.6
		c0,0,0-0.1,0-0.1c0,0,0-0.1,0-0.1c3.9,0.2,8.1,0.2,12.3-1.3c0,0,0.1,0.1,0.1,0.1c0.1,0.2,0.2,0.4,0.2,0.5v0.2l0,0
		c0.5,1.9,1.1,4.4,1,7c0,0.6,0,1.3,0.1,1.9c0,0.1,0,0.2,0.1,0.4c0,0.1,0,0.2,0,0.3c0,0.2,0.1,0.4,0.1,0.7c0.1,0.2,0.1,0.5,0.2,0.8
		c0.2,0.7,0.4,1.4,0.4,1.8c0,0.1-0.2,0.4-0.6,0.6c-0.6,0.3-1.2,0.5-2,0.7c-1.3,0.4-2.4,0.8-3.3,1.4c-0.4,0.3-0.7,0.3-0.8,0.3
		C54.6,60.3,54.5,60.3,54.5,60.1z M40.1,42.6c-0.2-0.4-1.4-2.5-1.6-3.2c-0.1-0.2-0.2-0.5-0.2-0.5l0,0l0,0c0-0.1,0.2-0.1,0.4-0.2
		c0.1,0,0.1,0,0.2,0c0.6-0.2,2.2-1,3.6-1.8c0.9-0.5,3.5-1.8,3.5-1.9c0.1-0.1,0.1-0.7,0-0.9c-0.4-2-0.3-1.9-0.6-3.5v-1.6l0-2
		c0-0.3,0-0.6,0-0.9c0-0.5,0-0.9,0.1-1.3c0.8-2.3,2.6-3.8,5.1-4.3c0.4-0.1,0.9,0,1.4,0.1c0.1,0,0.2,0,0.3,0.1c0.1,0,0.1,0,0.2,0
		c0.1,0,0.1,0.1,0.1,0.1l0,0c0.1,0.2,0.1,0.3,0.2,0.5c0.2,0.6,0.4,1.2,0.6,1.8c0.1,0.4,0.3,0.8,0.4,1.2c0.8,2.1,1.5,4.2,2,6.4
		c0.3,1.6,0.6,3.3,0.9,4.9c0.3,1.6,0.6,3.3,0.9,4.9c0,0.1,0,0.2,0,0.3c0,0.1,0.1,0.3,0.1,0.5c0.1,0.9,0.1,0.9-0.8,1.1
		c-1.9,0.5-3.8,0.8-5.6,0.8h-4.2c-0.1,0-0.2,0-0.3,0c0,0,0-0.1,0-0.2c0-0.1,0-0.2,0-0.2c0-0.2,0-0.3,0-0.3c0-0.1,0-0.2,0-0.4v-0.8
		c1.7-0.9,2.8-1.3,3.6-1.6c1.1-0.5,1.6-0.6,1.8-1.5c0.4-1.9-0.2-3.9-0.4-6.5c-0.1-0.8-0.3-3.9-0.3-4.1v-0.1c0-0.2,0-0.5-0.2-0.7
		c-0.1-0.1-0.4-0.3-0.7-0.2c-0.3,0-0.6,0.2-0.7,0.6l0,0c0,0.7,0.2,1.7,0.3,2.4c0.1,0.9,0.2,1.8,0.2,2.7c0.1,1.5,0.4,2.8,0.5,4.7
		c0,0.5-0.1,1-0.5,1.2c-0.4,0.2-0.7,0.4-1.9,0.9c-1.3,0.5-1.8,0.7-3,1.1c-1,0.4-4.9,2.7-5.1,2.8C40.3,42.9,40.2,42.9,40.1,42.6z
		 M49.9,12.2L49.9,12.2c0,0.2-0.1,0.3-0.1,0.4c0,0.1,0,0.2,0,0.2h0l0,0c0,0-0.1,0.1-0.6-0.1c-2.4-0.4-4.6-0.6-6.7-0.6
		c-0.2,0-0.3,0-0.5,0c-0.1,0-0.2,0-0.3,0l-0.4,0c0,0,0,0-0.1,0c0,0-0.1,0-0.1,0l0,0l-0.1,0c-0.1,0-0.1,0-0.1,0
		c-0.1-0.2,0.4-1.1,1.2-2.1l0,0c0.8-1.3,1.3-1.8,2.3-2c0.1,0,0.3,0,0.5,0c0.1,0,0.2,0,0.3,0c0.2,0,0.3,0,0.4,0c0.9,0,2,0.2,2.6,0.6
		c1,0.9,1.4,1.7,1.7,3.3c0,0,0,0.1,0,0.1C49.9,12,49.9,12,49.9,12.2z M41,15.4c0.2-0.5,0.4-1.1,0.6-1.7l0,0c0,0,0.1-0.1,0.1-0.1
		c0,0,0.1-0.1,0.1-0.1h1.5v0c1.5,0.1,3.1,0.3,4.7,0.5l1.4,0.2c-0.5,1.1,0.1,1.9,0.6,2.6l0.1,0.1l0.2,0.2c-2,0.1-3.5,0.8-4.7,2
		c0,0,0,0,0-0.1c0-0.1-0.1-0.1-0.1-0.2c-0.4-0.6-0.7-0.8-1.3-0.8c-0.2,0-0.5,0.1-0.8,0.2c-0.6,0.2-0.9,0.3-1,0.2
		c-0.1-0.1-0.1-0.2-0.2-0.5c0-0.1-0.1-0.3-0.1-0.5c-0.1-0.4-0.3-0.7-0.5-1l-0.3-0.6l0,0C41,15.7,41,15.5,41,15.4
		C41,15.4,41,15.4,41,15.4z M45.9,21.5c0-0.5,0.1-0.8,0.6-1.2l0.3-0.2c0.6-0.5,1.1-0.9,1.9-1.2c0.5-0.2,1.1-0.3,1.7-0.3
		c0.3,0,0.7,0,1,0.1l0.1,0c0.4,0.1,0.5,0.1,0.6,0.4C49.8,19,47.9,19.7,45.9,21.5z M58.5,35.6c-0.3-1-0.6-2.4-0.8-3.8
		c-0.3-2.3-0.9-4.2-1.5-6.2c-0.6-1.6-1.2-3.3-1.8-5l-0.5-1.3c1.7-0.9,3.6-1.2,5.7-0.8l0,0c0.5,0.1,1.1,0.3,1.5,0.4
		c0.2,0.1,0.3,0.1,0.5,0.2c1.4,0.5,2.3,1.5,2.9,3.2c0.2,0.7,0.6,1.6,1,2.5l0.1,0.3c0.7,1.5,1.1,3.1,1.5,4.7c0.2,0.7,0.3,1.5,0.4,2.3
		c0.1,0.6,0.2,1.3,0.3,1.9l0,0.1c0.1,0.2,0.1,0.4,0.2,0.6c0.1,0.2,0.1,0.4,0.2,0.6c0.2,0.4,0.3,0.7,0.4,1.1c0.4,1.7-0.1,3.4-1.4,5
		c-0.7,0.8-1.7,1.5-2.7,2.2l-0.3,0.2c-0.2,0.1-0.6,0-0.9-0.2c-0.2-0.1-0.5-0.3-0.7-0.4c-0.1-0.1-0.2-0.2-0.3-0.2l-0.1-0.1
		c-0.4-0.3-0.8-0.6-1.3-0.8c-1.1-0.6-1.4-1.4-1.7-2.8c-0.1-0.6-0.2-1.2-0.4-1.8C58.7,36.8,58.6,36.2,58.5,35.6z M33,40.7
		C33,40.7,33,40.7,33,40.7c0-0.1,0-0.1,0-0.2l0.1,0c0,0,0,0,0,0c0.1,0,0.6,0,0.8,0.1c1.1,0.3,2.3,0.6,3.5,0l0.3,0.5
		c0.1,0.2,0.3,0.4,0.2,0.8c-0.1,0.1-0.2,0.1-0.5,0.3c-0.1,0-0.2,0.1-0.3,0.1c-0.2,0.1-0.4,0.2-0.6,0.3c-0.6,0.2-0.9,0.4-1.4,0.7
		c-0.3,0.2-0.6,0.2-0.9-0.1C33.4,42.5,33.2,41.7,33,40.7L33,40.7L33,40.7z"/>
</g>
</svg>
