<?xml version="1.0" encoding="utf-8"?>
<!-- Generator: Adobe Illustrator 20.0.0, SVG Export Plug-In . SVG Version: 6.00 Build 0)  -->
<svg version="1.1" xmlns="http://www.w3.org/2000/svg" xmlns:xlink="http://www.w3.org/1999/xlink" x="0px" y="0px"
	 viewBox="0 0 100 100" style="enable-background:new 0 0 100 100;" xml:space="preserve">
<style type="text/css">
	.st0{fill:#231F20;}
	.st1{fill:#393939;}
	.st2{fill:#003366;}
	.st3{opacity:0.9;fill:#2E3191;}
	.st4{fill:#2E3191;}
	.st5{fill:#292929;}
	.st6{fill:none;}
	.st7{fill:#1C3664;}
</style>
<g id="Layer_2">
</g>
<g id="Layer_1">
	<path class="st7" d="M57.5,61.9c-0.7,0.8-1.3,0.7-1.8,0.2c-0.9-0.9-1.7-2-2.7-2.9c-1.9-1.8-3.8-3.6-5.8-5.4
		c-2.3,1.3-3.2,3.2-4.5,4.8c-1.1,1.4-1.6,3.4-4.8,4c2.7-3.8,5-7,7.4-10.4c-3.4-3-7.2-5.4-10.3-8.4c0.7-1.1,1.4-0.7,1.9-0.4
		c1.5,1.1,2.9,2.2,4.3,3.3c1.7,1.3,3.2,2.8,5.5,3.7c1.4-1.5,2.7-3,4-4.4c1.3-1.3,2.2-3.1,4.2-4.3c0,2.4,0,2.4-2.8,5.5
		c-1.3,1.4-2.8,2.7-3.8,4.6C51.3,55.4,55.3,58,57.5,61.9z"/>
	<path class="st7" d="M81.7,53.1c-0.2-5.5-0.5-11-0.7-16.4c-0.1-1.5-0.1-3.1,0-4.6c0.1-2.1-0.9-3.6-2.4-4.7
		c-1.8-1.3-3.6-2.8-5.7-3.5c-1.9-0.7-3.4-1.7-4.9-2.8c-1.8-1.3-3.5-2.1-5.9,0.5c-0.4,0.4-0.8,0.7-1.2,1.1c-0.6-0.1-1.2-0.1-1.7-0.4
		c-0.8-0.5-1.6-1.1-2.4-1.7c-1.3-1.1-2.7-1.3-4.3-1.1c-1.5,0.2-2,1.4-2.5,2.5c-0.1,0.2-0.4,0.4-0.6,0.6c-1.7,0.5-3.1,0.3-4.6-1
		c-2.6-2.2-4.8-1.9-6.8,0.8c-1.1,1.5-2.2,1.4-4,1.2c-0.6-1.7-2-2.7-4-3c-2.2-0.3-3.4,1-4.3,3c-2.2,0.3-4.1,0.7-6.1,0.9
		c-1.5,0.1-2.4,1-2.7,2.3c-0.3,1.6-0.6,3.3-0.6,5c-0.1,5.2,0,10.4,0,15.6c0,6.3,0,12.7,0,19c0,3,0.5,5.8,1.9,8.5
		c0.8,1.4,1.3,2.3,2.1,4.5c1.6,2.6,2.1,2.6,3.1,3.9c0.5,0.6,1.5,0.8,2.3,0.9c0.7,0.1,1.4-0.1,2.1-0.2c4.3-0.6,8.6-1.2,13-0.7
		c1.8,0.2,3.7,0,5.5,0c4.2-0.1,8.4-0.4,12.6-0.5c3.5-0.1,7,0.1,10.6-0.1c2-0.1,3.9-0.3,5.8-0.8c4.2-1,5.8-3.1,6.2-7.4
		c0.1-1.1,0-2.3,0-3.4c0-3.8,0.1-7.6,0.1-11.4C81.7,57.6,81.8,55.4,81.7,53.1z M80.2,42.3c0.4,7.7,0.6,17.9,0.3,21.7
		c-0.1,1.5,0,3.1,0,4.6c0,2.5,0.1,5-0.5,7.5c-0.5,2.2-1.8,3.8-4,4.5c-0.7,0.2-1.3,0.5-2,0.6c-2.8,0.5-5.5,1.1-8.3,0.7l-3.1-0.1
		C57.9,82,48,82,43.3,82.2C38.5,82.3,33.7,82,29,83c-1.2,0.2-2.5,0.2-3.8,0.1c-0.9,0-1.6-0.5-2.4-2c11.5-1.5,28.1-0.8,40-0.6
		l3.2-0.1c3.1-0.6,6.2-1.2,9.3-1.7c1.9-0.3,2.8-1.3,3.2-3.3c0.6-3.5,0.9-7,0.8-10.5c-0.1-3.9,0.1-8.8,0.2-12.9
		c0.1-2.5,0.1-7.2,0.1-11.2l-0.1-7.4c0-0.1,0-0.2,0-0.4c0-0.5,0-1,0-1.5c0.1,0,0.2,0,0.2,0c0,0.6,0.5,1.6,0.5,2.2L80.2,42.3z
		 M78.8,48.8l0,5.5c-0.1,3.1-0.7,8.3-0.5,10.1c0.3,3.8-0.5,7.6-1.1,11.3c-0.1,0.9-0.7,1.7-1.6,1.8c-5.6,1-11.2,2.6-17.1,1.9
		c-0.1,0-8.1-0.2-8.1-0.2c-2.1,0-4.6-0.1-6.8-0.1c-3.5,0-6.8-0.5-10.3,0.1c-3.4,0.7-7,0.3-10.5,0.3c-0.5,0-0.8,0.1-1.4-0.6
		c0.1-0.3-0.3-0.6-0.3-0.8c9.5,0,19.4,0,28.9,0l2.6,0.1c1.8-0.5,6.7,0,7.4-0.1c3.8-0.3,7.6-0.6,11.4-0.9c3.6-0.3,4.7-1.3,5.4-4.7
		c0.9-4.4,0.7-9,1-13.4c0-0.3,0.2-3.6,0.3-5.7l0.2-4.1c-0.1-1.1,0-2.2,0-3.3c0-2.7-0.1-5.4-0.1-8.1c0.2,0.4,0.6,0.9,0.6,1.3
		c0,2.7,0,5.3,0,8L78.8,48.8z M77,28.2c0.2,0.1,0.6,0.1,0.6,0.3c0.7,3,0.8,5.9,0.5,9c-0.2-0.3-0.5-0.6-0.5-1c-0.3-2.5-0.6-5-0.9-7.5
		C76.7,28.7,76.9,28.4,77,28.2z M76.6,49.7c0,0.5,0,1,0,1.4c0,1.8,0.1,3.4,0.1,4.9c0,2.2-0.2,4.5-0.2,6.7c0,0.4,0.1,0.9,0,1.3
		c-0.6,2.6-0.7,5.3-0.8,7.9c-0.1,2.4-1.7,4.1-4,4c-3.4-0.2-6.7,0.8-10,0.9c-3.5,0.1-7,0.2-10.5,0.2c-4.4,0-8.7,0-13.1-0.1l-0.9,0.1
		c-1.8,0.1-13.4,0.2-15.2,0.3c-0.4,0-1.5-1.5-0.8-1.7c1.7-0.1,4.8,0,5.7,0c1.2,0,6.1,0.4,7.3,0.5l8.2-0.1c6.5,0.2,12.9,0.2,19.4-0.5
		c1.4-0.1,2.8,0,4.2,0c1.3,0,2.5,0.1,3.8-0.1c3.2-0.5,4.9-2.4,5.3-5.7c0.1-0.6,0.2-1.1,0.1-1.7c-0.5-5.5,0.7-10.8,0.9-16.2l0-10.6
		c-0.1-0.3-0.1-0.7-0.1-1c-0.2-2.2-0.1-4.5-0.3-6.7c-0.2-2-0.8-4.1-1.2-6.1c0.3,0,0.6-0.1,0.9-0.1c0.6,2.7,1.3,5.4,1.3,8.2
		c0,2,0.8,4.1,0.8,6.1c0,0.7-0.1,1.4-0.3,2.1L76.6,49.7z M62.6,23.2c0.5-2,3.3-2.6,5-0.8c-2.8,0.2-4.3,1.2-2.6,5.4
		c0.2,0.4-0.2,0.9-0.7,1.1c-0.3,0.1-0.9-0.2-1-0.5C62.4,26.4,62.1,25.1,62.6,23.2z M63.1,29.6c1.2,0.5,2.9,0.2,3.2-0.9
		c0-0.2-0.3-1.3,0.8-0.9c0.6,0.1,0.9,1.3,0.6,1.8c-0.7,1.3-2.4,1.9-3.8,1.8c-2.1,0-4.2-2.1-2.9-3.4C61.9,27.1,62.1,29.4,63.1,29.6z
		 M51.7,23.2c0.5-2,3.3-2.6,5-0.8c-2.8,0.2-4.3,1.2-2.6,5.4c0.2,0.4-0.2,0.9-0.7,1.1c-0.3,0.1-0.9-0.2-1-0.5
		C51.6,26.4,51.2,25.1,51.7,23.2z M52.2,29.6c1.2,0.5,2.9,0.2,3.2-0.9c0-0.2-0.3-1.3,0.8-0.9c0.6,0.1,0.9,1.3,0.6,1.8
		c-0.7,1.3-2.4,1.9-3.8,1.8c-2.1,0-4.2-2.1-2.9-3.4C51,27.1,51.2,29.4,52.2,29.6z M39.2,23.5c0.5-2,3.3-2.6,5-0.8
		c-2.8,0.2-4.3,1.2-2.6,5.4c0.2,0.4-0.2,0.9-0.7,1.1c-0.3,0.1-0.9-0.2-1-0.5C39.1,26.7,38.7,25.3,39.2,23.5z M39.7,29.9
		c1.2,0.5,2.9,0.2,3.2-0.9c0-0.2-0.3-1.3,0.8-0.9c0.6,0.1,0.9,1.3,0.6,1.8c-0.7,1.3-2.4,1.9-3.8,1.8c-2.1,0-4.2-2.1-2.9-3.4
		C38.5,27.3,38.7,29.7,39.7,29.9z M27.2,24c0.5-2,3.3-2.6,5-0.8c-2.8,0.2-4.3,1.2-2.6,5.4c0.2,0.4-0.2,0.9-0.7,1.1
		c-0.3,0.1-0.9-0.2-1-0.5C27.1,27.2,26.8,25.9,27.2,24z M27.7,30.4c1.2,0.5,2.9,0.2,3.2-0.9c0-0.2-0.3-1.3,0.8-0.9
		c0.6,0.1,0.9,1.3,0.6,1.8c-0.7,1.3-2.4,1.9-3.8,1.8c-2.1,0-4.2-2.1-2.9-3.4C26.5,27.9,26.7,30.2,27.7,30.4z M18,68.9
		c-0.2-1.5-0.4-3.1-0.4-4.6c0-10.8,0.1-21.7,0.2-32.5c0-1.4,0.2-2.8,0.5-4.2c0.2-1.2,0.9-2,2.2-2.2c1.5-0.2,3.6-0.5,4.9-0.7
		c0,1.1,0.5,1.9,0,2.9c-0.4,0.9-1.4,0.5-1.2,2.5c0.7,3.3,4.2,3.9,7.1,2.6c2.2-1,2.7-3,1-4.7c-0.5-0.5-1.2-0.7-1.7-1.1
		c-0.3-0.2-0.5-0.8-0.4-1.1c0.1-0.3,0.5-0.6,0.8-0.8c0.2-0.1,0.5-0.1,0.8-0.1c1.7,0,2.8,0.1,3.9,0c1.1-0.1,2-0.6,2-0.6
		c0,1.1,0.2,1.9-0.3,2.9C37,28,36,27.6,36.2,29.6c0.7,3.3,4.2,3.9,7.1,2.6c2.2-1,2.7-3,1-4.7c-0.5-0.5-1.2-0.7-1.7-1.1
		c-0.3-0.2-0.5-0.8-0.4-1.1c0.1-0.3,0.3-0.7,1.5-0.8c0,0,3.5-0.3,4.5-0.4c0.9-0.2,1.8,0,1.8,0c0.5,0.1,0.5,1.9,0,2.9
		c-0.4,0.9-1.4,0.5-1.2,2.5c0.7,3.3,4.2,3.9,7.1,2.6c2.2-1,2.7-3,1-4.7c-0.5-0.5-1.2-0.7-1.7-1.1c-0.3-0.2-0.5-0.8-0.4-1.1
		c0.1-0.3,0.4-0.6,1.2-0.8l4.6-0.3c0.6,0,0.8,2,0.3,3c-0.4,0.9-1.4,0.5-1.2,2.5c0.7,3.3,4.2,3.9,7.1,2.6c2.2-1,2.7-3,1-4.7
		c-0.5-0.5-1.2-0.7-1.7-1.1c-0.3-0.2-0.5-0.8-0.4-1.1c0.1-0.3,0.5-0.6,0.8-0.8c0,0,2.7-0.6,5.4,0.5c1,0.4,1.8,5.7,2.1,8.6
		c0.5,5.6,0.8,11.2,0.8,16.9c0,3.4-0.6,6.7-0.8,10.1c-0.1,2-0.2,3.9-0.2,5.9c0,1.1,0.1,2.3-0.1,3.4c-0.5,3.3-2.5,5.4-5.7,4.8
		c-4.4-0.8-8.7,0.3-13,0.2c-6.9-0.2-13.8,0-20.7,0c-3.2,0-6.5,0.2-9.7,0.2C19.4,74.6,18.5,73.8,18,68.9z"/>
</g>
</svg>
