<svg id="Layer_1" data-name="Layer 1" xmlns="http://www.w3.org/2000/svg" viewBox="0 0 100 100"><defs><style>.cls-1{fill:#036;}</style></defs><title>Ikoner</title><path class="cls-1" d="M79.67,84.77c-0.34-1.58-.82-3.15-1-4.75-0.58-5-1-10-1.56-15-0.19-1.75-.57-3.48-0.7-5.23A18.42,18.42,0,0,0,70,47a56.64,56.64,0,0,0-5-3.63c-0.85-.6-1.72-1.17-2.59-1.76A0.73,0.73,0,0,1,63,41.53c2.27,0.67,4.52,1.4,6.8,2,1.29,0.34,1.64,0,1.79-1.33a1.24,1.24,0,0,1,.11-0.36c0.67-1.48,1.31-3,2-4.44,0.49-1,.39-1.37-0.68-1.66-2-.55-3.94-1.07-5.91-1.6l-2.73-.72-0.06-.23,1.76-.8c2.18-1,4.55-1.58,6.42-3.19,0.94-.81,1-1,0.14-1.93-1.26-1.32-2.52-2.64-3.84-3.89A1.89,1.89,0,0,0,67.55,23,8.37,8.37,0,0,0,63,25.09a56,56,0,0,0-4.35,4.19,3.68,3.68,0,0,0-.91-0.66c-0.78-.29-1.61-0.43-2.39-0.71a1,1,0,0,1-.6-0.59,10,10,0,0,1,2.3-5c1-1,1.87-2.19,2.77-3.32a0.74,0.74,0,0,0-.22-1.28c-1.16-.45-2.37-0.77-3.55-1.16l-4.76-1.55c0.56-.74,1-1.37,1.48-2s0.38-1.1-.31-1.39a20,20,0,0,0-6.74-1.22c-4.26-.25-8.14,1-12,2.5a1.12,1.12,0,0,0-.65.53,1.23,1.23,0,0,0,.12.95,15.18,15.18,0,0,0,1.34,1.48,14.29,14.29,0,0,0-5.88,3.37c-0.38.4-.73,0.82-0.15,1.28A22.77,22.77,0,0,1,34.36,28a1.27,1.27,0,0,1-.06,1.11,3.66,3.66,0,0,0-.36,4.14,1.07,1.07,0,0,1,.08.8,3.52,3.52,0,0,0,.86,4.35,1.1,1.1,0,0,1,.25,1,25.4,25.4,0,0,1-2.34,4.12,43.81,43.81,0,0,1-3.39,3.34,35.63,35.63,0,0,0-3.2,3.57,51.12,51.12,0,0,0-3,4.7A15.1,15.1,0,0,0,21,63.69c0.17,2.81.43,5.62,0.75,8.42,0.49,4.23,1.06,8.46,1.61,12.68A1.53,1.53,0,0,0,25,86.31c0.79,0.09,1.57.28,2.36,0.39q1.65,0.22,3.3.38c1.62,0.15,3.25.26,4.87,0.41,1.84,0.17,3.68.43,5.53,0.51,3.17,0.13,6.34.17,9.51,0.22,3.68,0.07,7.38.32,11,.11,4.25-.24,8.48-0.83,12.71-1.37,1.58-.2,3.12-0.68,4.67-1A0.84,0.84,0,0,0,79.67,84.77ZM59.9,35.08a0.74,0.74,0,0,1,.35-0.6c1,0,2,.08,2.85.13l-1.82,4.75-1.74-.81A3.84,3.84,0,0,0,59.9,35.08Zm8.79,1.23a0.69,0.69,0,0,1,.53-0.15c1,0.21,2,.45,3.14.7-0.78,1.78-1.43,3.37-2.18,4.91a1.22,1.22,0,0,1-1.07.37c-0.92-.2-1.81-0.55-2.8-0.87,0.19-.95.41-1.69,0.48-2.45C66.91,37.56,67.93,37,68.7,36.31ZM65,35l2.5,0.67c-1.78,1.36-2.2,3.1-2.18,5.2L62.64,40a18.89,18.89,0,0,1,.81-2.73A16.31,16.31,0,0,1,65,35Zm1.14-10c0.56-.33,1.18-1,1.9-0.45,1.26,1,2.69,2,3.48,3.64-0.55.36-1.09,0.75-1.67,1.06a0.81,0.81,0,0,1-.7,0c-1.2-.82-2.5-1.58-3-3.08A1.59,1.59,0,0,1,66.11,25ZM62.3,27.53C63,27,63.65,26.47,64.24,26l3.37,4.1c-0.68.19-1.2,0.87-2.38,0.32a11.92,11.92,0,0,1-2.93-1.87A0.59,0.59,0,0,1,62.3,27.53Zm-1.66,2a1.2,1.2,0,0,1,1,.17c0.83,0.56,1.61,1.2,2.6,2l-5,1.69A4.8,4.8,0,0,1,60.64,29.51Zm-2,6.39a1.76,1.76,0,0,1-1.06,2.33c-0.74.3-1.5,0.51-2.34,0.8l-0.62-3a21.74,21.74,0,0,1,2.94-1A1.53,1.53,0,0,1,58.63,35.9Zm-1.23-5.69c0.89,0.54.67,2.68-.28,3.31a9.32,9.32,0,0,1-1.49.68l-1.92-4.7A5.91,5.91,0,0,1,57.41,30.21Zm-6.14,4.51-1.21-5.28c0.5,0,1.12,0,1.74,0a0.54,0.54,0,0,1,.41.18c0.6,1.32,1.17,2.65,1.74,4,0.13,0.31.23,0.64,0.4,1.11H51.27Zm2.62,4.49a0.81,0.81,0,0,1-.16.07,4.15,4.15,0,0,1-2,.1c-0.38-.2-0.41-1.1-0.58-1.69-0.11-.39-0.2-0.8-0.3-1.19C52.76,35.59,53.44,36.2,53.89,39.21ZM31.92,22a8.1,8.1,0,0,0-1.35-1.35c-0.53-.44-0.55-0.91,0-1.23,1.23-.73,2.51-1.39,3.8-2a0.94,0.94,0,0,1,.82.39c1.17,2.27,2.29,4.57,3.42,6.87a2,2,0,0,0,.32.68,3.64,3.64,0,0,0,.9.39,1.92,1.92,0,0,0,.35-0.94c-0.86-1.92-1.78-3.82-2.72-5.71-0.8-1.62-1.65-3.22-2.48-4.82,3.52-2.59,13.7-3.18,16.14-1.38-0.66,1.3-1.41,2.56-1.95,3.91-0.76,1.89-1.4,3.84-2,5.79A4.8,4.8,0,0,0,47,24.28a2.45,2.45,0,0,0,.47.88,2.36,2.36,0,0,0,.93-0.78c-0.07-2.47,1.41-4.51,1.81-6.84a0.93,0.93,0,0,1,1.41-.87c1,0.38,2.05.72,3.09,1.06,0.88,0.28,1.78.52,2.65,0.81a5.07,5.07,0,0,1,.84.49,18.39,18.39,0,0,1-1.58,2,11.18,11.18,0,0,0-3.08,6.05,0.86,0.86,0,0,1-1.05.79c-2.39,0-4.79.08-7.18,0-3-.06-6-0.19-9-0.36a1.74,1.74,0,0,1-1-.78C34.16,25.19,33.08,23.57,31.92,22ZM50,39a0.7,0.7,0,0,1,0,.36,1.93,1.93,0,0,1-.91.28c-0.64-.09-1.66-0.14-1.82-0.51a10.67,10.67,0,0,1-.46-2.85C49.51,35.86,50,37.11,50,39Zm-3.4-9A0.58,0.58,0,0,1,47,29.52a2.12,2.12,0,0,1,1.33.17,6.84,6.84,0,0,1,1.45,4.64,0.76,0.76,0,0,1-.55.46c-0.75.06-1.51,0-2.15,0C46.92,33.05,46.76,31.5,46.64,29.95Zm-3.18,5.81a1.66,1.66,0,0,1,2,.9,10.6,10.6,0,0,1,.46,1.75c0.08,0.57-.11,1-0.86.82l-0.28-.06A2.54,2.54,0,0,1,43.47,39a8.76,8.76,0,0,1-.74-2.09A2.64,2.64,0,0,1,43.46,35.76Zm-0.79-5.27a1,1,0,0,1,1.12-1.14c0.74,0.11,1.71-.14,1.68,1.25a31.63,31.63,0,0,0,.42,4l-3.1-.55C42.75,32.91,42.64,31.7,42.68,30.49Zm-0.9,3.35a20.71,20.71,0,0,0-2.13-.15,1.09,1.09,0,0,1-1.2-1.13c-0.37-2.06,1-3.57,3-3.12C41.56,30.84,40.67,32.3,41.77,33.84Zm-2.46,1.69c0.75-.66,1.55-0.28,2.24-0.12l0.34,3.45a12.3,12.3,0,0,1-2.72-.72C38.7,37.9,38.9,35.89,39.31,35.53Zm-1.72-6.3c-0.18,1.22-.35,2.43-0.56,3.63a1,1,0,0,1-1.53.23c-0.66-.59-0.69-2.08-0.06-3.2C35.89,29.08,36.5,28.91,37.59,29.23ZM35,36.11c-0.13-.58-0.07-1.13.73-1.15s1.43,0,2.06,0L37.6,38.06A2.83,2.83,0,0,1,35,36.11ZM77.27,84.78c-1.6.32-3.21,0.64-4.83,0.84-4,.49-8.07,1.12-12.13,1.29-3.6.16-7.23-.24-10.84-0.34-3-.08-6,0-9-0.12-1.4,0-2.8-.31-4.21-0.41-1.91-.13-3.83-0.15-5.74-0.32-1.14-.1-2.25-0.5-3.39-0.59-1.92-.16-2.6-1.25-2.74-3-0.17-2.1-.54-4.19-0.76-6.29-0.35-3.26-.6-6.54-1-9.8a17.12,17.12,0,0,1,.45-7,22.46,22.46,0,0,1,2.29-4.77,40,40,0,0,1,7.83-9.15,13.9,13.9,0,0,0,2.12-2.71c0.6-.93,1-2,1.56-3a55.92,55.92,0,0,1,6.74.85,28.26,28.26,0,0,0,10.89.19c1.07-.15,2.09-0.59,3.16-0.8a1.38,1.38,0,0,1,1.14.27c1.75,2.32,4.18,3.79,6.59,5.23a22.35,22.35,0,0,1,7.24,6.9A17.9,17.9,0,0,1,75.09,60c0.46,3.65.9,7.31,1.3,11,0.2,1.82.23,3.65,0.44,5.46s0.57,3.53.84,5.31a15.4,15.4,0,0,1,.21,2.38A1,1,0,0,1,77.27,84.78Z"/><path class="cls-1" d="M60.74,63.69a10.42,10.42,0,0,0-3-2.4,28.83,28.83,0,0,0-4-1.59c-0.68-.25-1.13-0.55-0.86-1.4a3.94,3.94,0,0,0,0-1.15c0-1,0-2,0-3a4.94,4.94,0,0,1,1.13.15c1.1,0.44,2.2.88,3.26,1.41a0.76,0.76,0,0,0,1.22-.37c0.5-.95,1.06-1.86,1.69-3a16.66,16.66,0,0,0-1.08-1.28,11.52,11.52,0,0,0-5.52-2.73c-1-.26-1.48-0.66-1.24-1.78a1.65,1.65,0,0,0-1.6-1.76q-1.91.23-3.8,0.55c-0.9.15-1,.5-0.65,1.35l0.54,1.17a13.69,13.69,0,0,0-2.81.8,7.56,7.56,0,0,0-4.07,5.17,8.51,8.51,0,0,0,0,3.86c0.9,3.16,3.24,5.09,6.17,6.4a1.25,1.25,0,0,1,.62.85c0.15,1.3.19,2.62,0.29,3.93,0.08,1-.27,1.38-1.2.87a9.24,9.24,0,0,1-2.33-1.91,1.16,1.16,0,0,0-1.8-.31q-1.4,1.09-2.74,2.26c-1.26,1.08-1.23,1.53-.05,2.71a14.87,14.87,0,0,0,7,3.78,1.64,1.64,0,0,1,1.47,1.9c0,1.24.28,1.53,1.53,1.54a23.21,23.21,0,0,0,2.66-.27c2.2-.23,2.2-0.23,1.77-2.33-0.14-.68,0-1.08.84-1.11a6.43,6.43,0,0,0,2.06-.39,10.89,10.89,0,0,0,5.52-4.34,6,6,0,0,0,1.2-4C62.68,65.7,61.59,64.74,60.74,63.69Zm0.62,5c-0.6,2.84-4.91,6.49-7.77,6.14A1.37,1.37,0,0,0,52,76.41c0,0.51.07,1,.11,1.62l-2.37.44c-0.75.14-1.3-.16-1.21-0.92,0.23-1.85-.8-2.16-2.34-2.6a30,30,0,0,1-5.58-2.68A4.73,4.73,0,0,1,39.58,71c0.45-.42.82-0.8,1.22-1.14,1.38-1.17,1.42-1.2,2.76,0a5.93,5.93,0,0,0,3.32,1.36c1.21,0.15,1.59-.36,1.5-1.55a53.93,53.93,0,0,1-.21-5.46,0.86,0.86,0,0,0-.72-1.09,9,9,0,0,1-4.84-3.07,6.44,6.44,0,0,1-.31-8,5.86,5.86,0,0,1,5.24-2.78c0.95,0,1.17-.42.77-1.31-0.14-.32-0.28-0.65-0.42-1,0-.11-0.08-0.23-0.17-0.53a23.68,23.68,0,0,1,2.56-.4,1,1,0,0,1,.65.7c0.12,0.75-.17,1.71.2,2.22s1.35,0.31,2,.52c1.92,0.58,3.89,1.1,5.33,2.81l-1.14,2a13.46,13.46,0,0,0-1.9-.75A34.62,34.62,0,0,0,51.84,53a0.6,0.6,0,0,0-.71.77c0.18,1.74.34,3.49,0.37,5.24a1.4,1.4,0,0,0,1,1.58c0.88,0.29,1.73.66,2.62,0.92A9.85,9.85,0,0,1,61,66.27,3.68,3.68,0,0,1,61.36,68.66Z"/><path class="cls-1" d="M54.69,64.52c-0.54-.19-1.11-0.3-1.67-0.44-1.6-.39-2,0-1.78,1.7s0.44,3.55.73,5.31a1.58,1.58,0,0,0,.72,1c2,1,5.1-1.17,5.08-3.43C58,66.3,56.59,65.17,54.69,64.52Zm1.73,5.06A3.27,3.27,0,0,1,53.12,71l-0.71-5.91c1.33,0.43,2.64.68,3.61,1.69A3,3,0,0,1,56.42,69.58Z"/><path class="cls-1" d="M47.84,52.58a0.87,0.87,0,0,0-1.14-.91c-1.32.19-3.17,2.38-3.07,3.74,0,2.12,1,3.25,3.36,3.71,1.27,0.25,1.5,0,1.36-1.22C48.17,56.12,48,54.35,47.84,52.58Zm-2.71,4c-0.52-1.19-.13-2.34,1.25-3.43,0.78,1.46.49,3,.68,4.58A1.56,1.56,0,0,1,45.13,56.56Z"/></svg>