<svg id="Layer_1" data-name="Layer 1" xmlns="http://www.w3.org/2000/svg" viewBox="0 0 100 100"><defs><style>.cls-1{fill:#036;}</style></defs><title>Ikoner</title><path class="cls-1" d="M72.87,38.63c0-.71-0.12-1.44,0-2.14a9.78,9.78,0,0,0-.65-5.15A20.08,20.08,0,0,0,70,27.73c-1.89-2.59-3.63-5.32-6.57-7s-6.14-3.17-9.74-2.89c-2.55.2-5.1,0.49-7.64,0.86a16.81,16.81,0,0,0-7.89,3.69c-0.79.61-1.6,1.2-2.33,1.86-1.48,1.34-3.07,2.58-3.89,4.49-0.5,1.17-1,2.34-1.51,3.51a16.74,16.74,0,0,0-1.1,9.09,22.25,22.25,0,0,0,1.9,6.79c0.72,1.46,1.1,3.09,1.84,4.54,1.41,2.75,3,5.39,4.46,8.14,1,2,2.19,4.05,2.28,6.4,0.07,1.7.67,3.42-.35,5.11a2,2,0,0,0,.32,2.38,1,1,0,0,1,.12,1.32,3.4,3.4,0,0,0,.8,4.1,3,3,0,0,1,.49,1.11,10.89,10.89,0,0,0,.63,1.89c0.63,1.1,1.83,1.08,2.9,1.16a1.47,1.47,0,0,1,1.4.9c0.31,0.68.62,1.37,1,2C48,88.9,49,89,50.95,88.53s2.9-2.22,3-4.57a11.41,11.41,0,0,0,1.42-.37c2.32-.92,3.3-1.4,2.83-3.73a0.64,0.64,0,0,1,.13-0.48A3.84,3.84,0,0,0,59,75.1a1.12,1.12,0,0,1,0-.84c1-2,.82-3.05-0.82-4.49a1.24,1.24,0,0,1-.41-0.94,18,18,0,0,1,.79-3.31,21.37,21.37,0,0,1,1.94-4.11c1.34-2.06,2.93-4,4.34-6,1.61-2.33,3.22-4.67,4.68-7.09A20.66,20.66,0,0,0,72.87,38.63ZM50.13,87.53c-1.4.16-2.2-.69-2.53-2.75l4.94-.6A2.89,2.89,0,0,1,50.13,87.53Zm6-5.72c-1.83.49-3.67,1-5.53,1.33a32.38,32.38,0,0,1-3.39.3c-0.94-.16-2.27-0.36-3.58-0.63a1.34,1.34,0,0,1-.78-0.57,1.18,1.18,0,0,1-.13-0.94A1.09,1.09,0,0,1,43.58,81c0.81,0,1.62.09,2.42,0.08,1.75,0,3.5,0,5.24-.16,1.48-.14,2.94-0.53,4.41-0.74a1.73,1.73,0,0,1,1.29.21A1,1,0,0,1,56.16,81.81Zm0.6-3.16a27.3,27.3,0,0,1-4.12.85c-2.26.26-4.54,0.37-7.13,0.57-0.82-.09-1.94-0.16-3-0.37A1.87,1.87,0,0,1,41,77.82c-0.1-1.3.31-1.5,1.58-1.41,2.64,0.18,5.31.26,8,.2a39.6,39.6,0,0,0,4.9-.67A8,8,0,0,0,57,75.58c0.65-.24.84,0.1,1,0.6A2,2,0,0,1,56.77,78.65Zm1.34-6.93a2.36,2.36,0,0,1-.35,1.76A6.39,6.39,0,0,1,55,74.71c-2.68.4-5.38,0.6-8,.87-1.66-.24-3.22-0.38-4.72-0.73a3.38,3.38,0,0,1-1.59-1.2,1.1,1.1,0,0,1,1-1.61c1.37-.09,2.74-0.12,4.11-0.2q4.25-.25,8.49-0.54c0.84-.06,1.67-0.2,2.51-0.24C57.37,71,58.05,71,58.11,71.72ZM49.38,43.86a1.08,1.08,0,0,1,1.27-.09,7.75,7.75,0,0,0,4.16.9c0.66-.09.72,0.28,0.6,0.81-0.53,2.35-1.1,4.69-1.56,7.05C53.16,56,52.4,59.5,52,63a57.91,57.91,0,0,0-.05,7L45,70.44c0.1-1.93.29-3.73,0.27-5.52a58.21,58.21,0,0,0-.85-10.52c-0.59-3.05-.92-6.16-1.38-9.34,0.68,0,1.26.05,1.83,0.11A6.14,6.14,0,0,0,49.38,43.86Zm0.95-5.8c0.8,1,.66,1.8-0.51,2.82C48.89,39.71,49.1,38.54,50.32,38.06ZM61.17,57.94a24,24,0,0,0-4.88,9.31A7.12,7.12,0,0,0,56.07,69a0.63,0.63,0,0,1-.7.76c-1.67.12-1.81,0-2-1.71a33.33,33.33,0,0,1,.24-8c0.58-4,1.72-7.86,2.67-11.77,0.24-1,.41-1.95.71-2.89a1.48,1.48,0,0,1,.79-0.92,7.27,7.27,0,0,0,4-2.54,3.52,3.52,0,0,0,.86-2.08c-0.07-1.93-1.44-2.45-3.17-1.57A7,7,0,0,0,56.1,42.7a1,1,0,0,1-.58.58A5.67,5.67,0,0,1,51,42.2a17.92,17.92,0,0,0,1.12-2c0.54-1.31-.33-2.27-1-3.21A1.38,1.38,0,0,0,50,36.66a3,3,0,0,0-2.21,3.14c0.17,0.72.53,1.39,0.74,2.1a1,1,0,0,1-.13.83,4.88,4.88,0,0,1-5.21.65,1.3,1.3,0,0,1-.46-0.74c-0.44-1.18-.77-2.4-1.29-3.54a2.51,2.51,0,0,0-2.27-1.43,1.41,1.41,0,0,0-1.43,1A3.72,3.72,0,0,0,38.87,43c0.71,0.53,1.54.9,2.28,1.41a1.34,1.34,0,0,1,.51.79c0.72,4.19,1.58,8.36,2,12.58a42.07,42.07,0,0,1,0,12,1.83,1.83,0,0,1-2.29.86A0.84,0.84,0,0,1,41.27,70a12.93,12.93,0,0,0-1.66-8.13c-1.55-2.88-3.22-5.69-4.69-8.61a43,43,0,0,1-3.5-8.74A25.83,25.83,0,0,1,30.79,37a11.3,11.3,0,0,1,.83-3.44c0.63-1.68,1.4-3.32,2.18-4.94a5.26,5.26,0,0,1,1.12-1.47,39.56,39.56,0,0,1,7.14-5.56A14.94,14.94,0,0,1,47.41,20a27.68,27.68,0,0,1,8.48-.53A20.21,20.21,0,0,1,62.68,22c2.81,1.53,4.29,4.21,6.23,6.52C71.78,32,71.67,35.94,71.24,40a20.32,20.32,0,0,1-3,7.74A76.53,76.53,0,0,1,61.17,57.94ZM57.72,43.25a4.87,4.87,0,0,1,3.08-4.13c0.61-.17.81,0.28,0.63,0.67a4.73,4.73,0,0,1-1.11,1.67A26,26,0,0,1,57.72,43.25Zm-16.29-.6L41,42.84c-1.13-.64-2.12-1.4-2.06-2.9a2.54,2.54,0,0,1,.41-0.86,1.78,1.78,0,0,1,.75.44C40.62,40.54,41,41.6,41.42,42.65Z"/><path class="cls-1" d="M73.91,25.48a2.55,2.55,0,0,0,.89,0c0.36-.14.65-0.48,1-0.62,1.12-.46,2.27-0.85,3.4-1.29,0.35-.13.67-0.33,1-0.49l-0.34-.34c0-.53-0.42-0.72-1.1-0.44-1.09.45-2.2,0.87-3.27,1.37a6.58,6.58,0,0,0-1.51,1A1.51,1.51,0,0,0,73.91,25.48Z"/><path class="cls-1" d="M24,34.91c0.28-.17.54-0.38,0.81-0.57a3,3,0,0,0-.84-0.5C22.5,33.55,21,33.29,19.58,33a4.23,4.23,0,0,0-1.19-.13,0.84,0.84,0,0,0-.5.54,0.61,0.61,0,0,0,.31.52c1.8,0.35,3.61.66,5.23,0.94A1.64,1.64,0,0,0,24,34.91Z"/><path class="cls-1" d="M20.5,27.2c0.63,0.27,1.23.59,1.86,0.88l3.24,1.43,0.77-.67a3.16,3.16,0,0,0-.68-0.61c-0.59-.28-1.24-0.44-1.82-0.72-0.95-.45-1.84-1-2.8-1.41a1.16,1.16,0,0,0-1.07.24C19.67,26.77,20.09,27,20.5,27.2Z"/><path class="cls-1" d="M70.18,20.11c0.89-.56,1.73-1.19,2.57-1.83,0.57-.44,1.1-0.93,1.65-1.4l-0.07-.42a1.73,1.73,0,0,0-.87-0.18,10.29,10.29,0,0,0-1.59,1.08c-0.84.64-1.67,1.29-2.46,2a1.8,1.8,0,0,0-.22.84A2.27,2.27,0,0,0,70.18,20.11Z"/><path class="cls-1" d="M76.27,31.6c0.29,0.82.51,1.16,1.29,0.85,1.22-.49,2.51-0.81,3.75-1.26a3.14,3.14,0,0,0,.81-0.68,2.1,2.1,0,0,0-1-.49C79.51,30.48,77.91,31.05,76.27,31.6Z"/><path class="cls-1" d="M28.62,51.19c-1.16.93-2.27,1.93-3.38,2.93a3.14,3.14,0,0,0-.43.7l0.63,0.65c0.41-.32.73-0.55,1-0.8,1-.84,2-1.67,2.94-2.57a1.86,1.86,0,0,0,.18-0.9A1.91,1.91,0,0,0,28.62,51.19Z"/><path class="cls-1" d="M25.56,40c0-.76-0.28-1.08-1-0.83-0.91.29-1.86,0.49-2.77,0.78a3.62,3.62,0,0,0-1.31.67,2.33,2.33,0,0,0-.33,1,3.16,3.16,0,0,0,1.06,0c0.64-.2,1.24-0.54,1.87-0.78C23.86,40.54,24.71,40.26,25.56,40Z"/><path class="cls-1" d="M77.6,49c-1.22-.62-2.48-1.16-3.73-1.74a1,1,0,0,0-1.41.32,0.83,0.83,0,0,0,.18.33c1.53,0.76,3.05,1.54,4.61,2.24a1.73,1.73,0,0,0,.85-0.3A2.11,2.11,0,0,0,77.6,49Z"/><path class="cls-1" d="M28.35,24.5a2.52,2.52,0,0,0,1.14-.14,8.87,8.87,0,0,0-.72-0.87c-0.33-.29-0.7-0.53-1-0.81-0.92-.78-1.82-1.6-2.77-2.35a2.12,2.12,0,0,0-.88-0.18,1.69,1.69,0,0,0,.2.77C25.63,22.14,27,23.34,28.35,24.5Z"/><path class="cls-1" d="M78.45,36.53a8.85,8.85,0,0,0-1.65.29,1.93,1.93,0,0,0-.58.68l0.5,0.4c1.65-.16,3.07-0.27,4.48-0.47A2.16,2.16,0,0,0,82,36.78a2.75,2.75,0,0,0-1-.51A19.9,19.9,0,0,0,78.45,36.53Z"/><path class="cls-1" d="M70.1,52.27L69.63,52a2.49,2.49,0,0,0-.68.55,0.68,0.68,0,0,0,.23.61c1.16,0.73,2.32,1.45,3.53,2.08a2,2,0,0,0,1-.27,2.36,2.36,0,0,0-.49-0.88C72.2,53.46,71.14,52.87,70.1,52.27Z"/><path class="cls-1" d="M65.34,16.84a1.16,1.16,0,0,0,.83-0.45c0.34-.39.55-0.89,0.89-1.28,0.63-.73,1.31-1.41,2-2.11l-0.14-.43a1.78,1.78,0,0,0-.91,0c-0.93,1.14-2.33,1.86-2.9,3.32C64.89,16.32,64.85,16.72,65.34,16.84Z"/><path class="cls-1" d="M59.84,13.88c0.47-1.35.91-2.71,1.3-4.08a0.7,0.7,0,0,0-.39-0.58,0.87,0.87,0,0,0-.76.24c-0.48,1.28-.88,2.58-1.35,4a3.37,3.37,0,0,0,.61.73A0.68,0.68,0,0,0,59.84,13.88Z"/><path class="cls-1" d="M32.82,19.48a1.21,1.21,0,0,0,1.66.25c-0.71-.78-1.34-1.54-2-2.24a7.94,7.94,0,0,0-1.52-1.19,1,1,0,0,0-.79.23,0.71,0.71,0,0,0,.1.64A31.58,31.58,0,0,0,32.82,19.48Z"/><path class="cls-1" d="M79.74,43.12c-0.75-.27-1.54-0.43-2.31-0.63a4.53,4.53,0,0,0-1.26-.28,2.37,2.37,0,0,0-.88.49,3,3,0,0,0,.74.66,13.51,13.51,0,0,0,1.6.44l2.29,0.64a1.84,1.84,0,0,0,.5-0.59A1.4,1.4,0,0,0,79.74,43.12Z"/><path class="cls-1" d="M37.19,15.41a16.09,16.09,0,0,0,1.42,1.84,1,1,0,0,0,.75.12A1,1,0,0,0,39.66,17c-0.11-.21-0.18-0.38-0.28-0.54-0.55-.85-1.09-1.71-1.67-2.55A2.58,2.58,0,0,0,37,13.15a0.77,0.77,0,0,0-.64,0,0.58,0.58,0,0,0-.08.53A13.12,13.12,0,0,0,37.19,15.41Z"/><path class="cls-1" d="M26.41,46.29a1.67,1.67,0,0,0-.62-0.54c-1.31.6-2.58,1.16-3.82,1.77a0.79,0.79,0,0,0-.28.56,0.71,0.71,0,0,0,.16.56,0.67,0.67,0,0,0,.57,0c1.2-.57,2.39-1.15,3.57-1.77A0.79,0.79,0,0,0,26.41,46.29Z"/><path class="cls-1" d="M52.61,13.29a1.69,1.69,0,0,0,.4-0.62c0.07-.86.08-1.72,0.08-2.58,0-.6-0.07-1.19-0.11-1.79l-0.37-.14a2.08,2.08,0,0,0-.77.77,34.21,34.21,0,0,0,.13,3.8A1.62,1.62,0,0,0,52.61,13.29Z"/><path class="cls-1" d="M45.57,13.21a0.69,0.69,0,0,0,.54.34,1.12,1.12,0,0,0,.42-0.44c-0.09-.23-0.14-0.34-0.18-0.46-0.3-1-.54-2-0.94-3a2.39,2.39,0,0,0-1-.62,2.4,2.4,0,0,0-.22,1.11A32.49,32.49,0,0,0,45.57,13.21Z"/></svg>