<svg id="Layer_1" data-name="Layer 1" xmlns="http://www.w3.org/2000/svg" viewBox="0 0 100 100"><defs><style>.cls-1{fill:#036;}</style></defs><title>Ikoner</title><path class="cls-1" d="M85.71,63.07a18,18,0,0,0-1.77-5.42,41.83,41.83,0,0,0-4.08-5.7,27.61,27.61,0,0,0-5.27-5.25,6.93,6.93,0,0,1-2.3-2.83,30.75,30.75,0,0,1-1.65-5.26A13.14,13.14,0,0,1,70,34c0.31-2.39,1.22-4.7,1.73-7.08,0.57-2.71,1-5.45,1.42-8.19a1.56,1.56,0,0,0-1-2,25.13,25.13,0,0,0-3.7-.63C66.6,16,64.78,16,63,15.94c-1.35,0-2.7-.14-4.06-0.18q-2.62-.08-5.25-0.1a41,41,0,0,0-6.46.06c-6,.92-11.94.61-17.92,0.66-3,0-6.07-.2-9.08.44-2,.42-2.48,1.11-2,3,0.05,0.19,0,.39.09,0.59,0.44,2.21.83,4.43,1.34,6.62,0.59,2.5,1.42,4.92,1.17,7.58-0.31,3.29-.29,6.61-0.56,9.9a4.85,4.85,0,0,1-1.06,2.47C18,48.44,16.68,49.8,15.37,51.2A22.54,22.54,0,0,0,11,58.35a21.34,21.34,0,0,0-1.3,7.27v0.09A51.39,51.39,0,0,0,10.13,72a5,5,0,0,0,4.27,4.26c1.33,0.27,2.67.48,4,.77a1.35,1.35,0,0,1,.91.55A12.55,12.55,0,0,0,22,81.47a14.13,14.13,0,0,0,9.68,4.88c5,0.61,10.07,1.31,15.12,1.54a111.59,111.59,0,0,0,12.11-.5,25.68,25.68,0,0,0,4.49-.77c2.19-.54,4.31-1.38,6.52-1.8,3.19-.61,5.58-2.1,6.91-5.14a1,1,0,0,1,.59-0.46c1.22-.39,2.47-0.72,3.69-1.12,2-.67,3.91-1.71,4.63-3.75a14.49,14.49,0,0,0,.52-4.95C86.2,67.28,85.94,65.17,85.71,63.07Zm-12-15.22a28.24,28.24,0,0,1,2.35,1.93c0.93,0.94,1.71,2,2.64,3a1,1,0,0,1-.16,1.76,4.36,4.36,0,0,1-.84.51c-1.5.6-2,.41-2.48-1.11C74.6,52,74.07,50,73.51,48ZM20.17,22.73c-0.24-.93-0.43-1.87-0.66-2.8-0.3-1.23-.18-1.42,1-1.71a29.33,29.33,0,0,1,9.1-.37c0.63,0,1.26,0,1.89,0A155.26,155.26,0,0,0,49,17.2a79,79,0,0,1,8.57.12q6.26,0.24,12.52.63c1.77,0.11,1.68.18,1.47,1.94a90.25,90.25,0,0,1-2.86,12.69,12.26,12.26,0,0,1-4.09,6.57c-1.15.93-2.27,1.9-3.49,2.74a5.11,5.11,0,0,1-2,.74c-2.94.47-5.87,1.14-8.88,0.79l-0.46-.06c-0.2-1.17-.44-2.33-0.6-3.51-0.23-1.66-.81-2-2.46-1.83a33.64,33.64,0,0,1-3.77.09c-0.3,0-.6,0-0.9,0-1.78.07-2,.33-1.72,2.11,0.13,0.94.12,1.91,0.18,3-2.7,0-5.27-.06-7.7-1.08-1.07-.45-2.15-0.87-3.18-1.39a12.08,12.08,0,0,1-4.26-4.33,24.86,24.86,0,0,1-2.93-5.48C21.47,28.25,20.89,25.46,20.17,22.73ZM46.78,42.65c1.36-.06,1.4-0.07,1.51,1.23,0.2,2.35.21,2.41-2.22,2.6a15.92,15.92,0,0,1-3.13-.2,1,1,0,0,1-.69-0.57c-0.17-1-.22-2-0.32-3C43.7,42.67,45.24,42.72,46.78,42.65ZM41.68,40c-0.08-.67.53-0.56,1-0.56,1.21,0,2.43,0,3.64,0,1.46,0,1.55.14,1.43,1.78-1.75,0-3.94.06-5.7-.05C41.75,41.13,41.73,40.44,41.68,40Zm2.67,7.88c1.18-.07,2.36-0.11,3.52-0.27,0.61-.09.86,0,0.94,0.63s0.26,1.41.44,2.32c-1.88.1-3.71,0.17-5.53,0.32a0.91,0.91,0,0,1-1-1c-0.09-.65-0.14-1.31-0.21-2C43.12,47.91,43.73,47.93,44.34,47.9ZM19.14,60a84.21,84.21,0,0,0-.61,13.16c0,0.75.13,1.5,0.2,2.28a10.6,10.6,0,0,1-5.51-1.16,2.39,2.39,0,0,1-1.07-1.11,21,21,0,0,1,.55-15.35c0.3-.67.59-1.06,0.85-1.6,1.12,0.49,2.28.95,3.3,1.38a4.87,4.87,0,0,0,.85.27C19.35,58.27,19.39,58.28,19.14,60Zm0.39-5c0,1.59-.25,1.85-1.79,1.45A11.88,11.88,0,0,1,15,55.21a1,1,0,0,1-.21-0.91,15.1,15.1,0,0,1,1.65-2.19c1.1-1.2,2.27-2.35,3.6-3.71-0.17,2-.32,3.87-0.48,5.7C19.59,54.4,19.53,54.69,19.53,55Zm57.7,19a12.13,12.13,0,0,1-3.35,7.46,6.59,6.59,0,0,1-3.4,1.68c-2.05.51-4.06,1.21-6.09,1.8a28.81,28.81,0,0,1-7.62,1.17c-2.34,0-4.68.55-7,.5-3.37-.07-6.73-0.44-10.09-0.71-2.28-.19-4.55-0.45-6.82-0.66a14.94,14.94,0,0,1-6.77-2.07A23.79,23.79,0,0,1,22.58,80c-2-2-2.55-4.46-2.59-7.15,0-1.52-.2-3-0.12-4.56,0.14-2.77.43-5.54,0.64-8.31,0.15-2,.23-3.95.39-5.92,0.17-2.18.41-4.35,0.57-6.52s0.27-4.37.4-6.56q0.18-3,.36-6.06l0.24-.21c3.75,7.41,10.16,10,18,10,0.21,1.45.4,2.75,0.57,4.06,0,0.33,0,.66,0,1,0.23,2.26,1.16,3,3.43,2.77q2-.21,3.93-0.47c1.93-.25,2.53-1.17,2.08-2.92-0.34-1.37-.53-2.77-0.8-4.25a32.86,32.86,0,0,0,4.45,0c3.05-.43,6.28-0.3,8.95-2.2a23.87,23.87,0,0,0,3.07-2.79c0.89-.91,1.69-1.92,2.58-2.95,0.13,0.37.3,0.77,0.42,1.19,0.89,3,1.76,6,2.65,9.06,1.32,4.48,2.87,8.91,3.93,13.44C76.8,64.93,77.64,69.4,77.22,74ZM81,76.8c-1,.4-2,0.66-3.18,1.05,1.91-7.32,0-14.16-1.6-21.16a5.77,5.77,0,0,0,4.28-1.94,17,17,0,0,1,4.15,9.65c0.19,2.18.12,4.55,0.26,6.77C85.1,74,83.27,75.86,81,76.8Z"/><path class="cls-1" d="M63.31,57.59a1.63,1.63,0,0,0-1.19-.46c-1.65.14-3.28,0.49-4.93,0.55-3.38.14-6.76,0.26-10.13,0.17-5-.14-9.94-0.48-14.7-0.72-1.17-.27-1.56.16-1.55,1.11,0,0.63-.12,1.26-0.1,1.89,0.1,2.45.42,4.91,0.31,7.35a11.08,11.08,0,0,0,3.4,8.5,10.26,10.26,0,0,0,3.48,2.55,16.47,16.47,0,0,0,5.62,1.13,38.4,38.4,0,0,0,8.18-.78A12.11,12.11,0,0,0,60,73a26.14,26.14,0,0,0,3-7.84,14,14,0,0,0,.24-5.32,5,5,0,0,1,0-1.17A2.26,2.26,0,0,0,63.31,57.59Zm-3.6,12.78c-1,1.65-1.78,3.49-3.44,4.69a12.6,12.6,0,0,1-6.54,2.57c-1.41.11-2.81,0.56-4.22,0.6-3.21.09-6.46-.14-9-2.25a9.5,9.5,0,0,1-3.86-7c-0.05-1.22-.05-2.45-0.13-3.67,0-.63.15-0.79,0.79-0.74,3.43,0.24,6.87.5,10.31,0.63,2.89,0.1,5.79,0,9,0-0.57,1.54-1,2.71-1.43,3.89A2.27,2.27,0,0,0,51,70.16a0.83,0.83,0,0,0,.72.22,2.4,2.4,0,0,0,.82-0.93,33.61,33.61,0,0,1,1.89-3.83c0.49,1.32,1,2.62,1.46,4,0.17,0.51.33,1.07,0.93,0.89a0.9,0.9,0,0,0,.47-1.37c-0.47-1.23-.88-2.49-1.38-3.92,1-.15,1.88-0.3,2.78-0.43s1.82-.22,2.85-0.34C61.1,66.5,60.84,68.56,59.71,70.38Zm2-7.55c-2.75.29-5.53,0.69-8.32,0.87-5.63.38-11.26-.08-16.88-0.21A27,27,0,0,1,32.86,63a0.73,0.73,0,0,1-.48-0.49c-0.13-1.14-.22-2.3-0.25-3.45a0.89,0.89,0,0,1,.68-0.43c1.49,0,3,.11,4.47.17,5.49,0.24,11,.56,16.48.69,2.57,0.06,5.15-.23,8-0.38v3.69Z"/><path class="cls-1" d="M36.85,40.43A3,3,0,0,0,38,40.1a13.6,13.6,0,0,0-1.56-1.19c-1.15-.61-2.32-1.18-3.52-1.69a3.18,3.18,0,0,0-1.15,0,2.37,2.37,0,0,0,.43,1.16C33.72,39.12,35.28,39.79,36.85,40.43Z"/><path class="cls-1" d="M54.35,41.12c1.68-.71,3.35-1.47,5-2.25A3.87,3.87,0,0,0,60,38.06a3.27,3.27,0,0,0-1.4-.3c-1.37.57-2.69,1.25-4,1.93a1.58,1.58,0,0,0-.76.72A1.23,1.23,0,0,0,54.35,41.12Z"/><path class="cls-1" d="M27.91,34.24a0.7,0.7,0,0,0,.54.16c0.25,0,.53,0,0.75,0,0-.1,0-0.2-0.05-0.31a2.32,2.32,0,0,0-.23-0.87c-0.7-1.13-1.46-2.23-2.21-3.33-0.14-.2-0.3-0.38-0.73-0.93a3.7,3.7,0,0,0-.29,1.55A32,32,0,0,0,27.91,34.24Z"/><path class="cls-1" d="M66,31.74a2.2,2.2,0,0,0,.36-1.14,3.14,3.14,0,0,0-.43-1c-0.32.35-.5,0.52-0.65,0.71-0.8,1-1.63,2-2.37,3a4.23,4.23,0,0,0-.37,1.33,3.13,3.13,0,0,0,1.4-.35A20.1,20.1,0,0,0,66,31.74Z"/><path class="cls-1" d="M68.1,25.21c0.38-1.38.62-2.81,1.06-4.9a2.47,2.47,0,0,0-1-.13,1.14,1.14,0,0,0-.56.76c-0.33,1.26-.63,2.53-0.87,3.81a2.48,2.48,0,0,0,.31,1A2.29,2.29,0,0,0,68.1,25.21Z"/><path class="cls-1" d="M24.81,25.64a2,2,0,0,0,.24-0.91q-0.62-2-1.4-3.94a2.16,2.16,0,0,0-.73-0.61l-0.66.88c0.47,1.43.88,2.81,1.42,4.14A2.29,2.29,0,0,0,24.81,25.64Z"/></svg>