<svg id="Layer_1" data-name="Layer 1" xmlns="http://www.w3.org/2000/svg" viewBox="0 0 100 100"><defs><style>.cls-1{fill:#036;}</style></defs><title>Ikoner</title><path class="cls-1" d="M87.76,55.56l-1.32-1,0-.06,0.36-.63c0.25-.44.49-0.85,0.71-1.28,1.06-2.08.91-2.67-1-3.94a1.32,1.32,0,0,1-.64-1.53c0.14-.72.32-1.46,0.55-2.27,0.73-2.49.25-3.4-2.22-4.23l-0.57-.21-0.35-.13,0,0V40.21c0-.54,0-1.09,0-1.63a36.71,36.71,0,0,0-.05-3.7c-0.14-1.66-.61-2.21-2.2-2.56H81V32.26c0-.08,0-0.17,0-0.25a1.19,1.19,0,0,0-.06-0.48c-0.24-.53-0.45-1.09-0.66-1.62a13.86,13.86,0,0,0-1.81-3.61l-0.32-.43c-0.59-.8-0.58-0.8-2.15-0.51a2.18,2.18,0,0,0-.45.15l-0.11,0,0,0,0,0-0.45-.6a12.17,12.17,0,0,0-1-1.19c-0.46-.48-1-0.93-1.48-1.37L72,22l0,0c-1.2-1.06-2.33-2.06-3.88-.61a0.13,0.13,0,0,1-.13,0H67.9l0,0a21.09,21.09,0,0,0-5.42-3.77c-1.77-.54-2-0.48-3.15,1a1.68,1.68,0,0,1-.24.23l-0.13.11,0,0,0,0-0.18-.12a2.45,2.45,0,0,1-.32-0.25,9.49,9.49,0,0,0-4.41-2.27c-2-.52-2.46-0.34-3.5,1.48a1.32,1.32,0,0,1-1.19.34c-1.27-.34-2.55-0.73-3.79-1.11l-1.8-.54c-1.43-.42-1.52-0.38-2.13.94a0.79,0.79,0,0,1-.91.58l-1.53-.06c-1.11,0-2.15-.09-3.27-0.09l-0.84,0-0.27,0c-0.65-.06-1.05-0.06-1.13.33a1.64,1.64,0,0,0,0,.5,1,1,0,0,1-.14.71,0.94,0.94,0,0,1-.56.31l-0.13,0c-0.54.18-1.09,0.35-1.62,0.51s-1.26.39-1.89,0.6c-2.18.75-3,1.85-2.87,3.92v0l0,0c-0.59.34-1.19,0.66-1.77,1a26.8,26.8,0,0,0-3.73,2.27c-1,.73-1.44,1.19-1.5,1.68a2.85,2.85,0,0,0,1,1.79c0.08,0.09.15,0.19,0.24,0.32l0.17,0.23,0,0.06-0.06,0-0.22.18c-0.14.12-.28,0.23-0.43,0.33l-0.88.61c-0.79.54-1.6,1.11-2.43,1.61a3,3,0,0,0-1.75,3,3.46,3.46,0,0,0,.76,1.05l0.38,0.44c0.17,0.2.34,0.4,0.52,0.6l0.25,0.28,0,0,0,0-0.12.13a1.06,1.06,0,0,1-.2.2,10.43,10.43,0,0,0-3.83,5.3,0.76,0.76,0,0,0-.06.59,0.75,0.75,0,0,0,.49.32,9.34,9.34,0,0,1,1.43.63l0.68,0.33,0.07,0,0,0.07L15,48.62c-0.25.55-.46,1-0.7,1.49-0.14.28-.3,0.55-0.46,0.81a8.1,8.1,0,0,0-.69,1.32c-0.75,2-.51,2.89,1.11,4l0.48,0.34L15,56.79l0,0.05c-0.09.21-.18,0.41-0.27,0.6a6.29,6.29,0,0,0-.47,1.23c-0.44,2-.74,3.5-0.95,5a1,1,0,0,0,.18.82,1.17,1.17,0,0,0,.87.36c0.59,0,1.17.11,1.69,0.17l0.56,0.07h0.06v0.06c0,0.42,0,.81,0,1.18,0,0.78,0,1.45,0,2.12s0.16,1.2.26,1.78c0.07,0.39.15,0.8,0.2,1.2a2.54,2.54,0,0,0,.73,1.84,2.39,2.39,0,0,0,1.88.05l0.35-.07a4.9,4.9,0,0,0,.69-0.16,0.88,0.88,0,0,1,.79,0,0.93,0.93,0,0,1,.3.76,11.64,11.64,0,0,0,2,5.26c0.16,0.27.3,0.54,0.47,0.89l0.29,0.58a0.45,0.45,0,0,0,.35.27c0.81,0.16,2.64-.93,3.77-2l0.05-.05,0.05,0.06,0.31,0.34c0.2,0.22.4,0.43,0.57,0.66v0a10.68,10.68,0,0,0,3,3,1.49,1.49,0,0,0,2-.21c0.24-.21.49-0.4,0.69-0.56l0.2-.16,0.05,0,0,0.05c0.3,0.34.59,0.68,0.87,1a15,15,0,0,0,1.88,2C40,86.13,41.8,87.29,42.07,87a12.71,12.71,0,0,0,1.38-1.85c0.26-.39.52-0.8,0.82-1.19l0-.06,0.06,0,0.53,0.39a10.87,10.87,0,0,0,4.83,2.48,1.79,1.79,0,0,0,1.62-.92,12.78,12.78,0,0,0,.48-1.63L51.89,84,52,84.08,53.48,85c1.3,0.79,2.52,1.53,3.78,2.27a0.84,0.84,0,0,0,.69,0,1.27,1.27,0,0,0,.75-0.61,6.51,6.51,0,0,0,.5-2.25c0-.27.05-0.55,0.09-0.86v-0.1l0.09,0,1.16,0.58c1,0.49,1.88,1,2.81,1.4a3.8,3.8,0,0,0,.59.21,3.37,3.37,0,0,1,.69.25,1,1,0,0,0,.72.2,1.2,1.2,0,0,0,.45-0.75,7.88,7.88,0,0,0,.49-4.34l0-.13L66.39,81c0.34,0.16.73,0.36,1.14,0.58a15.18,15.18,0,0,0,1.9.91,5.61,5.61,0,0,0,4,.18c0.59-.24.64-0.39,0.38-1.18-0.06-.17-0.13-0.36-0.19-0.51l-0.09-.22,0-.07,0.08,0,1.25-.35,2.8-.79c0.13,0,1.29-.4,1.16-1.13a2.25,2.25,0,0,0-.5-1,6.58,6.58,0,0,1-.6-0.94l0-.08,0.09,0c0.31-.08.68-0.16,1.08-0.24A14.94,14.94,0,0,0,81,75.62a12.12,12.12,0,0,0,1.55-.78c0.36-.21.74-0.42,1.13-0.6a1.81,1.81,0,0,0,1.12-.94,1.77,1.77,0,0,0-.44-1.35c-0.28-.43-0.56-0.84-0.87-1.27l-0.41-.59,0-.05,0,0,0.19-.17a2.73,2.73,0,0,0,.32-0.31l0.78-.93c0.71-.84,1.44-1.71,2.08-2.62a1.47,1.47,0,0,0-.14-2.15,1.74,1.74,0,0,1-.7-1,2.15,2.15,0,0,1,.89-1.18,2,2,0,0,0,.4-0.53c0.24-.47.48-0.94,0.72-1.42l0.68-1.34A2,2,0,0,0,87.76,55.56Zm-1.59-5.66a1.28,1.28,0,0,1,.61,1.76,8.75,8.75,0,0,1-1.47,2.16,1.26,1.26,0,0,1-.9.18,4.77,4.77,0,0,0-.52,0H83.81l0.28-2.77-0.34-.08-0.18.42a7.3,7.3,0,0,0-.4,1.05,1.44,1.44,0,0,1-.63,1,1.14,1.14,0,0,1-1,0l0,0V51.53l-0.13-.06-0.1.11a1.33,1.33,0,0,0-.24.34,5.1,5.1,0,0,0-.17.5,3.23,3.23,0,0,1-.32.78,1.23,1.23,0,0,1-.84.45,0.21,0.21,0,0,1-.16-0.07A1.08,1.08,0,0,1,79.26,53c0-1.46.08-2.77,0.18-4a0.54,0.54,0,0,1,.22-0.3,0.83,0.83,0,0,1,.53-0.22c1.63,0.22,2.93.44,4.1,0.7A7.75,7.75,0,0,1,86.17,49.89Zm-3.25-8.12,1.3,0.17a1.47,1.47,0,0,1,1.05.53,1.75,1.75,0,0,1,.19,1.37c-0.16.91-.35,1.8-0.54,2.74l-0.24,1.19v0.07H84.61a1.41,1.41,0,0,1-1-.42,1.12,1.12,0,0,1-.14-0.86,4.64,4.64,0,0,0,0-1.21c0-.17,0-0.35-0.06-0.53a0.22,0.22,0,0,0-.15,0,0.27,0.27,0,0,0-.19.12,6.19,6.19,0,0,0-.11.77,4.35,4.35,0,0,1-.2,1.09,0.76,0.76,0,0,0,0,.15c0,0.27-.12.49-0.73,0.44a0.7,0.7,0,0,1-.52-0.18,0.61,0.61,0,0,1-.05-0.48,2.4,2.4,0,0,0,0-.3c0-.18,0-0.36,0-0.55s0-.56,0-0.83h0c-0.15-.06-0.27-0.1-0.37.07l-0.13.47a7.21,7.21,0,0,1-.38,1.17,1,1,0,0,1-.78.49,0.84,0.84,0,0,1-.63-0.57c-0.27-1.27-.51-2.54-0.77-3.89l-0.24-1.28,0-.09h0.57a8,8,0,0,1,1.11,0C80.83,41.5,81.89,41.64,82.92,41.78Zm-2-8.11a1.08,1.08,0,0,1,1.1.85,11.48,11.48,0,0,1,.18,5.59v0.06H82.08A1.51,1.51,0,0,1,80.9,40a1.68,1.68,0,0,1-.14-1.31,5,5,0,0,0,0-.64c0-.08,0-0.16,0-0.23l-0.38,0L80,40.45l-0.1-.1-0.31-.27a1.4,1.4,0,0,1-.44-0.49A2.32,2.32,0,0,1,79,39a2.79,2.79,0,0,0-.08-0.51,1,1,0,0,0-.17-0.31L78.68,38l-0.07-.1L78.55,38l-0.07.13a0.9,0.9,0,0,0-.1.33,7.3,7.3,0,0,0,0,1c0,0.2,0,.43.05,0.69v0.15l-0.12-.08c-0.15-.1-0.31-0.18-0.44-0.26a1.21,1.21,0,0,1-.56-0.44c-0.51-1.08-1-2.28-1.56-3.66a0.81,0.81,0,0,1,.27-0.78l0.44-.22A8.09,8.09,0,0,1,80.87,33.66Zm-4.62-7.12a1.35,1.35,0,0,1,1.09.39,9.34,9.34,0,0,1,2.29,4.27c0.12,0.37.25,0.76,0.39,1.14l0,0.08-1.28.26,0-.05L78.5,32a13.31,13.31,0,0,0-.63-1.39,0.83,0.83,0,0,0-.43-0.25l-0.18-.07,0,0.15a0.91,0.91,0,0,0,0,.47c0.16,0.45.36,0.9,0.56,1.33L78,32.8l0,0,0,0a1,1,0,0,1-1.63-.1l-0.22-.25a1,1,0,0,0-1.42-.42l1.36,1.55,0,0a1.18,1.18,0,0,1-.84.52h0a1.2,1.2,0,0,1-.85-0.52c-0.74-.84-1.52-1.64-2.27-2.42l-0.89-.92,0,0,0-.05c0.21-.22.41-0.47,0.61-0.7A9.4,9.4,0,0,1,73.31,28,12.79,12.79,0,0,1,76.25,26.55Zm-7.31-4.41A1.15,1.15,0,0,1,70,22a12.64,12.64,0,0,1,4.22,3.88l0,0,0,0a1.16,1.16,0,0,1-.86.56,1,1,0,0,1-.76-0.55,8.09,8.09,0,0,0-.91-1l-0.39-.4L71,24.68,72.5,27.5l-2.65-.82,0,0.18c1.37,1.23,1.37,1.26.8,2.67l0,0.08-4.91-3.37,0-.05A9.21,9.21,0,0,1,68.94,22.14Zm-8.71-2.81,0.28-.44a1.06,1.06,0,0,1,.95-0.39A15.47,15.47,0,0,1,67,22l0,0-0.2.48-0.6-.17L65.07,22a0.76,0.76,0,0,0-.86.11,0.41,0.41,0,0,0,.31.4c0.32,0.18.75,0.47,0.91,0.59C66,23.47,66,23.48,66,23.54l0,0.06H65.9c-2.25-.46-2.37-0.22-2.38-0.19a1.65,1.65,0,0,0,.88.61l0.4,0.13,0.44,0.14-0.05.08a7.31,7.31,0,0,0-.44.79,3.94,3.94,0,0,1-.22.4l0,0-6.26-1.76V23.76A11.26,11.26,0,0,1,60.23,19.34ZM50.1,23.5c0-.2.08-0.39,0.11-0.57a10.47,10.47,0,0,1,.23-1.05c0.24-.8.49-1.62,0.73-2.4L51.61,18a1,1,0,0,1,1.11-.79h0c1.95,0,3.59.87,5.49,2.82l0,0,0,0a0.88,0.88,0,0,0-.08.18,1.31,1.31,0,0,1-.12.26l0,0.06-0.06,0c-0.37-.13-0.72-0.25-1.06-0.35L56,20l-0.13.22c0.34,0.28.73,0.54,1.1,0.8l0.7,0.5,0,0,0,0.05a0.82,0.82,0,0,0-.05.21,0.41,0.41,0,0,1-.13.29,0.24,0.24,0,0,1-.19,0L57,22a10.49,10.49,0,0,0-1.64-.26,5.5,5.5,0,0,0,.61.3,4.6,4.6,0,0,1,1.24.72,0.41,0.41,0,0,1,0,.47,2.59,2.59,0,0,0-.11.27l0,0.05h-7Zm-7.68-4.87c0-.12,0-0.26,0-0.44s0-.47.07-0.77V17.33l7.56,2.17-0.1.09a1.43,1.43,0,0,1-1.3.23,1,1,0,0,0-1.21.34,9.93,9.93,0,0,0,1.06.44,7.61,7.61,0,0,1,1,.43l0.14,0.09-0.16,0a4.38,4.38,0,0,1-1.31,0,4.77,4.77,0,0,0-1.1,0l0,0.31c0.3,0.05.7,0.1,1.09,0.14s0.85,0.1,1.16.15h0.07v0.07c-0.16,1.65-.28,1.72-1.71,2l-0.11,0-2.24.44-1.11.21H44.21l-0.44-1.13c-0.42-1.08-.81-2.09-1.2-3.1a1.87,1.87,0,0,1-.08-0.46s0-.08,0-0.11A4.94,4.94,0,0,1,42.41,18.63Zm-8.09.09,1.87,0.06c1.5,0,2.92.09,4.33,0.18a0.86,0.86,0,0,1,.69.33,1.16,1.16,0,0,1,.07,1l0,0.06H41.2l-0.62-.07-1.32-.13a1,1,0,0,0-.87.17,0.75,0.75,0,0,0,0,.67l3.18,0.18,0,0.42,0,0a1.28,1.28,0,0,1-.77.27,0.79,0.79,0,0,0-.92.8l0.17,0a0.92,0.92,0,0,0,.44,0c1.22-.41,1.81.35,2.3,1.17a0.75,0.75,0,0,1,.14.65,0.64,0.64,0,0,1-.47.33c-1.23.34-2.49,0.67-3.76,1a1.12,1.12,0,0,1-.26,0,0.52,0.52,0,0,1-.37-0.11L37.7,25.4a24.68,24.68,0,0,1-1.93-2.12,8,8,0,0,1-1.18-2.14,5.81,5.81,0,0,1-.25-1.45c0-.28-0.05-0.56-0.09-0.88V18.72h0.09ZM27.51,24a3.11,3.11,0,0,1,1.27-2.06,10.12,10.12,0,0,1,2.56-1l0.74-.21a2.23,2.23,0,0,1,.78,0l0.53,0h0.16l-0.1.12a4.44,4.44,0,0,1-.75.67,1.31,1.31,0,0,0-.78,1.4l0.41-.13a13,13,0,0,1,1.51-.43c0.11,0,.19.13,0.36,0.5,0.05,0.12.11,0.23,0.16,0.33l0,0.09-0.1,0c-1.1.22-1.62,0.44-1.8,0.77a1.09,1.09,0,0,0,.07.92L33,24.8c0.42-.18.86-0.37,1.3-0.53a0.73,0.73,0,0,1,.63.06c0.54,0.5,1.06,1,1.57,1.52L37,26.34l0.07,0.07-5.69,3.48,0-.05-0.86-1.07C29.77,27.88,29,27,28.36,26A3.42,3.42,0,0,1,27.51,24ZM20.76,29.6a1.37,1.37,0,0,1,.71-0.89c1.55-1,3.15-1.92,4.78-2.77a0.51,0.51,0,0,1,.4-0.05,1,1,0,0,1,.48.54l0,0.05,0,0c-0.2.17-.41,0.33-0.61,0.49-0.71.55-1.28,1-.94,1.62,0.28,0.16.39,0.12,0.49,0a3,3,0,0,1,.43-0.43L26.64,28a1.42,1.42,0,0,1,1.12-.57,1,1,0,0,1,.61.64v0l0,0a5.8,5.8,0,0,1-.84,1.18,6.22,6.22,0,0,0-.62.82,1,1,0,0,0,.34.42,0.63,0.63,0,0,0,.38-0.2l0.06-.06c1.22-1.22,1.54-1.54,2.39-.81l0.09,0.07a1.1,1.1,0,0,1,.56.8l0,0L27,34.35h0a9.11,9.11,0,0,1-5.65-3.51A1.61,1.61,0,0,1,20.76,29.6Zm-4.37,7.63a2.39,2.39,0,0,1,1.25-1.72l1-.72c0.68-.49,1.38-1,2.08-1.46l0.15-.11a1,1,0,0,1,.7-0.31,0.57,0.57,0,0,1,.37.26l0,0v0a3.4,3.4,0,0,1-.51,1,1.5,1.5,0,0,0-.31.62c0,0.17,0,.27.29,0.33l0.13,0c0.16,0,.22,0,0.3-0.09A5.41,5.41,0,0,1,22.79,34l0,0,0,0a3.41,3.41,0,0,1,.48.27,2.89,2.89,0,0,0,.39.22l0.06,0,0,0.06a6,6,0,0,1-.32.73,3.77,3.77,0,0,0-.35.88c0,0.16,0,.21.2,0.34a0.41,0.41,0,0,0,.43-0.14c0.85-1.51,1.13-1.46,2.19-1.27l0.35,0.06,0.09,0L25.75,36.5c-0.78,1.67-1.59,3.39-2.4,5.08a0.74,0.74,0,0,1-.53.35H22.77l-0.4-.14a11.82,11.82,0,0,1-2.09-.87,21.52,21.52,0,0,1-2.82-2A2.27,2.27,0,0,1,16.39,37.23Zm-1.5,8.87a1,1,0,0,1-.47-1.5A8.91,8.91,0,0,1,17.78,41a0.39,0.39,0,0,1,.34.08,1,1,0,0,0,.28.11h0.13l-0.07.11c-0.26.38-.47,0.64-0.65,0.86-0.47.57-.54,0.66,0,1.31,0.24-.25.45-0.5,0.67-0.75s0.54-.64.92-1l0.06-.07,0,0.08a1.36,1.36,0,0,0,.36.31,0.66,0.66,0,0,1,.4.5,3.1,3.1,0,0,1-.39,1.07c-0.3.59-.56,1.11,0,1.46a3.84,3.84,0,0,0,.6-1,3.44,3.44,0,0,1,.94-1.36,1.38,1.38,0,0,1,1,.09,3.32,3.32,0,0,0,.59.16H23V43c-0.11.77-.26,1.49-0.41,2.19s-0.27,1.29-.36,1.91v0h0A8.71,8.71,0,0,1,14.88,46.1ZM14,52.86A45.08,45.08,0,0,1,16,48.77l0-.08a0.93,0.93,0,0,1,.87-0.32l0.09,0c0.31,0.08.77,0.21,0.71,0.48-0.33,1.65-.19,1.72.69,2.13h0a1.35,1.35,0,0,0,0-.65,2.54,2.54,0,0,1,0-.68,1.45,1.45,0,0,0,0-.15A0.47,0.47,0,0,1,18.91,49a0.43,0.43,0,0,1,.33.12,0.52,0.52,0,0,1,.07.41,0.83,0.83,0,0,0,0,.16A1.21,1.21,0,0,0,20.2,51a1.89,1.89,0,0,0,.37-1.18,5.48,5.48,0,0,1,.22-1.06,0.56,0.56,0,0,1,.32-0.24,1,1,0,0,1,.73,0l0,0L22.2,55.2l0,0a6,6,0,0,1-3.35,1A10.22,10.22,0,0,1,15,55.35,1.67,1.67,0,0,1,14,52.86Zm0.75,10.35a0.94,0.94,0,0,1-.4-0.84c0.37-1.54.81-3.06,1.15-4.22A1.63,1.63,0,0,1,16,57.4a0.89,0.89,0,0,1,.74-0.2,0.82,0.82,0,0,1,.31.67c0,1.23.27,1.6,1.21,1.81,0-.16,0-0.32,0-0.48a6.49,6.49,0,0,1,.08-1.57,1,1,0,0,1,.89-0.21l0.49,0h0.07v0.07c0.35,1.88.45,2.24,1.58,2.28a0,0,0,0,0,0,0,1,1,0,0,0-.11-0.49,2.11,2.11,0,0,1-.11-0.37l0-.16a4.25,4.25,0,0,1-.07-1.47,0.59,0.59,0,0,1,.5-0.38A3.3,3.3,0,0,0,22,56.7a0.3,0.3,0,0,1,.24,0,0.53,0.53,0,0,1,.18.35c0,0.06,0,.12,0,0.17,0.49,1.41,1,2.8,1.46,4.26l0.49,1.44-0.05,0a9.81,9.81,0,0,1-4.86,1.32A11.73,11.73,0,0,1,14.79,63.21Zm4.39,9-0.16,0H18.69l0,0a11,11,0,0,1-1-5.42,1.31,1.31,0,0,1,.32-1,2.54,2.54,0,0,1,1.84-.2h0.05v0.05C20.39,68,20.39,68,20.87,68a1.3,1.3,0,0,0,.2-1.27,3.67,3.67,0,0,1,0-1.21,1.44,1.44,0,0,1,1-.48,1.1,1.1,0,0,1,.53.69,3.67,3.67,0,0,1,.14.54,0.78,0.78,0,0,0,.86.83c0.27-.13.22-0.4,0.11-0.74l0-.05a2,2,0,0,1-.13-1.55,1.77,1.77,0,0,1,1.3-.46h0l0,0,1.24,2.12L27.65,69l0,0.06-0.06,0-0.31.19A11.74,11.74,0,0,1,25,70.42C23.14,71.06,21.23,71.63,19.18,72.18ZM27.25,79a1.94,1.94,0,0,1-1.14.65H26a1.43,1.43,0,0,1-.86-0.73L25,78.66a11.66,11.66,0,0,1-2.24-6c0-.17.14-0.21,0.32-0.25a2.24,2.24,0,0,0,.44-0.15l0.08,0,0,0.08c0.72,2.34.77,2.4,1.91,2.31a0.17,0.17,0,0,0,.11-0.09,2.31,2.31,0,0,0-.35-1.23,9,9,0,0,1-.52-1.4V71.88l0.05,0L25,71.74a0.91,0.91,0,0,1,1.44.31c0.88,1.17,1.07,1.11,1.88.88l0.34-.09A10.42,10.42,0,0,0,26.82,71l-0.07-.06,0.08-.06c1.38-1,1.71-.75,2.71,0a7.55,7.55,0,0,0,1.39.81c0.24,0.12.48,0.24,0.72,0.37l0.66,0.39,0.48,0.3,0.08,0-0.06.07c-0.62.68-1.21,1.38-1.79,2.06A42.24,42.24,0,0,1,27.25,79Zm7.8,2.16a1.9,1.9,0,0,1-1.3.63,2,2,0,0,1-1.43-.75A32.31,32.31,0,0,1,30,78.29c-0.16-.22,0-0.39.21-0.58l0.22-.22,0-.05,0.05,0L31.21,78a1.26,1.26,0,0,0,1.62.35L31,76.65l0-.05,0.14-.19c0.43-.61.6-0.86,1.36-0.47a3.3,3.3,0,0,0,1.12.35,0.7,0.7,0,0,0,.19-0.4l0-.07-1.49-.93,0-.06a5.08,5.08,0,0,1,.66-0.88l0.05-.06,0.15-.19a0.54,0.54,0,0,1,.59-0.33c1.1,0.31,2.53.78,3.64,1.21a1,1,0,0,1,.6.76A13,13,0,0,1,35.05,81.17Zm7.41,3.5a1.32,1.32,0,0,1-1.1.68,1.44,1.44,0,0,1-.74-0.23,9,9,0,0,1-3.51-3.47,1.22,1.22,0,0,1,.32-1.75l0,0,0,0c0.22,0.12.45,0.27,0.7,0.42,0.79,0.5,1.68,1.06,2,.64a0.36,0.36,0,0,0,0-.28c-0.22-.61-1.75-1.3-2.32-1.56l-0.07,0,0-.07c0.15-.29.25-0.53,0.34-0.77s0.19-.47.34-0.75l0-.07,0.07,0,0.59,0.32a14.59,14.59,0,0,0,1.47.74,0.78,0.78,0,0,0,.48-0.12l0.17-.08-0.09-.11a2.19,2.19,0,0,0-.36-0.37c-0.17-.13-0.35-0.24-0.53-0.36a4.43,4.43,0,0,1-.92-0.69,1.31,1.31,0,0,1-.07-1.13,1.09,1.09,0,0,1,1-.18c1,0.27,2,.58,3,0.92a1.08,1.08,0,0,1,.62.71A10.56,10.56,0,0,1,42.47,84.67ZM50,85.19a1.17,1.17,0,0,1-.93.33,1.19,1.19,0,0,1-.32,0,9.34,9.34,0,0,1-3.89-2.57,1.17,1.17,0,0,1,0-.95v0l0,0a1.16,1.16,0,0,1,.69.25,5.87,5.87,0,0,0,1.08.45,0.28,0.28,0,0,0,.14,0A0.27,0.27,0,0,0,47,82.31a0.35,0.35,0,0,0-.21-0.48c-1.55-.59-1.56-0.61-1.5-2.35,0-.15.26-0.17,1-0.2s1.53-.07,1.54-0.29a0.57,0.57,0,0,0-.13-0.45,2.06,2.06,0,0,0-1.36-.23,4.7,4.7,0,0,1-1.08-.06H45.21V78.17c0-.11,0-0.23,0-0.36a1.91,1.91,0,0,1,.08-1,1.08,1.08,0,0,1,.91-0.17h0.7c1,0,2,0,3,0a1.06,1.06,0,0,1,.84.53A10.27,10.27,0,0,1,50,85.19Zm-0.31-9.6-1.3.06H47.88A21.3,21.3,0,0,1,39.44,74c-0.92-.39-1.9-0.7-2.85-1s-1.92-.6-2.84-1a11.25,11.25,0,0,1-3.83-2.27,21.38,21.38,0,0,1-3.27-4.92,31.76,31.76,0,0,1-3.19-10.36,30.73,30.73,0,0,1,.11-7.55V46.87c0.31-3.16,1.54-5.77,2.84-8.53l0.37-.78a18.87,18.87,0,0,1,6.14-7,30.89,30.89,0,0,1,4.92-2.82l0,0a24.88,24.88,0,0,1,3.81-1.41,13.42,13.42,0,0,1,1.89-.38l0.86-.14a35.87,35.87,0,0,1,7.94-.85,32.16,32.16,0,0,1,9.81,1.41c2.45,0.84,5.22,1.91,7.19,4,1.14,1.2,2.06,2.15,3,3.06a15.31,15.31,0,0,1,3.87,6.83c0.15,0.56.32,1.12,0.49,1.67a26.62,26.62,0,0,1,1.2,5.34,38.77,38.77,0,0,1-.39,9.64,47.56,47.56,0,0,1-1.59,6.93,11.79,11.79,0,0,1-6.33,7.48l-1.25.6a25.29,25.29,0,0,1-5.79,2.24c-1.61.34-3.28,0.56-4.89,0.78L56.88,75c-1.32.18-2.72,0.33-4.16,0.44C51.72,75.5,50.71,75.54,49.74,75.59Zm8.05,10.48a0.22,0.22,0,0,1-.12,0,0.29,0.29,0,0,1-.14,0,17.83,17.83,0,0,1-4.85-3.19l-0.45-.37v0a1.77,1.77,0,0,0,0-.23,1.78,1.78,0,0,1,0-.26v0h0a5.37,5.37,0,0,1,1.39,0,2.48,2.48,0,0,0,.83,0c0-.07,0-0.21,0-0.35s0-.24,0-0.32a5.42,5.42,0,0,0-.83-0.09c-0.95-.06-1.36-0.11-1.36-0.3s0-.2,0-0.34,0-.33,0-0.44a1,1,0,0,1,0-.8A1,1,0,0,1,53,79.14h0.2c1.24,0,1.43-.17,1.43-0.23l-0.06-.4c0-.14-0.33-0.14-1.06-0.14H53.17a1.26,1.26,0,0,1-1-.32A1,1,0,0,1,52,77.21a0.83,0.83,0,0,1,.54-0.64l0.72-.13,0.12,0c1.41-.28,2.35-0.36,2.93,0s0.84,1.48,1.16,3.34l0,0.2A37,37,0,0,1,58,83.82C58.16,85.84,57.88,86,57.79,86.07Zm6.92-1.41,0,0.05-0.06,0c-1.84-.49-5.33-1.89-5.5-3V81.6l0,0A4.31,4.31,0,0,1,60,81.35,1.43,1.43,0,0,0,61,81a0.7,0.7,0,0,0-.27-0.5,0.34,0.34,0,0,0-.3,0,1.48,1.48,0,0,1-1.36,0A1.72,1.72,0,0,1,58.57,79v0l0,0a4.66,4.66,0,0,1,1-.44,4.61,4.61,0,0,0,.85-0.37l-0.08-.28a0.22,0.22,0,0,0-.1-0.18,1,1,0,0,0-.65.15,1.31,1.31,0,0,1-1.08.14,1.64,1.64,0,0,1-.78-1,4.48,4.48,0,0,1-.14-0.52l-0.08-.31,0-.08h0.08l1.27-.18a32.5,32.5,0,0,1,3.31-.38h0a1.85,1.85,0,0,1,1.2,1.06A44.52,44.52,0,0,1,65,81.14,4.6,4.6,0,0,1,64.71,84.66Zm7.86-3.15a0.35,0.35,0,0,1-.28.24h0l-0.63,0a9.26,9.26,0,0,1-5.4-2.06l-0.06,0,0-.06a1.13,1.13,0,0,1,.54-0.28A0.84,0.84,0,0,0,67.3,79a0.39,0.39,0,0,0-.14-0.31,0.92,0.92,0,0,0-.81-0.15,1.25,1.25,0,0,1-1-.17,1.8,1.8,0,0,1-.46-1.27V77.08l0.06,0,0.81-.19,0.89-.21A0.89,0.89,0,0,0,65.43,76a1.11,1.11,0,0,1-1.36-1l0-.07,0.07,0,0.74-.29c0.82-.31,1.66-0.64,2.5-0.93a0.66,0.66,0,0,1,.55.22l0.5,0.55c0.78,0.86,1.59,1.75,2.33,2.67C71.63,78.27,72.85,80.74,72.56,81.51Zm4.77-3.19a5,5,0,0,1-3.11.91H73.84a1.1,1.1,0,0,1-1.1-.95,5.61,5.61,0,0,0-.36-0.77,0.18,0.18,0,0,1,0-.15,1.32,1.32,0,0,1,.7-0.45,2.31,2.31,0,0,0,.63-0.34l-0.25-.22-0.24-.21-1.15.54L71,75.52l1-.76a1.1,1.1,0,0,0-.28-0.32,4.7,4.7,0,0,0-.53.18C70.48,74.91,70.1,75,69,73.13l0-.06L69,73c0.18-.1.39-0.24,0.62-0.39a8.87,8.87,0,0,1,1.43-.82,1,1,0,0,1,.89.24,11.06,11.06,0,0,1,1,.76,10.19,10.19,0,0,0,1,.79,9,9,0,0,1,2.94,3.77l0.46,0.86,0,0.06ZM83.52,73l0,0.07-0.07,0c-0.46.22-.92,0.46-1.37,0.7a10.42,10.42,0,0,1-4.39,1.55h0a1.53,1.53,0,0,1-.83-0.76,1,1,0,0,1,.58-0.76A2.44,2.44,0,0,0,78,73.3a0.32,0.32,0,0,0,0-.31,0.64,0.64,0,0,0-.48-0.2,3.94,3.94,0,0,0-.67.34,1.42,1.42,0,0,1-1.06.32,1.57,1.57,0,0,1-.83-0.87l0,0,1.23-1.33a0.07,0.07,0,0,0,0-.07,0.61,0.61,0,0,0-.52-0.21,4.42,4.42,0,0,1-1.71.85A1.85,1.85,0,0,1,72.4,71l-0.06-.06,0.07-.05A13.44,13.44,0,0,0,76,67l0-.05,0.06,0C79.66,68.44,82,70.35,83.52,73Zm1.84-7.43a39.44,39.44,0,0,1-2.45,3.1,0.94,0.94,0,0,1-.68.37H82.17a0.65,0.65,0,0,1-.5-0.38l0,0v0a7.54,7.54,0,0,1,.43-0.89c0.28-.53.64-1.18,0.43-1.33h0A0.9,0.9,0,0,0,81.93,66a0.19,0.19,0,0,0-.14.13c-0.52,1.23-.8,1.67-1.13,1.74a1.24,1.24,0,0,1-1-.49l0,0,0,0c0.08-.23.19-0.49,0.32-0.76a2.67,2.67,0,0,0,.4-1.43A0.25,0.25,0,0,0,80.26,65c-0.67-.25-0.78,0-1.11.72-0.12.25-.26,0.56-0.46,0.92a0.21,0.21,0,0,1-.19.07,3,3,0,0,1-1.79-.81,0.26,0.26,0,0,1,0-.27l0.39-1.22c0.3-.93.58-1.81,0.89-2.89a1,1,0,0,1,.42-0.66,0.91,0.91,0,0,1,.72,0,13,13,0,0,1,6.11,3.66A1.12,1.12,0,0,1,85.36,65.56ZM87,58.8a21.71,21.71,0,0,1-2,2.72,1.24,1.24,0,0,1-.77.3h0a0.19,0.19,0,0,1-.16-0.05,1.7,1.7,0,0,1-.4-1.07A6.57,6.57,0,0,1,84,59.43c0-.15.09-0.3,0.13-0.45l-0.29-.1-0.37-.13h0a2,2,0,0,0-.16.62,4.36,4.36,0,0,1-.11.5,1.12,1.12,0,0,1-.58.79,1.42,1.42,0,0,1-1.14-.3l-0.35-.19L80.83,60l-0.05,0,0-.06a9.08,9.08,0,0,1,.34-0.88,3,3,0,0,0,.37-1.19l0,0-0.36-.12a3.17,3.17,0,0,1-.47-0.17h0a0.66,0.66,0,0,0-.24.58,2.58,2.58,0,0,1-.21.71,1.44,1.44,0,0,1-1.8.7l-0.07,0V59.49c0.19-.87.3-1.61,0.4-2.33,0.07-.48.14-1,0.24-1.5a1.37,1.37,0,0,1,1.08-.8h0l1.15,0a8.61,8.61,0,0,1,4.21.75,4.88,4.88,0,0,1,1.81,1.41A2.07,2.07,0,0,1,87,58.8Z"/><path class="cls-1" d="M61.5,61.67c0-.29,0-0.55-0.07-0.82s-0.09-.83-0.14-1.23a21.75,21.75,0,0,1-.22-2.79c0-1.06,0-1.19-1-1.27-0.41,0-.83,0-1.24-0.06-0.58,0-1.18,0-1.77-.11a1.12,1.12,0,0,1-.8-0.73c-0.16-1.48-.23-3-0.28-4.35-0.09-2.18-.18-4.71-0.23-7.21,0-2.29,0-4.3,0-6.14a1.44,1.44,0,0,0-.27-1.08,1,1,0,0,0-.77-0.24c-1.33,0-2.69.16-3.87,0.28a4,4,0,0,0-3.31,1.58L46.2,39.58l-1.26,1.93a0.8,0.8,0,0,0,.66,1.41c0.84,0.1,1.76.17,2.91,0.23a0.73,0.73,0,0,1,.8.86c0.1,3.94.2,7.5,0.35,11.08a1,1,0,0,1-1,1.3,19.65,19.65,0,0,1-2.89-.09h-0.1a1,1,0,0,0-.72.29,0.71,0.71,0,0,0-.2.58c0.17,1.43.35,3,.49,4.5a0.84,0.84,0,0,0,.83,1H47.7c2.48,0,5,0,7.55-.12,1.39,0,2.78-.18,4.25-0.31l2-.18Zm-1.61-.74a0.85,0.85,0,0,1-.64.22h-0.1l-0.72.07c-1.07.1-2.17,0.21-3.26,0.23-1.45,0-2.92,0-4.35.06l-3.33,0h0a1,1,0,0,1-1.2-1.13c0-.08,0-0.16,0-0.23a2.19,2.19,0,0,1,0-.34c0-.17,0-0.37,0-0.55a1.77,1.77,0,0,1,.18-1.24,1.69,1.69,0,0,1,1.14-.31,4.83,4.83,0,0,0,.63-0.06l1.3-.28,1-.21a0.8,0.8,0,0,0,.73-1l0-.3c-0.17-1.42-.35-2.89-0.41-4.34-0.08-1.82-.12-3.67-0.17-5.45,0-1.1-.05-2.2-0.09-3.31a1.91,1.91,0,0,0-.21-1,0.94,0.94,0,0,0-.53-0.26,0.27,0.27,0,0,0-.17,0,2.86,2.86,0,0,1-2.57.29l-0.56-.1-0.11,0,0.06-.09,0.71-1c0.5-.72,1-1.4,1.39-2.11,0.73-1.24,1.89-1.45,3.22-1.57,0.6-.06,1.2-0.14,1.89-0.23l1.08-.14h0.08V36.6c0,1.09,0,2.16,0,3.21,0,2.4,0,4.67,0,7s0.11,4.54.2,6.75q0,0.81.06,1.62a3.17,3.17,0,0,0,.2,1,0.94,0.94,0,0,0,1.22.63A13,13,0,0,1,59,56.63a0.94,0.94,0,0,1,.66.66c0.07,0.52.11,1.06,0.15,1.58s0.08,1,.14,1.5A0.71,0.71,0,0,1,59.89,60.93Z"/><path class="cls-1" d="M47.08,29.08a1.41,1.41,0,0,0,.8-0.45,0.67,0.67,0,0,0-1-.63c-1.33.36-2.67,0.72-4,1.11a0.74,0.74,0,0,0-.45,1.24C44,29.92,45.57,29.51,47.08,29.08Z"/><path class="cls-1" d="M39.25,30.06c-1.4.65-2.72,1.47-4,2.26a0.7,0.7,0,0,0-.11.67,0.66,0.66,0,0,0,.62.22c0.5-.21,1-0.53,1.43-0.79l3.17-1.68A0.7,0.7,0,0,0,39.25,30.06Z"/><path class="cls-1" d="M51.55,28.37c1-.08,1.34-0.11,2.33-0.22,0.34,0,.51,0,0.68,0a5.91,5.91,0,0,0,.85,0,1.28,1.28,0,0,0,.85-0.24,0.88,0.88,0,0,0-.73-0.44,10.18,10.18,0,0,0-4.28.16c-0.26.06-.47,0.18-0.39,0.48S51.27,28.39,51.55,28.37Z"/><path class="cls-1" d="M59.93,71.08L60,71.45c1.58,0.81,3.15.13,4.7-.26a1.15,1.15,0,0,0,1-1.35C65.66,69.48,59.91,70.57,59.93,71.08Z"/><path class="cls-1" d="M47,72.29c-1.31.17-2.62-.34-3.93-0.44-0.28,0-.75-0.17-0.87.28a0.77,0.77,0,0,0,.64.7c1.72,0.4,5.31.92,5.52,0.13S47.72,72.2,47,72.29Z"/><path class="cls-1" d="M71.81,65.31a0.69,0.69,0,0,0-.55.25c-0.45,1-1.46,1.32-2.3,1.83a4,4,0,0,0-.83.49,0.72,0.72,0,0,0-.24.72,0.65,0.65,0,0,0,.74.14,18.92,18.92,0,0,0,2.58-1.53,2.81,2.81,0,0,0,1-1.36A0.5,0.5,0,0,0,71.81,65.31Z"/><path class="cls-1" d="M55.4,71.72c-2.2.18-4.49,0.23-4,.64,0.13,0.84,3.12,1,5.17-.06C56.79,71.69,56,71.67,55.4,71.72Z"/><path class="cls-1" d="M26.95,55.53c0.42,1.79.79,3.42,1.21,5,0.05,0.19.6,0.91,0.7,0.46C29.29,59.49,28.14,55.81,26.95,55.53Z"/><path class="cls-1" d="M27.13,51.36c0.1-.6.21-1.2,0.28-1.81,0.12-1,.23-2,0.3-3a1.17,1.17,0,0,0-.17-0.82,0.47,0.47,0,0,0-.56.53c-0.23,1.45-.43,2.91-0.57,4.37a1.78,1.78,0,0,0,.45.76C27,51.39,27.12,51.66,27.13,51.36Z"/><path class="cls-1" d="M29.47,63.27a1.33,1.33,0,0,0,0,.61c0.59,1,1.18,2.08,1.86,3.06a1,1,0,0,0,1.48.35C31.91,66,31,64.67,30.14,63.39A1.32,1.32,0,0,0,29.47,63.27Z"/><path class="cls-1" d="M33.18,33.52a0.57,0.57,0,0,0-.51.08c-0.79,1-1.57,2-2.28,3a0.84,0.84,0,0,0,.29.91,0.6,0.6,0,0,0,.68-0.39c0.69-.91,1.35-1.86,2-2.8a3,3,0,0,0,.19-0.37A1.33,1.33,0,0,0,33.18,33.52Z"/><path class="cls-1" d="M28,44.36A0.62,0.62,0,0,0,28.48,44c0.39-1.25.77-2.52,1.1-3.79a0.57,0.57,0,0,0-.16-0.79,0.45,0.45,0,0,0-.53.29c-0.45,1.4-.89,2.81-1.29,4.23A0.65,0.65,0,0,0,28,44.36Z"/><path class="cls-1" d="M37.91,70.47a19.56,19.56,0,0,0-2.62-1.15c-0.31-.12-0.89-0.44-1.06,0l-0.12.46c1.15,0.6,2.29,1.22,3.47,1.76a2.28,2.28,0,0,0,1-.1A2.91,2.91,0,0,0,37.91,70.47Z"/><path class="cls-1" d="M59.43,28.42a3.61,3.61,0,0,0,.49.13,7.64,7.64,0,0,1,3.23,1.27c0.26,0.2.56,0.38,0.85,0.56l0.25-.21a4.46,4.46,0,0,0-.54-0.85,7.62,7.62,0,0,0-4.19-1.83c-0.26,0-.78-0.17-0.88.35A1.08,1.08,0,0,0,59.43,28.42Z"/><path class="cls-1" d="M74.53,58.37a0.58,0.58,0,0,0-.62.42c-0.42,1.18-.8,2.38-1.15,3.58a0.45,0.45,0,0,0,.81.36c0.46-1.3.87-2.62,1.3-4A0.39,0.39,0,0,0,74.53,58.37Z"/><path class="cls-1" d="M66,32.06a10,10,0,0,1,2.94,2.32,0.81,0.81,0,0,0,.82.24l0.09-.33a8.89,8.89,0,0,0-1-1.15c-0.79-.65-1.62-1.24-2.47-1.81a1.27,1.27,0,0,0-.65.11A1.52,1.52,0,0,0,66,32.06Z"/><path class="cls-1" d="M75.5,47.64a7.27,7.27,0,0,0-1-4.55,0.41,0.41,0,0,0-.71,0l1.39,4.67Z"/><path class="cls-1" d="M75.29,54.83c0.11,0.4.34,0.31,0.49,0.1A7.07,7.07,0,0,0,76,51a0.31,0.31,0,0,0-.51-0.17A7.53,7.53,0,0,0,75.29,54.83Z"/><path class="cls-1" d="M72.16,39.87a4.69,4.69,0,0,0,.7.71l0.42-.33L71.2,36.38l-0.55.23a15.17,15.17,0,0,0,.53,1.51A15.12,15.12,0,0,0,72.16,39.87Z"/></svg>