<svg id="Layer_1" data-name="Layer 1" xmlns="http://www.w3.org/2000/svg" viewBox="0 0 60 60"><defs><style>.cls-1{fill:#036;}</style></defs><title>Ikoner</title><path class="cls-1" d="M41.6,6.51A22.4,22.4,0,0,0,38,5.76a32.49,32.49,0,0,0-4.31,0c-3.29.13-6.38,0.84-8.63,3.51a6.15,6.15,0,0,0-1.6,3.26c-0.16,1.45-.22,2.91-0.32,4.37-0.07,1.19-.13,2.39-0.2,3.67H19.55a1.13,1.13,0,0,0-1.26,1.08q-0.17,3.33-.2,6.66c0,0.84.35,1,1.16,1,1,0,2.07,0,3.3,0,0,2.72,0,5.24,0,7.75,0,3,0,5.9-.13,8.85-0.06,2.09-.18,4.92-0.34,7C22,54,22,54.24,23.2,54.36c1.74,0.17,3.5-.54,5.25-0.44a17.62,17.62,0,0,1,2.33.19,1.63,1.63,0,0,0,2.15-1.74c0-2.06,0-4.12,0-6.18,0.06-2.32.19-4.64,0.28-7,0.06-1.49.13-3,.16-4.47s0-3,0-4.55a0.73,0.73,0,0,1,.84-0.86q2.27,0,4.53,0A1,1,0,0,0,40,28.43c0.18-1.08.5-2.13,0.74-3.2,0.2-.87.4-1.74,0.53-2.62,0.07-.44.19-1-0.5-1.13A29.54,29.54,0,0,0,37.54,21c-1.45-.08-2.91,0-4.41,0,0.07-1.08.11-2,.21-2.95A3.56,3.56,0,0,1,35,15.25a6.9,6.9,0,0,1,4.73-1c1.07,0.13,1.51-.17,1.6-1.2,0-.34.07-0.68,0.12-1,0.21-1.44.36-2.9,0.66-4.32C42.23,7.08,42.17,6.66,41.6,6.51ZM40.65,9.14c-0.17,1.11-.28,2.24-0.43,3.35a5.82,5.82,0,0,1-.15.61,7.66,7.66,0,0,0-6.56,1.67A4,4,0,0,0,32.28,17,27.44,27.44,0,0,0,32,21.33c0,1,.27,1.16,1.26.93,2-.46,4,0,5.93.08A0.76,0.76,0,0,1,40,23.46c-0.42,1.51-.7,3.06-1.08,4.78-1.89,0-3.79,0-5.69,0a0.7,0.7,0,0,0-.86.81Q32.23,36.19,32,43.34c-0.08,3-.21,5.91-0.3,8.87,0,0.42-.13.67-0.57,0.66-2.53-.1-5.06.53-7.52,0.43,0-1.61,0-3.9,0-5.45,0-2,0-4.07,0-6.1,0-3.59-.12-7.19-0.18-10.78,0-.29,0-0.58,0-0.87a2.34,2.34,0,0,0,0-1.19,3.78,3.78,0,0,0-1.67-.75A22.29,22.29,0,0,0,19.22,28a3.74,3.74,0,0,1-.08-0.54c0-1.85,0-3.69,0-5.76,1.48,0.09,2.8.13,4.1,0.28a0.6,0.6,0,0,0,.8-0.59c0.12-.94.22-1.88,0.28-2.82a47.67,47.67,0,0,1,.35-5.7,8,8,0,0,1,1.67-3A7.52,7.52,0,0,1,31,7.28a17.13,17.13,0,0,1,8.06,0l0.15,0C40.93,7.47,40.91,7.47,40.65,9.14Z"/></svg>