<?xml version="1.0" encoding="utf-8"?>
<!-- Generator: Adobe Illustrator 20.0.0, SVG Export Plug-In . SVG Version: 6.00 Build 0)  -->
<svg version="1.1" xmlns="http://www.w3.org/2000/svg" xmlns:xlink="http://www.w3.org/1999/xlink" x="0px" y="0px"
	 viewBox="0 0 100 100" style="enable-background:new 0 0 100 100;" xml:space="preserve">
<style type="text/css">
	.st0{fill:#231F20;}
	.st1{fill:#393939;}
	.st2{fill:#003366;}
	.st3{opacity:0.9;fill:#2E3191;}
	.st4{fill:#2E3191;}
	.st5{fill:#292929;}
	.st6{fill:none;}
	.st7{fill:#1C3664;}
</style>
<g id="Layer_2">
</g>
<g id="Layer_1">
	<g>
		<path class="st7" d="M86,42.5c-0.6-2-1.7-4.9-3.5-7.6c-1.8-2.9-5-6.2-6.3-7.6c-4.3-4.5-9.4-7.6-15.7-8.9
			c-3.4-0.7-6.9-0.8-10.2-2.3c-1.9-0.8-4-0.3-5.7,0.8c-1.3,0.8-2.8,1.2-4.3,1.5c-1.6,0.3-3.2,0.6-4.9,1.1c-4.1,1.4-7.7,3.6-10.4,6.4
			c-0.2,0.2-5.2,5.5-6.9,9.5c-1.6,3.3-2.7,5.9-3,8.3c-0.4,2.4-0.5,4.9-0.4,7.3c0.1,2.9,0.4,6.4,1.2,9.1c2.7,9,8.5,16,12.4,17.7
			c0,0,0,0,0,0c2.8,1.9,3.9,2.6,6.7,4.5c0.5,0.3,2.2,1.2,3.6,1.5c2.5,0.6,5,1.3,7.6,1.6c1.3,0.2,2.7,0.2,4.1,0.1
			c3.2-0.2,18.6-1.2,25.6-8.6c3-3.2,6-7.5,7.9-11.3C87.6,57.9,88.5,50.8,86,42.5z M49.1,17c2.6,0.2,4.4,2.1,4.3,4.4
			c-0.2,3-2.4,5.1-5,4.8c-2.6-0.3-4.3-2.6-4.2-5.6C44.3,18.3,46.3,16.8,49.1,17z M45,26.3c2.4,1.6,5.1,2.1,7.3,0.1
			c2.5-2.3,1-1.9,4.2-1.3c1.4,0.3,6.1,1,8.6,2.3c9.1,4.8,16.8,15.1,14.5,27.8c-0.8,4.5-2.8,8.6-5.2,11.3c-5.9,6.8-7.9,7.9-15.9,9.8
			c-11.8,2.9-17.6,0.5-22.8-2.9c-2.2-1.4-4.1-3.2-6-5.1c-1.1-1-2-2.4-2.7-3.7c-1-1.7-2.9-5.3-3.4-7.5c-1.3-5.7-1.1-11.5,1.2-17.2
			c1.8-4.5,3.9-7.3,6.8-9.8c1-0.9,3.7-2.7,4.9-3.3c2.2-1.1,4.4-1.7,6.7-2C43.8,25.4,44.4,25.9,45,26.3z M79.8,70
			c-2.7,4.1-6.2,8.2-10.9,10.3c-4.2,1.9-7.9,2.8-12.7,3.4c-5,0.7-10,1.1-15-0.4c-2.2-0.6-4.4-1.2-6.3-2.5c-2.5-1.7-5.1-3.5-7.7-5
			c-2.7-1.9-8.5-9.6-10-16.4c-1.7-7.1-1.4-14.8,1.3-21.7c0.1-0.4,3.3-7.6,8.6-12.1c4.3-3.5,9-5.1,14.1-6.1c0.4-0.1,1.2-0.3,1.7-0.3
			c-0.4,1.8,0,3.1,0.2,4.3C36,25,29.1,29.2,25.5,35.4c-1.2,2.1-2.3,5.1-2.9,7.7c-1.4,5.9-1.2,11.9,1.1,17.6
			c1.9,4.6,4.4,8.6,8.5,11.8c3.4,2.6,4.7,3.8,8.7,5c4.3,1.3,8.6,1.5,10.9,1.2c6-0.8,7.1-0.9,12-2.6c2.2-0.8,4.2-1.9,6-3.3
			c4-3.1,6.7-6.7,8.8-11.1c3.3-6.8,3.5-13.5,0.7-20.5C77,35,73.8,32,70.5,29.3c-1.3-1-4.9-3.6-7.9-4.5c-2.3-0.7-5.8-1-8-1.5
			c0.5-1.4,0.6-2.4-0.1-4.4c0.2-0.3,8.7,1.3,12.3,2.9c4,1.8,7.1,4.7,10.2,7.8c3,3.1,6.2,8.8,6.4,9.3c3.4,7.9,3.8,15.8,0.3,23.7
			C82.6,65.2,81.3,67.7,79.8,70z"/>
		<path class="st7" d="M43.4,61.6c3.2-1.9,6.4-3.7,9.4-5.8c2.1-1.4,2.6-2.6,2.6-2.9c0.5-2.1,2.6-9.5,3.2-13c0.2-0.9,0.7-2.3-0.9-1.8
			c-1,0.8-2.2,1.6-3.2,2.5c-2.8,2.4-5.9,4.5-8.3,7.3c-1.5,1.8-3.8,8.3-4.1,9.2c-0.5,1.5-0.9,2.9-1.5,5
			C40.6,63.1,42.8,61.9,43.4,61.6z M56.8,41.2c0.4,0.2-1.6,7.3-2.6,10.5c-2.7-1.1-3.7-1.5-6.5-3.1C47.3,48.4,56.5,41,56.8,41.2z
			 M46.8,49.9c3.4,1.5,4.5,2.1,6.7,3.1c-0.4,1.3-2.9,2.5-4.2,3.3c-1.9,1.1-4.5,2.6-6.4,3.8C42,60.7,46.5,49.7,46.8,49.9z"/>
		<path class="st7" d="M47.6,23.8c2.1,0.3,2.2-0.4,2.7-1c0.8-0.9,0.8-2.4,0.1-3.3c-0.4-0.7-1.6-0.9-2.4-0.6
			c-1.3,0.6-2.2,1.8-1.9,3.2C46.2,22.9,46.2,23.2,47.6,23.8z M48.5,20.2c0.4,0.1,1.1,0.4,1.1,1.1c-0.1,1.3-0.7,1.3-1.3,1.2
			c-0.2,0-0.8-0.4-0.9-0.7C47.1,21.2,47.9,20.1,48.5,20.2z"/>
	</g>
	<path class="st7" d="M29.4,50.1c-2.2,0.2-4.5,0.2-4,0.6c0.1,0.8,3.1,1,5.2-0.1C30.8,50.1,30,50.1,29.4,50.1z"/>
	<path class="st7" d="M76.4,50.1c-2.2,0.2-4.5,0.2-4,0.6c0.1,0.8,3.1,1,5.2-0.1C77.8,50.1,77,50.1,76.4,50.1z"/>
	<path class="st7" d="M66.2,36.4c0.3,0.1,0.6,0,0.8-0.1c0.8-0.7,1.6-1.5,2.3-2.3c0.3-0.1,0.3-0.4-0.1-0.6c-0.3-0.1-0.7-0.1-0.9,0
		c-0.9,0.8-1.8,1.7-2.6,2.5C65.7,36.1,65.9,36.2,66.2,36.4z"/>
	<path class="st7" d="M33.6,69c0.3,0.1,0.6,0,0.8-0.1c0.8-0.7,1.6-1.5,2.3-2.3c0.3-0.1,0.3-0.4-0.1-0.6c-0.3-0.1-0.7-0.1-0.9,0
		c-0.9,0.8-1.8,1.7-2.6,2.5C33.1,68.7,33.3,68.9,33.6,69z"/>
	<path class="st7" d="M48.4,33.5c0.2,0.4,0.4,0.3,0.6,0.1c0.5-1.3,0.5-2.6,0.1-3.9c0-0.2-0.3-0.3-0.5-0.2c-0.1,0-0.1,0-0.2,0.1
		C48.1,30.8,48,32.2,48.4,33.5z"/>
	<path class="st7" d="M52.4,74.3c0.2,0.4,0.5,0.2,0.6,0c0.3-1.3,0.1-2.7-0.5-3.9c-0.1-0.2-0.3-0.2-0.5-0.2c-0.1,0-0.1,0.1-0.2,0.1
		C51.6,71.7,51.8,73,52.4,74.3z"/>
	<path class="st7" d="M35.2,37.5c0-0.3,0-0.6-0.2-0.8c-0.8-0.7-1.6-1.4-2.5-2.1c-0.1-0.3-0.4-0.2-0.6,0.2c-0.1,0.3,0,0.7,0.1,0.8
		c0.9,0.8,1.8,1.7,2.7,2.4C35,38,35.1,37.8,35.2,37.5z"/>
	<path class="st7" d="M70.5,67.3c0-0.3,0-0.6-0.2-0.8c-0.8-0.7-1.6-1.4-2.5-2.1c-0.1-0.3-0.4-0.2-0.6,0.2c-0.1,0.3,0,0.7,0.1,0.8
		c0.9,0.8,1.8,1.7,2.7,2.4C70.2,67.8,70.4,67.6,70.5,67.3z"/>
</g>
</svg>
